<?xml version="1.0" encoding="UTF-8" standalone="no"?>
<!DOCTYPE svg PUBLIC "-//W3C//DTD SVG 1.1//EN"
 "http://www.w3.org/Graphics/SVG/1.1/DTD/svg11.dtd">
<!-- Generated by graphviz version 2.34.0 (20130907.0111)
 -->
<!-- Title: Player() Pages: 1 -->
<svg width="143pt" height="160pt"
 viewBox="0.00 0.00 143.00 160.00" xmlns="http://www.w3.org/2000/svg" xmlns:xlink="http://www.w3.org/1999/xlink">
<g id="graph0" class="graph" transform="scale(1 1) rotate(0) translate(4 156)">
<title>Player()</title>
<polygon fill="white" stroke="white" points="-4,4 -4,-156 139,-156 139,4 -4,4"/>
<!-- Node1 -->
<g id="node1" class="node"><title>Node1</title>
<polygon fill="#bfbfbf" stroke="black" points="15,-1 15,-21 73,-21 73,-1 15,-1"/>
<text text-anchor="middle" x="44" y="-8.2" font-family="Segoe UI Semibold" font-size="11.00">Player()</text>
</g>
<!-- Node2 -->
<g id="node2" class="node"><title>Node2</title>
<g id="a_node2"><a xlink:href="interface_h_u_d_manager.html" target="_top" xlink:title="Displays information for the player. ">
<polygon fill="white" stroke="black" points="0,-71 0,-91 88,-91 88,-71 0,-71"/>
<text text-anchor="middle" x="44" y="-78.2" font-family="Segoe UI Semibold" font-size="11.00">HUDManager</text>
</a>
</g>
</g>
<!-- Node2&#45;&gt;Node1 -->
<g id="edge1" class="edge"><title>Node2&#45;&gt;Node1</title>
<path fill="none" stroke="#9a32cd" stroke-dasharray="5,2" d="M44,-60.5567C44,-47.557 44,-31.0574 44,-21.0255"/>
<polygon fill="#9a32cd" stroke="#9a32cd" points="40.5001,-60.8292 44,-70.8292 47.5001,-60.8293 40.5001,-60.8292"/>
<text text-anchor="middle" x="89.5" y="-43.2" font-family="Segoe UI Semibold" font-size="11.00"> myHUDManager</text>
</g>
<!-- Node3 -->
<g id="node3" class="node"><title>Node3</title>
<polygon fill="white" stroke="#bfbfbf" points="11.5,-131 11.5,-151 76.5,-151 76.5,-131 11.5,-131"/>
<text text-anchor="middle" x="44" y="-138.2" font-family="Segoe UI Semibold" font-size="11.00">NSObject</text>
</g>
<!-- Node3&#45;&gt;Node2 -->
<g id="edge2" class="edge"><title>Node3&#45;&gt;Node2</title>
<path fill="none" stroke="midnightblue" d="M44,-120.731C44,-110.781 44,-99.1016 44,-91.1903"/>
<polygon fill="midnightblue" stroke="midnightblue" points="40.5001,-120.937 44,-130.938 47.5001,-120.938 40.5001,-120.937"/>
</g>
</g>
</svg>
