<?xml version="1.0" encoding="UTF-8" standalone="no"?>
<!DOCTYPE svg PUBLIC "-//W3C//DTD SVG 1.1//EN"
 "http://www.w3.org/Graphics/SVG/1.1/DTD/svg11.dtd">
<!-- Generated by graphviz version 2.34.0 (20130907.0111)
 -->
<!-- Title: Player Pages: 1 -->
<svg width="287pt" height="88pt"
 viewBox="0.00 0.00 287.00 88.00" xmlns="http://www.w3.org/2000/svg" xmlns:xlink="http://www.w3.org/1999/xlink">
<g id="graph0" class="graph" transform="scale(1 1) rotate(0) translate(4 84)">
<title>Player</title>
<polygon fill="white" stroke="white" points="-4,4 -4,-84 283,-84 283,4 -4,4"/>
<!-- Node1 -->
<g id="node1" class="node"><title>Node1</title>
<polygon fill="#bfbfbf" stroke="black" points="93.5,-1 93.5,-21 142.5,-21 142.5,-1 93.5,-1"/>
<text text-anchor="middle" x="118" y="-8.2" font-family="Segoe UI Semibold" font-size="11.00">Player</text>
</g>
<!-- Node2 -->
<g id="node2" class="node"><title>Node2</title>
<polygon fill="white" stroke="#bfbfbf" points="-0.5,-59 -0.5,-79 88.5,-79 88.5,-59 -0.5,-59"/>
<text text-anchor="middle" x="44" y="-66.2" font-family="Segoe UI Semibold" font-size="11.00">SKSpriteNode</text>
</g>
<!-- Node2&#45;&gt;Node1 -->
<g id="edge1" class="edge"><title>Node2&#45;&gt;Node1</title>
<path fill="none" stroke="midnightblue" d="M64.3794,-52.5778C77.7478,-42.4611 94.7705,-29.5791 106.008,-21.0752"/>
<polygon fill="midnightblue" stroke="midnightblue" points="62.0816,-49.9273 56.2196,-58.7527 66.3057,-55.5092 62.0816,-49.9273"/>
</g>
<!-- Node3 -->
<g id="node3" class="node"><title>Node3</title>
<polygon fill="white" stroke="#bfbfbf" points="107,-59 107,-79 279,-79 279,-59 107,-59"/>
<text text-anchor="middle" x="193" y="-66.2" font-family="Segoe UI Semibold" font-size="11.00">&lt;SKPhysicsContactDelegate&gt;</text>
</g>
<!-- Node3&#45;&gt;Node1 -->
<g id="edge2" class="edge"><title>Node3&#45;&gt;Node1</title>
<path fill="none" stroke="midnightblue" d="M172.345,-52.5778C158.796,-42.4611 141.543,-29.5791 130.154,-21.0752"/>
<polygon fill="midnightblue" stroke="midnightblue" points="170.508,-55.5743 180.615,-58.7527 174.696,-49.9653 170.508,-55.5743"/>
</g>
</g>
</svg>
