<?xml version="1.0" encoding="UTF-8" standalone="no"?>
<!DOCTYPE svg PUBLIC "-//W3C//DTD SVG 1.1//EN"
 "http://www.w3.org/Graphics/SVG/1.1/DTD/svg11.dtd">
<!-- Generated by graphviz version 2.34.0 (20130907.0111)
 -->
<!-- Title: Player() Pages: 1 -->
<svg width="133pt" height="280pt"
 viewBox="0.00 0.00 133.00 280.00" xmlns="http://www.w3.org/2000/svg" xmlns:xlink="http://www.w3.org/1999/xlink">
<g id="graph0" class="graph" transform="scale(1 1) rotate(0) translate(4 276)">
<title>Player()</title>
<polygon fill="white" stroke="white" points="-4,4 -4,-276 129,-276 129,4 -4,4"/>
<!-- Node1 -->
<g id="node1" class="node"><title>Node1</title>
<polygon fill="#bfbfbf" stroke="black" points="19,-0.5 19,-57.5 69,-57.5 69,-0.5 19,-0.5"/>
<text text-anchor="middle" x="44" y="-45.5" font-family="Helvetica,sans-Serif" font-size="10.00">Player()</text>
<polyline fill="none" stroke="black" points="19,-38.5 69,-38.5 "/>
<text text-anchor="middle" x="44" y="-26.5" font-family="Helvetica,sans-Serif" font-size="10.00"> </text>
<polyline fill="none" stroke="black" points="19,-19.5 69,-19.5 "/>
<text text-anchor="middle" x="44" y="-7.5" font-family="Helvetica,sans-Serif" font-size="10.00"> </text>
</g>
<!-- Node2 -->
<g id="node2" class="node"><title>Node2</title>
<g id="a_node2"><a xlink:href="interface_h_u_d_manager.html" target="_top" xlink:title="Displays information for the player. ">
<polygon fill="white" stroke="black" points="-0.5,-107 -0.5,-175 88.5,-175 88.5,-107 -0.5,-107"/>
<text text-anchor="middle" x="44" y="-163" font-family="Helvetica,sans-Serif" font-size="10.00">HUDManager</text>
<polyline fill="none" stroke="black" points="-0.5,-156 88.5,-156 "/>
<text text-anchor="start" x="7.5" y="-144" font-family="Helvetica,sans-Serif" font-size="10.00">+ players</text>
<polyline fill="none" stroke="black" points="-0.5,-137 88.5,-137 "/>
<text text-anchor="start" x="7.5" y="-125" font-family="Helvetica,sans-Serif" font-size="10.00">+ initWithScene:</text>
<text text-anchor="start" x="7.5" y="-114" font-family="Helvetica,sans-Serif" font-size="10.00">+ update</text>
</a>
</g>
</g>
<!-- Node2&#45;&gt;Node1 -->
<g id="edge1" class="edge"><title>Node2&#45;&gt;Node1</title>
<path fill="none" stroke="#404040" d="M44,-106.996C44,-95.3482 44,-82.1242 44,-69.9627"/>
<polygon fill="none" stroke="#404040" points="44.0001,-69.7843 40,-63.7843 44,-57.7843 48,-63.7843 44.0001,-69.7843"/>
<text text-anchor="middle" x="84.5" y="-79.5" font-family="Helvetica,sans-Serif" font-size="10.00"> +myHUDManager</text>
</g>
<!-- Node3 -->
<g id="node3" class="node"><title>Node3</title>
<polygon fill="white" stroke="#bfbfbf" points="14.5,-214.5 14.5,-271.5 73.5,-271.5 73.5,-214.5 14.5,-214.5"/>
<text text-anchor="middle" x="44" y="-259.5" font-family="Helvetica,sans-Serif" font-size="10.00">NSObject</text>
<polyline fill="none" stroke="#bfbfbf" points="14.5,-252.5 73.5,-252.5 "/>
<text text-anchor="middle" x="44" y="-240.5" font-family="Helvetica,sans-Serif" font-size="10.00"> </text>
<polyline fill="none" stroke="#bfbfbf" points="14.5,-233.5 73.5,-233.5 "/>
<text text-anchor="middle" x="44" y="-221.5" font-family="Helvetica,sans-Serif" font-size="10.00"> </text>
</g>
<!-- Node3&#45;&gt;Node2 -->
<g id="edge2" class="edge"><title>Node3&#45;&gt;Node2</title>
<path fill="none" stroke="midnightblue" d="M44,-204.337C44,-194.755 44,-184.528 44,-175.187"/>
<polygon fill="none" stroke="midnightblue" points="40.5001,-204.41 44,-214.41 47.5001,-204.41 40.5001,-204.41"/>
</g>
</g>
</svg>
