<?xml version="1.0" encoding="UTF-8" standalone="no"?>
<!DOCTYPE svg PUBLIC "-//W3C//DTD SVG 1.1//EN"
 "http://www.w3.org/Graphics/SVG/1.1/DTD/svg11.dtd">
<!-- Generated by graphviz version 2.34.0 (20130907.0111)
 -->
<!-- Title: MyScene() Pages: 1 -->
<!--zoomable 240 -->
<svg id="main" version="1.1" xmlns="http://www.w3.org/2000/svg" xmlns:xlink="http://www.w3.org/1999/xlink" xml:space="preserve" onload="init(evt)">
<style type="text/css"><![CDATA[
.edge:hover path { stroke: red; }
.edge:hover polygon { stroke: red; fill: red; }
]]></style>
<script type="text/javascript"><![CDATA[
var edges = document.getElementsByTagName('g');
if (edges && edges.length) {
  for (var i=0;i<edges.length;i++) {
    if (edges[i].id.substr(0,4)=='edge') {
      edges[i].setAttribute('class','edge');
    }
  }
}
]]></script>
        <defs>
                <circle id="rim" cx="0" cy="0" r="7"/>
                <circle id="rim2" cx="0" cy="0" r="3.5"/>
                <g id="zoomPlus">
                        <use xlink:href="#rim" fill="#404040">
                                <set attributeName="fill" to="#808080" begin="zoomplus.mouseover" end="zoomplus.mouseout"/>
                        </use>
                        <path d="M-4,0h8M0,-4v8" fill="none" stroke="white" stroke-width="1.5" pointer-events="none"/>
                </g>
                <g id="zoomMin">
                        <use xlink:href="#rim" fill="#404040">
                                <set attributeName="fill" to="#808080" begin="zoomminus.mouseover" end="zoomminus.mouseout"/>
                        </use>
                        <path d="M-4,0h8" fill="none" stroke="white" stroke-width="1.5" pointer-events="none"/>
                </g>
                <g id="dirArrow">
                        <path fill="none" stroke="white" stroke-width="1.5" d="M0,-3.0v7 M-2.5,-0.5L0,-3.0L2.5,-0.5"/>
                </g>
               <g id="resetDef">
                       <use xlink:href="#rim2" fill="#404040">
                               <set attributeName="fill" to="#808080" begin="reset.mouseover" end="reset.mouseout"/>
                       </use>
               </g>
        </defs>

<script type="text/javascript">
var viewWidth = 679;
var viewHeight = 240;
var sectionId = 'dynsection-0';
</script>
<script xlink:href="svgpan.js"/>
<svg id="graph" class="graph">
<g id="viewport">
<title>MyScene()</title>
<polygon fill="white" stroke="white" points="-4,4 -4,-236 675.104,-236 675.104,4 -4,4"/>
<!-- Node1 -->
<g id="node1" class="node"><title>Node1</title>
<polygon fill="#bfbfbf" stroke="black" points="211.104,-1 211.104,-21 283.104,-21 283.104,-1 211.104,-1"/>
<text text-anchor="middle" x="247.104" y="-8.2" font-family="Segoe UI Semibold" font-size="11.00">MyScene()</text>
</g>
<!-- Node2 -->
<g id="node2" class="node"><title>Node2</title>
<g id="a_node2"><a xlink:href="interface_h_u_d_manager.html" target="_top" xlink:title="Displays information for the player. ">
<polygon fill="white" stroke="black" points="27.1038,-151 27.1038,-171 115.104,-171 115.104,-151 27.1038,-151"/>
<text text-anchor="middle" x="71.1038" y="-158.2" font-family="Segoe UI Semibold" font-size="11.00">HUDManager</text>
</a>
</g>
</g>
<!-- Node2&#45;&gt;Node1 -->
<g id="edge1" class="edge"><title>Node2&#45;&gt;Node1</title>
<path fill="none" stroke="#9a32cd" stroke-dasharray="5,2" d="M47.5742,-145.362C21.6192,-127.381 -13.9836,-96.0574 6.1038,-70 30.8673,-37.8766 149.828,-21.6135 210.839,-15.2706"/>
<polygon fill="#9a32cd" stroke="#9a32cd" points="45.6503,-148.286 55.9121,-150.922 49.5337,-142.462 45.6503,-148.286"/>
<text text-anchor="middle" x="43.6038" y="-78.2" font-family="Segoe UI Semibold" font-size="11.00"> HUDManager</text>
</g>
<!-- Node9 -->
<g id="node9" class="node"><title>Node9</title>
<g id="a_node9"><a xlink:href="interface_collision_manager.html" target="_top" xlink:title="Handles collision events from SpriteKit and hands them over. ">
<polygon fill="white" stroke="black" points="193.604,-71 193.604,-91 300.604,-91 300.604,-71 193.604,-71"/>
<text text-anchor="middle" x="247.104" y="-78.2" font-family="Segoe UI Semibold" font-size="11.00">CollisionManager</text>
</a>
</g>
</g>
<!-- Node2&#45;&gt;Node9 -->
<g id="edge13" class="edge"><title>Node2&#45;&gt;Node9</title>
<path fill="none" stroke="#9a32cd" stroke-dasharray="5,2" d="M78.6521,-141.851C84.1264,-130.939 92.5935,-117.713 104.104,-110 118.657,-100.248 159.319,-92.852 193.58,-88.1177"/>
<polygon fill="#9a32cd" stroke="#9a32cd" points="75.4451,-140.448 74.4648,-150.997 81.8098,-143.362 75.4451,-140.448"/>
<text text-anchor="middle" x="139.104" y="-118.2" font-family="Segoe UI Semibold" font-size="11.00"> hudManager</text>
</g>
<!-- Node3 -->
<g id="node3" class="node"><title>Node3</title>
<polygon fill="white" stroke="#bfbfbf" points="149.604,-211 149.604,-231 214.604,-231 214.604,-211 149.604,-211"/>
<text text-anchor="middle" x="182.104" y="-218.2" font-family="Segoe UI Semibold" font-size="11.00">NSObject</text>
</g>
<!-- Node3&#45;&gt;Node2 -->
<g id="edge2" class="edge"><title>Node3&#45;&gt;Node2</title>
<path fill="none" stroke="midnightblue" d="M155.836,-206.274C135.106,-195.443 106.763,-180.633 88.6921,-171.19"/>
<polygon fill="midnightblue" stroke="midnightblue" points="154.276,-209.408 164.76,-210.938 157.518,-203.204 154.276,-209.408"/>
</g>
<!-- Node4 -->
<g id="node4" class="node"><title>Node4</title>
<g id="a_node4"><a xlink:href="interface_enemy_manager.html" target="_top" xlink:title="Responsible for handling all enemies. ">
<polygon fill="white" stroke="black" points="133.104,-151 133.104,-171 231.104,-171 231.104,-151 133.104,-151"/>
<text text-anchor="middle" x="182.104" y="-158.2" font-family="Segoe UI Semibold" font-size="11.00">EnemyManager</text>
</a>
</g>
</g>
<!-- Node3&#45;&gt;Node4 -->
<g id="edge4" class="edge"><title>Node3&#45;&gt;Node4</title>
<path fill="none" stroke="midnightblue" d="M182.104,-200.731C182.104,-190.781 182.104,-179.102 182.104,-171.19"/>
<polygon fill="midnightblue" stroke="midnightblue" points="178.604,-200.937 182.104,-210.938 185.604,-200.938 178.604,-200.937"/>
</g>
<!-- Node3&#45;&gt;Node9 -->
<g id="edge11" class="edge"><title>Node3&#45;&gt;Node9</title>
<path fill="none" stroke="midnightblue" d="M206.082,-205.142C227.835,-189.944 258,-164.053 268.104,-132 271.043,-122.675 271.196,-119.276 268.104,-110 265.798,-103.083 261.04,-96.4978 256.635,-91.4539"/>
<polygon fill="midnightblue" stroke="midnightblue" points="203.999,-202.325 197.644,-210.803 207.899,-208.138 203.999,-202.325"/>
</g>
<!-- Node4&#45;&gt;Node1 -->
<g id="edge3" class="edge"><title>Node4&#45;&gt;Node1</title>
<path fill="none" stroke="#9a32cd" stroke-dasharray="5,2" d="M130.602,-148.595C107.417,-142.943 84.4529,-136.404 81.1038,-132 75.185,-124.217 79.0519,-119.56 81.1038,-110 85.1949,-90.9392 84.9829,-83.4406 99.1038,-70 130.188,-40.4136 178.116,-25.3703 210.956,-18.1187"/>
<polygon fill="#9a32cd" stroke="#9a32cd" points="129.957,-152.039 140.496,-150.954 131.581,-145.23 129.957,-152.039"/>
<text text-anchor="middle" x="141.604" y="-78.2" font-family="Segoe UI Semibold" font-size="11.00"> enemyManager</text>
</g>
<!-- Node4&#45;&gt;Node9 -->
<g id="edge14" class="edge"><title>Node4&#45;&gt;Node9</title>
<path fill="none" stroke="#9a32cd" stroke-dasharray="5,2" d="M177.802,-140.497C176.714,-130.587 177.215,-118.811 183.104,-110 188.967,-101.228 198.237,-95.184 207.92,-91.0275"/>
<polygon fill="#9a32cd" stroke="#9a32cd" points="174.397,-141.353 179.504,-150.636 181.301,-140.195 174.397,-141.353"/>
<text text-anchor="middle" x="225.604" y="-118.2" font-family="Segoe UI Semibold" font-size="11.00"> enemyManager</text>
</g>
<!-- Node5 -->
<g id="node5" class="node"><title>Node5</title>
<g id="a_node5"><a xlink:href="interface_player.html" target="_top" xlink:title="Player object that the user is actually controlling. ">
<polygon fill="white" stroke="black" points="451.604,-71 451.604,-91 500.604,-91 500.604,-71 451.604,-71"/>
<text text-anchor="middle" x="476.104" y="-78.2" font-family="Segoe UI Semibold" font-size="11.00">Player</text>
</a>
</g>
</g>
<!-- Node5&#45;&gt;Node1 -->
<g id="edge5" class="edge"><title>Node5&#45;&gt;Node1</title>
<path fill="none" stroke="#9a32cd" stroke-dasharray="5,2" d="M441.697,-69.4379C415.081,-61.3003 377.292,-49.8181 344.104,-40 322.422,-33.5858 297.961,-26.5261 279.027,-21.1001"/>
<polygon fill="#9a32cd" stroke="#9a32cd" points="440.731,-72.8025 451.318,-72.3825 442.78,-66.109 440.731,-72.8025"/>
<text text-anchor="middle" x="402.104" y="-43.2" font-family="Segoe UI Semibold" font-size="11.00"> player</text>
</g>
<!-- Node6 -->
<g id="node6" class="node"><title>Node6</title>
<polygon fill="white" stroke="#bfbfbf" points="532.604,-211 532.604,-231 621.604,-231 621.604,-211 532.604,-211"/>
<text text-anchor="middle" x="577.104" y="-218.2" font-family="Segoe UI Semibold" font-size="11.00">SKSpriteNode</text>
</g>
<!-- Node6&#45;&gt;Node5 -->
<g id="edge6" class="edge"><title>Node6&#45;&gt;Node5</title>
<path fill="none" stroke="midnightblue" d="M553.783,-205.268C541.645,-196.705 527.262,-185.041 517.104,-172 496.846,-145.992 483.912,-108.371 478.712,-91.1861"/>
<polygon fill="midnightblue" stroke="midnightblue" points="551.89,-208.213 562.131,-210.931 555.82,-202.42 551.89,-208.213"/>
</g>
<!-- Node8 -->
<g id="node8" class="node"><title>Node8</title>
<g id="a_node8"><a xlink:href="interface_player_controller.html" target="_top" xlink:title="Visual joystick which controls the player. ">
<polygon fill="white" stroke="black" points="526.604,-151 526.604,-171 627.604,-171 627.604,-151 526.604,-151"/>
<text text-anchor="middle" x="577.104" y="-158.2" font-family="Segoe UI Semibold" font-size="11.00">PlayerController</text>
</a>
</g>
</g>
<!-- Node6&#45;&gt;Node8 -->
<g id="edge9" class="edge"><title>Node6&#45;&gt;Node8</title>
<path fill="none" stroke="midnightblue" d="M577.104,-200.731C577.104,-190.781 577.104,-179.102 577.104,-171.19"/>
<polygon fill="midnightblue" stroke="midnightblue" points="573.604,-200.937 577.104,-210.938 580.604,-200.938 573.604,-200.937"/>
</g>
<!-- Node10 -->
<g id="node10" class="node"><title>Node10</title>
<g id="a_node10"><a xlink:href="interface_star.html" target="_top" xlink:title="Goal object, player needs to collect this. ">
<polygon fill="white" stroke="black" points="633.104,-111 633.104,-131 671.104,-131 671.104,-111 633.104,-111"/>
<text text-anchor="middle" x="652.104" y="-118.2" font-family="Segoe UI Semibold" font-size="11.00">Star</text>
</a>
</g>
</g>
<!-- Node6&#45;&gt;Node10 -->
<g id="edge16" class="edge"><title>Node6&#45;&gt;Node10</title>
<path fill="none" stroke="midnightblue" d="M601.121,-205.316C613.128,-196.891 627.001,-185.341 636.104,-172 644.734,-159.352 648.928,-141.771 650.791,-131.179"/>
<polygon fill="midnightblue" stroke="midnightblue" points="599.169,-202.411 592.803,-210.88 603.061,-208.229 599.169,-202.411"/>
</g>
<!-- Node7 -->
<g id="node7" class="node"><title>Node7</title>
<polygon fill="white" stroke="#bfbfbf" points="298.104,-151 298.104,-171 470.104,-171 470.104,-151 298.104,-151"/>
<text text-anchor="middle" x="384.104" y="-158.2" font-family="Segoe UI Semibold" font-size="11.00">&lt;SKPhysicsContactDelegate&gt;</text>
</g>
<!-- Node7&#45;&gt;Node5 -->
<g id="edge7" class="edge"><title>Node7&#45;&gt;Node5</title>
<path fill="none" stroke="midnightblue" d="M402.689,-144.243C421.569,-128.236 450.15,-104.004 465.487,-91.0011"/>
<polygon fill="midnightblue" stroke="midnightblue" points="400.383,-141.61 395.019,-150.746 404.91,-146.949 400.383,-141.61"/>
</g>
<!-- Node7&#45;&gt;Node9 -->
<g id="edge12" class="edge"><title>Node7&#45;&gt;Node9</title>
<path fill="none" stroke="midnightblue" d="M359.327,-145.893C331.346,-129.963 286.643,-104.511 262.986,-91.0423"/>
<polygon fill="midnightblue" stroke="midnightblue" points="357.698,-148.994 368.12,-150.9 361.162,-142.91 357.698,-148.994"/>
</g>
<!-- Node8&#45;&gt;Node5 -->
<g id="edge8" class="edge"><title>Node8&#45;&gt;Node5</title>
<path fill="none" stroke="#9a32cd" stroke-dasharray="5,2" d="M554.272,-145.255C548.24,-141.132 541.821,-136.535 536.104,-132 524.767,-123.008 523.157,-119.338 512.104,-110 504.362,-103.459 495.362,-96.4593 488.297,-91.0945"/>
<polygon fill="#9a32cd" stroke="#9a32cd" points="552.448,-148.245 562.706,-150.893 556.338,-142.426 552.448,-148.245"/>
<text text-anchor="middle" x="580.104" y="-118.2" font-family="Segoe UI Semibold" font-size="11.00"> playerController</text>
</g>
<!-- Node9&#45;&gt;Node1 -->
<g id="edge10" class="edge"><title>Node9&#45;&gt;Node1</title>
<path fill="none" stroke="#9a32cd" stroke-dasharray="5,2" d="M247.104,-60.5567C247.104,-47.557 247.104,-31.0574 247.104,-21.0255"/>
<polygon fill="#9a32cd" stroke="#9a32cd" points="243.604,-60.8292 247.104,-70.8292 250.604,-60.8293 243.604,-60.8292"/>
<text text-anchor="middle" x="293.604" y="-43.2" font-family="Segoe UI Semibold" font-size="11.00"> collisionManager</text>
</g>
<!-- Node10&#45;&gt;Node1 -->
<g id="edge15" class="edge"><title>Node10&#45;&gt;Node1</title>
<path fill="none" stroke="#9a32cd" stroke-dasharray="5,2" d="M623.501,-108.005C580.818,-90.5582 497.596,-58.2747 424.104,-40 376.099,-28.0629 319.446,-20.1527 283.406,-15.8721"/>
<polygon fill="#9a32cd" stroke="#9a32cd" points="622.379,-111.328 632.959,-111.9 625.045,-104.856 622.379,-111.328"/>
<text text-anchor="middle" x="593.104" y="-78.2" font-family="Segoe UI Semibold" font-size="11.00"> star</text>
</g>
</g>
</svg>
        <g id="navigator" transform="translate(0 0)" fill="#404254">
                <rect fill="#f2f5e9" fill-opacity="0.5" stroke="#606060" stroke-width=".5" x="0" y="0" width="60" height="60"/>
                <use id="zoomplus" xlink:href="#zoomPlus" x="17" y="9" onmousedown="handleZoom(evt,'in')"/>
                <use id="zoomminus" xlink:href="#zoomMin" x="42" y="9" onmousedown="handleZoom(evt,'out')"/>
                <use id="reset" xlink:href="#resetDef" x="30" y="36" onmousedown="handleReset()"/>
                <g id="arrowUp" xlink:href="#dirArrow" transform="translate(30 24)" onmousedown="handlePan(0,-1)">
                  <use xlink:href="#rim" fill="#404040">
                        <set attributeName="fill" to="#808080" begin="arrowUp.mouseover" end="arrowUp.mouseout"/>
                  </use>
                  <path fill="none" stroke="white" stroke-width="1.5" d="M0,-3.0v7 M-2.5,-0.5L0,-3.0L2.5,-0.5"/>
                </g>
                <g id="arrowRight" xlink:href="#dirArrow" transform="rotate(90) translate(36 -43)" onmousedown="handlePan(1,0)">
                  <use xlink:href="#rim" fill="#404040">
                        <set attributeName="fill" to="#808080" begin="arrowRight.mouseover" end="arrowRight.mouseout"/>
                  </use>
                  <path fill="none" stroke="white" stroke-width="1.5" d="M0,-3.0v7 M-2.5,-0.5L0,-3.0L2.5,-0.5"/>
                </g>
                <g id="arrowDown" xlink:href="#dirArrow" transform="rotate(180) translate(-30 -48)" onmousedown="handlePan(0,1)">
                  <use xlink:href="#rim" fill="#404040">
                        <set attributeName="fill" to="#808080" begin="arrowDown.mouseover" end="arrowDown.mouseout"/>
                  </use>
                  <path fill="none" stroke="white" stroke-width="1.5" d="M0,-3.0v7 M-2.5,-0.5L0,-3.0L2.5,-0.5"/>
                </g>
                <g id="arrowLeft" xlink:href="#dirArrow" transform="rotate(270) translate(-36 17)" onmousedown="handlePan(-1,0)">
                  <use xlink:href="#rim" fill="#404040">
                        <set attributeName="fill" to="#808080" begin="arrowLeft.mouseover" end="arrowLeft.mouseout"/>
                  </use>
                  <path fill="none" stroke="white" stroke-width="1.5" d="M0,-3.0v7 M-2.5,-0.5L0,-3.0L2.5,-0.5"/>
                </g>
        </g>
        <svg viewBox="0 0 15 15" width="100%" height="30px" preserveAspectRatio="xMaxYMin meet">
         <g id="arrow_out" transform="scale(0.3 0.3)">
          <a xlink:href="category_my_scene_07_08__coll__graph_org.svg" target="_base">
           <rect id="button" ry="5" rx="5" y="6" x="6" height="38" width="38"
                fill="#f2f5e9" fill-opacity="0.5" stroke="#606060" stroke-width="1.0"/>
           <path id="arrow"
             d="M 11.500037,31.436501 C 11.940474,20.09759 22.043105,11.32322 32.158766,21.979434 L 37.068811,17.246167 C 37.068811,17.246167 37.088388,32 37.088388,32 L 22.160133,31.978069 C 22.160133,31.978069 26.997745,27.140456 26.997745,27.140456 C 18.528582,18.264221 13.291696,25.230495 11.500037,31.436501 z"
             style="fill:#404040;"/>
          </a>
         </g>
        </svg>
</svg>
