<?xml version="1.0" encoding="UTF-8" standalone="no"?>
<!DOCTYPE svg PUBLIC "-//W3C//DTD SVG 1.1//EN"
 "http://www.w3.org/Graphics/SVG/1.1/DTD/svg11.dtd">
<!-- Generated by graphviz version 2.34.0 (20130907.0111)
 -->
<!-- Title: MyScene() Pages: 1 -->
<svg width="744pt" height="532pt"
 viewBox="0.00 0.00 743.57 532.00" xmlns="http://www.w3.org/2000/svg" xmlns:xlink="http://www.w3.org/1999/xlink">
<g id="graph0" class="graph" transform="scale(1 1) rotate(0) translate(4 528)">
<title>MyScene()</title>
<polygon fill="white" stroke="white" points="-4,4 -4,-528 739.574,-528 739.574,4 -4,4"/>
<!-- Node1 -->
<g id="node1" class="node"><title>Node1</title>
<polygon fill="#bfbfbf" stroke="black" points="220.574,-0.5 220.574,-57.5 284.574,-57.5 284.574,-0.5 220.574,-0.5"/>
<text text-anchor="middle" x="252.574" y="-45.5" font-family="Helvetica,sans-Serif" font-size="10.00">MyScene()</text>
<polyline fill="none" stroke="black" points="220.574,-38.5 284.574,-38.5 "/>
<text text-anchor="middle" x="252.574" y="-26.5" font-family="Helvetica,sans-Serif" font-size="10.00"> </text>
<polyline fill="none" stroke="black" points="220.574,-19.5 284.574,-19.5 "/>
<text text-anchor="middle" x="252.574" y="-7.5" font-family="Helvetica,sans-Serif" font-size="10.00"> </text>
</g>
<!-- Node2 -->
<g id="node2" class="node"><title>Node2</title>
<g id="a_node2"><a xlink:href="interface_h_u_d_manager.html" target="_top" xlink:title="{HUDManager\n|+ players\l|+ initWithScene:\l+ update\l}">
<polygon fill="white" stroke="black" points="36.0737,-348 36.0737,-416 125.074,-416 125.074,-348 36.0737,-348"/>
<text text-anchor="middle" x="80.5737" y="-404" font-family="Helvetica,sans-Serif" font-size="10.00">HUDManager</text>
<polyline fill="none" stroke="black" points="36.0737,-397 125.074,-397 "/>
<text text-anchor="start" x="44.0737" y="-385" font-family="Helvetica,sans-Serif" font-size="10.00">+ players</text>
<polyline fill="none" stroke="black" points="36.0737,-378 125.074,-378 "/>
<text text-anchor="start" x="44.0737" y="-366" font-family="Helvetica,sans-Serif" font-size="10.00">+ initWithScene:</text>
<text text-anchor="start" x="44.0737" y="-355" font-family="Helvetica,sans-Serif" font-size="10.00">+ update</text>
</a>
</g>
</g>
<!-- Node2&#45;&gt;Node1 -->
<g id="edge1" class="edge"><title>Node2&#45;&gt;Node1</title>
<path fill="none" stroke="#404040" d="M58.556,-347.952C24.71,-292.6 -30.8739,-179.951 22.5737,-106 64.8782,-47.4669 153.927,-33.2643 207.968,-30.2565"/>
<polygon fill="none" stroke="#404040" points="208.259,-30.2441 214.083,-25.9916 220.248,-29.7318 214.424,-33.9843 208.259,-30.2441"/>
<text text-anchor="middle" x="56.0737" y="-160.5" font-family="Helvetica,sans-Serif" font-size="10.00"> +HUDManager</text>
</g>
<!-- Node9 -->
<g id="node9" class="node"><title>Node9</title>
<g id="a_node9"><a xlink:href="interface_collision_manager.html" target="_top" xlink:title="Handles collision events from SpriteKit and hands them over. ">
<polygon fill="white" stroke="black" points="207.074,-134.5 207.074,-191.5 298.074,-191.5 298.074,-134.5 207.074,-134.5"/>
<text text-anchor="middle" x="252.574" y="-179.5" font-family="Helvetica,sans-Serif" font-size="10.00">CollisionManager</text>
<polyline fill="none" stroke="black" points="207.074,-172.5 298.074,-172.5 "/>
<text text-anchor="middle" x="252.574" y="-160.5" font-family="Helvetica,sans-Serif" font-size="10.00"> </text>
<polyline fill="none" stroke="black" points="207.074,-153.5 298.074,-153.5 "/>
<text text-anchor="start" x="215.074" y="-141.5" font-family="Helvetica,sans-Serif" font-size="10.00">+ initWithScene:</text>
</a>
</g>
</g>
<!-- Node2&#45;&gt;Node9 -->
<g id="edge13" class="edge"><title>Node2&#45;&gt;Node9</title>
<path fill="none" stroke="#404040" d="M82.5352,-347.976C85.9925,-316.504 95.499,-269.389 121.574,-238 133.004,-224.24 141.859,-228.547 157.574,-220 170.319,-213.068 183.843,-205.333 196.568,-197.877"/>
<polygon fill="none" stroke="#404040" points="196.699,-197.8 199.835,-191.307 207.035,-191.704 203.899,-198.198 196.699,-197.8"/>
<text text-anchor="middle" x="153.074" y="-275.5" font-family="Helvetica,sans-Serif" font-size="10.00"> +hudManager</text>
</g>
<!-- Node3 -->
<g id="node3" class="node"><title>Node3</title>
<polygon fill="white" stroke="#bfbfbf" points="167.074,-466.5 167.074,-523.5 226.074,-523.5 226.074,-466.5 167.074,-466.5"/>
<text text-anchor="middle" x="196.574" y="-511.5" font-family="Helvetica,sans-Serif" font-size="10.00">NSObject</text>
<polyline fill="none" stroke="#bfbfbf" points="167.074,-504.5 226.074,-504.5 "/>
<text text-anchor="middle" x="196.574" y="-492.5" font-family="Helvetica,sans-Serif" font-size="10.00"> </text>
<polyline fill="none" stroke="#bfbfbf" points="167.074,-485.5 226.074,-485.5 "/>
<text text-anchor="middle" x="196.574" y="-473.5" font-family="Helvetica,sans-Serif" font-size="10.00"> </text>
</g>
<!-- Node3&#45;&gt;Node2 -->
<g id="edge2" class="edge"><title>Node3&#45;&gt;Node2</title>
<path fill="none" stroke="midnightblue" d="M160.314,-459.304C145.975,-445.582 129.563,-429.877 115.37,-416.297"/>
<polygon fill="none" stroke="midnightblue" points="157.956,-461.891 167.601,-466.276 162.796,-456.834 157.956,-461.891"/>
</g>
<!-- Node4 -->
<g id="node4" class="node"><title>Node4</title>
<g id="a_node4"><a xlink:href="interface_enemy_manager.html" target="_top" xlink:title="Responsible for handling all enemies. ">
<polygon fill="white" stroke="black" points="143.574,-337 143.574,-427 249.574,-427 249.574,-337 143.574,-337"/>
<text text-anchor="middle" x="196.574" y="-415" font-family="Helvetica,sans-Serif" font-size="10.00">EnemyManager</text>
<polyline fill="none" stroke="black" points="143.574,-408 249.574,-408 "/>
<text text-anchor="middle" x="196.574" y="-396" font-family="Helvetica,sans-Serif" font-size="10.00"> </text>
<polyline fill="none" stroke="black" points="143.574,-389 249.574,-389 "/>
<text text-anchor="start" x="151.574" y="-377" font-family="Helvetica,sans-Serif" font-size="10.00">+ initWithScene:</text>
<text text-anchor="start" x="151.574" y="-366" font-family="Helvetica,sans-Serif" font-size="10.00">+ update:</text>
<text text-anchor="start" x="151.574" y="-355" font-family="Helvetica,sans-Serif" font-size="10.00">+ createEnemy</text>
<text text-anchor="start" x="151.574" y="-344" font-family="Helvetica,sans-Serif" font-size="10.00">+ removeAllEnemies</text>
</a>
</g>
</g>
<!-- Node3&#45;&gt;Node4 -->
<g id="edge4" class="edge"><title>Node3&#45;&gt;Node4</title>
<path fill="none" stroke="midnightblue" d="M196.574,-456.141C196.574,-446.828 196.574,-436.776 196.574,-427.194"/>
<polygon fill="none" stroke="midnightblue" points="193.074,-456.276 196.574,-466.276 200.074,-456.276 193.074,-456.276"/>
</g>
<!-- Node3&#45;&gt;Node9 -->
<g id="edge11" class="edge"><title>Node3&#45;&gt;Node9</title>
<path fill="none" stroke="midnightblue" d="M233.536,-462.594C243.172,-452.522 252.536,-440.666 258.574,-428 295.025,-351.537 285.248,-321.899 273.574,-238 271.402,-222.392 266.771,-205.45 262.408,-191.721"/>
<polygon fill="none" stroke="midnightblue" points="230.782,-460.396 226.164,-469.932 235.72,-465.357 230.782,-460.396"/>
</g>
<!-- Node4&#45;&gt;Node1 -->
<g id="edge3" class="edge"><title>Node4&#45;&gt;Node1</title>
<path fill="none" stroke="#404040" d="M143.475,-341.889C140.17,-339.826 136.854,-337.846 133.574,-336 115.875,-326.04 102.753,-334.955 91.5737,-318 72.0007,-288.317 87.6091,-273.334 91.5737,-238 98.2822,-178.212 85.921,-154.461 121.574,-106 143.211,-76.5891 179.921,-56.723 208.985,-44.7007"/>
<polygon fill="none" stroke="#404040" points="209.334,-44.5633 213.455,-38.6457 220.503,-40.1737 216.382,-46.0913 209.334,-44.5633"/>
<text text-anchor="middle" x="159.574" y="-160.5" font-family="Helvetica,sans-Serif" font-size="10.00"> +enemyManager</text>
</g>
<!-- Node4&#45;&gt;Node9 -->
<g id="edge14" class="edge"><title>Node4&#45;&gt;Node9</title>
<path fill="none" stroke="#404040" d="M189.931,-336.98C187.239,-308.093 186.893,-269.9 197.574,-238 201.932,-224.984 209.541,-212.385 217.735,-201.384"/>
<polygon fill="none" stroke="#404040" points="217.901,-201.174 218.487,-193.987 225.347,-191.764 224.761,-198.951 217.901,-201.174"/>
<text text-anchor="middle" x="235.574" y="-275.5" font-family="Helvetica,sans-Serif" font-size="10.00"> +enemyManager</text>
</g>
<!-- Node5 -->
<g id="node5" class="node"><title>Node5</title>
<g id="a_node5"><a xlink:href="interface_player.html" target="_top" xlink:title="{Player\n|+ score\l|+ initWithHUDManager:\l+ touchesBegan:withEvent:\l+ touchesMoved:withEvent:\l+ touchesEnded:withEvent:\l+ didBeginContactWith:\l+ update\l}">
<polygon fill="white" stroke="black" points="398.074,-107 398.074,-219 533.074,-219 533.074,-107 398.074,-107"/>
<text text-anchor="middle" x="465.574" y="-207" font-family="Helvetica,sans-Serif" font-size="10.00">Player</text>
<polyline fill="none" stroke="black" points="398.074,-200 533.074,-200 "/>
<text text-anchor="start" x="406.074" y="-188" font-family="Helvetica,sans-Serif" font-size="10.00">+ score</text>
<polyline fill="none" stroke="black" points="398.074,-181 533.074,-181 "/>
<text text-anchor="start" x="406.074" y="-169" font-family="Helvetica,sans-Serif" font-size="10.00">+ initWithHUDManager:</text>
<text text-anchor="start" x="406.074" y="-158" font-family="Helvetica,sans-Serif" font-size="10.00">+ touchesBegan:withEvent:</text>
<text text-anchor="start" x="406.074" y="-147" font-family="Helvetica,sans-Serif" font-size="10.00">+ touchesMoved:withEvent:</text>
<text text-anchor="start" x="406.074" y="-136" font-family="Helvetica,sans-Serif" font-size="10.00">+ touchesEnded:withEvent:</text>
<text text-anchor="start" x="406.074" y="-125" font-family="Helvetica,sans-Serif" font-size="10.00">+ didBeginContactWith:</text>
<text text-anchor="start" x="406.074" y="-114" font-family="Helvetica,sans-Serif" font-size="10.00">+ update</text>
</a>
</g>
</g>
<!-- Node5&#45;&gt;Node1 -->
<g id="edge5" class="edge"><title>Node5&#45;&gt;Node1</title>
<path fill="none" stroke="#404040" d="M397.876,-114.255C378.943,-101.426 358.178,-87.8366 338.574,-76 324.849,-67.7131 309.512,-59.2633 295.632,-51.9048"/>
<polygon fill="none" stroke="#404040" points="295.5,-51.8353 288.328,-52.5907 284.873,-46.2614 292.044,-45.506 295.5,-51.8353"/>
<text text-anchor="middle" x="374.574" y="-79.5" font-family="Helvetica,sans-Serif" font-size="10.00"> +player</text>
</g>
<!-- Node6 -->
<g id="node6" class="node"><title>Node6</title>
<polygon fill="white" stroke="#bfbfbf" points="545.574,-466.5 545.574,-523.5 623.574,-523.5 623.574,-466.5 545.574,-466.5"/>
<text text-anchor="middle" x="584.574" y="-511.5" font-family="Helvetica,sans-Serif" font-size="10.00">SKSpriteNode</text>
<polyline fill="none" stroke="#bfbfbf" points="545.574,-504.5 623.574,-504.5 "/>
<text text-anchor="middle" x="584.574" y="-492.5" font-family="Helvetica,sans-Serif" font-size="10.00"> </text>
<polyline fill="none" stroke="#bfbfbf" points="545.574,-485.5 623.574,-485.5 "/>
<text text-anchor="middle" x="584.574" y="-473.5" font-family="Helvetica,sans-Serif" font-size="10.00"> </text>
</g>
<!-- Node6&#45;&gt;Node5 -->
<g id="edge6" class="edge"><title>Node6&#45;&gt;Node5</title>
<path fill="none" stroke="midnightblue" d="M537.307,-462.588C525.903,-452.811 514.906,-441.11 507.574,-428 471.099,-362.788 463.891,-275.182 463.564,-219.143"/>
<polygon fill="none" stroke="midnightblue" points="535.265,-465.438 545.228,-469.042 539.687,-460.012 535.265,-465.438"/>
</g>
<!-- Node8 -->
<g id="node8" class="node"><title>Node8</title>
<g id="a_node8"><a xlink:href="interface_player_controller.html" target="_top" xlink:title="{PlayerController\n||+ touchesBegan:withEvent:\l+ touchesMoved:withEvent:\l+ touchesEnded:withEvent:\l+ getJoystickVelocity\l}">
<polygon fill="white" stroke="black" points="517.074,-337 517.074,-427 652.074,-427 652.074,-337 517.074,-337"/>
<text text-anchor="middle" x="584.574" y="-415" font-family="Helvetica,sans-Serif" font-size="10.00">PlayerController</text>
<polyline fill="none" stroke="black" points="517.074,-408 652.074,-408 "/>
<text text-anchor="middle" x="584.574" y="-396" font-family="Helvetica,sans-Serif" font-size="10.00"> </text>
<polyline fill="none" stroke="black" points="517.074,-389 652.074,-389 "/>
<text text-anchor="start" x="525.074" y="-377" font-family="Helvetica,sans-Serif" font-size="10.00">+ touchesBegan:withEvent:</text>
<text text-anchor="start" x="525.074" y="-366" font-family="Helvetica,sans-Serif" font-size="10.00">+ touchesMoved:withEvent:</text>
<text text-anchor="start" x="525.074" y="-355" font-family="Helvetica,sans-Serif" font-size="10.00">+ touchesEnded:withEvent:</text>
<text text-anchor="start" x="525.074" y="-344" font-family="Helvetica,sans-Serif" font-size="10.00">+ getJoystickVelocity</text>
</a>
</g>
</g>
<!-- Node6&#45;&gt;Node8 -->
<g id="edge9" class="edge"><title>Node6&#45;&gt;Node8</title>
<path fill="none" stroke="midnightblue" d="M584.574,-456.141C584.574,-446.828 584.574,-436.776 584.574,-427.194"/>
<polygon fill="none" stroke="midnightblue" points="581.074,-456.276 584.574,-466.276 588.074,-456.276 581.074,-456.276"/>
</g>
<!-- Node10 -->
<g id="node10" class="node"><title>Node10</title>
<g id="a_node10"><a xlink:href="interface_star.html" target="_top" xlink:title="{Star\n||+ didBeginContactWith:\l+ changePosition\l+ update\l}">
<polygon fill="white" stroke="black" points="615.574,-238.5 615.574,-317.5 735.574,-317.5 735.574,-238.5 615.574,-238.5"/>
<text text-anchor="middle" x="675.574" y="-305.5" font-family="Helvetica,sans-Serif" font-size="10.00">Star</text>
<polyline fill="none" stroke="black" points="615.574,-298.5 735.574,-298.5 "/>
<text text-anchor="middle" x="675.574" y="-286.5" font-family="Helvetica,sans-Serif" font-size="10.00"> </text>
<polyline fill="none" stroke="black" points="615.574,-279.5 735.574,-279.5 "/>
<text text-anchor="start" x="623.574" y="-267.5" font-family="Helvetica,sans-Serif" font-size="10.00">+ didBeginContactWith:</text>
<text text-anchor="start" x="623.574" y="-256.5" font-family="Helvetica,sans-Serif" font-size="10.00">+ changePosition</text>
<text text-anchor="start" x="623.574" y="-245.5" font-family="Helvetica,sans-Serif" font-size="10.00">+ update</text>
</a>
</g>
</g>
<!-- Node6&#45;&gt;Node10 -->
<g id="edge16" class="edge"><title>Node6&#45;&gt;Node10</title>
<path fill="none" stroke="midnightblue" d="M631.732,-462.758C642.988,-452.982 653.715,-441.237 660.574,-428 678.334,-393.719 680.537,-349.073 679.255,-317.621"/>
<polygon fill="none" stroke="midnightblue" points="629.393,-460.15 623.895,-469.206 633.841,-465.555 629.393,-460.15"/>
</g>
<!-- Node7 -->
<g id="node7" class="node"><title>Node7</title>
<polygon fill="white" stroke="#bfbfbf" points="311.074,-353.5 311.074,-410.5 460.074,-410.5 460.074,-353.5 311.074,-353.5"/>
<text text-anchor="middle" x="385.574" y="-398.5" font-family="Helvetica,sans-Serif" font-size="10.00">&lt;SKPhysicsContactDelegate&gt;</text>
<polyline fill="none" stroke="#bfbfbf" points="311.074,-391.5 460.074,-391.5 "/>
<text text-anchor="middle" x="385.574" y="-379.5" font-family="Helvetica,sans-Serif" font-size="10.00"> </text>
<polyline fill="none" stroke="#bfbfbf" points="311.074,-372.5 460.074,-372.5 "/>
<text text-anchor="middle" x="385.574" y="-360.5" font-family="Helvetica,sans-Serif" font-size="10.00"> </text>
</g>
<!-- Node7&#45;&gt;Node5 -->
<g id="edge7" class="edge"><title>Node7&#45;&gt;Node5</title>
<path fill="none" stroke="midnightblue" d="M399.414,-343.459C412.031,-309.235 430.833,-258.234 445.172,-219.34"/>
<polygon fill="none" stroke="midnightblue" points="396.044,-342.482 395.869,-353.075 402.612,-344.903 396.044,-342.482"/>
</g>
<!-- Node7&#45;&gt;Node9 -->
<g id="edge12" class="edge"><title>Node7&#45;&gt;Node9</title>
<path fill="none" stroke="midnightblue" d="M364.765,-344.342C348.083,-315.26 323.859,-273.705 301.574,-238 291.865,-222.445 280.594,-205.362 271.312,-191.532"/>
<polygon fill="none" stroke="midnightblue" points="361.9,-346.382 369.904,-353.323 367.975,-342.905 361.9,-346.382"/>
</g>
<!-- Node8&#45;&gt;Node5 -->
<g id="edge8" class="edge"><title>Node8&#45;&gt;Node5</title>
<path fill="none" stroke="#404040" d="M542.35,-336.855C537.666,-330.783 533.263,-324.42 529.574,-318 510.876,-285.464 516.999,-272.643 502.574,-238 501.542,-235.522 500.464,-233.012 499.351,-230.486"/>
<polygon fill="none" stroke="#404040" points="499.265,-230.298 493.138,-226.496 494.292,-219.377 500.419,-223.18 499.265,-230.298"/>
<text text-anchor="middle" x="568.074" y="-275.5" font-family="Helvetica,sans-Serif" font-size="10.00"> +playerController</text>
</g>
<!-- Node9&#45;&gt;Node1 -->
<g id="edge10" class="edge"><title>Node9&#45;&gt;Node1</title>
<path fill="none" stroke="#404040" d="M252.574,-134.328C252.574,-115.584 252.574,-90.5277 252.574,-69.6685"/>
<polygon fill="none" stroke="#404040" points="252.574,-69.6351 248.574,-63.6351 252.574,-57.6351 256.574,-63.6351 252.574,-69.6351"/>
<text text-anchor="middle" x="293.574" y="-79.5" font-family="Helvetica,sans-Serif" font-size="10.00"> +collisionManager</text>
</g>
<!-- Node10&#45;&gt;Node1 -->
<g id="edge15" class="edge"><title>Node10&#45;&gt;Node1</title>
<path fill="none" stroke="#404040" d="M655.292,-238.343C632.727,-199.129 592.628,-139.569 541.574,-106 465.085,-55.7081 356.741,-38.6386 296.792,-32.8864"/>
<polygon fill="none" stroke="#404040" points="296.716,-32.8798 290.387,-36.3357 284.763,-31.8228 291.092,-28.3668 296.716,-32.8798"/>
<text text-anchor="middle" x="656.574" y="-160.5" font-family="Helvetica,sans-Serif" font-size="10.00"> +star</text>
</g>
</g>
</svg>
