<?xml version="1.0" encoding="UTF-8" standalone="no"?>
<!DOCTYPE svg PUBLIC "-//W3C//DTD SVG 1.1//EN"
 "http://www.w3.org/Graphics/SVG/1.1/DTD/svg11.dtd">
<!-- Generated by graphviz version 2.34.0 (20130907.0111)
 -->
<!-- Title: Graph Legend Pages: 1 -->
<svg width="568pt" height="164pt"
 viewBox="0.00 0.00 568.00 164.00" xmlns="http://www.w3.org/2000/svg" xmlns:xlink="http://www.w3.org/1999/xlink">
<g id="graph0" class="graph" transform="scale(1 1) rotate(0) translate(4 160)">
<title>Graph Legend</title>
<polygon fill="white" stroke="white" points="-4,4 -4,-160 564,-160 564,4 -4,4"/>
<!-- Node9 -->
<g id="node1" class="node"><title>Node9</title>
<polygon fill="#bfbfbf" stroke="black" points="325.25,-20 260.75,-20 260.75,-0 325.25,-0 325.25,-20"/>
<text text-anchor="middle" x="293" y="-7.2" font-family="Segoe UI Semibold" font-size="11.00">Inherited</text>
</g>
<!-- Node10 -->
<g id="node2" class="node"><title>Node10</title>
<g id="a_node2"><a xlink:href="$classPublicBase.html" xlink:title="PublicBase">
<polygon fill="none" stroke="black" points="72.25,-88 -0.25,-88 -0.25,-68 72.25,-68 72.25,-88"/>
<text text-anchor="middle" x="36" y="-75.2" font-family="Segoe UI Semibold" font-size="11.00">PublicBase</text>
</a>
</g>
</g>
<!-- Node10&#45;&gt;Node9 -->
<g id="edge1" class="edge"><title>Node10&#45;&gt;Node9</title>
<path fill="none" stroke="midnightblue" d="M81.0379,-65.4338C132.444,-52.2323 215.259,-30.9647 260.658,-19.3057"/>
<polygon fill="midnightblue" stroke="midnightblue" points="80.011,-62.0839 71.1959,-67.9614 81.7522,-68.8639 80.011,-62.0839"/>
</g>
<!-- Node11 -->
<g id="node3" class="node"><title>Node11</title>
<g id="a_node3"><a xlink:href="$classTruncated.html" xlink:title="Truncated">
<polygon fill="none" stroke="red" points="71,-156 1,-156 1,-136 71,-136 71,-156"/>
<text text-anchor="middle" x="36" y="-143.2" font-family="Segoe UI Semibold" font-size="11.00">Truncated</text>
</a>
</g>
</g>
<!-- Node11&#45;&gt;Node10 -->
<g id="edge2" class="edge"><title>Node11&#45;&gt;Node10</title>
<path fill="none" stroke="midnightblue" d="M36,-125.576C36,-113.193 36,-97.7217 36,-88.0991"/>
<polygon fill="midnightblue" stroke="midnightblue" points="32.5001,-125.823 36,-135.823 39.5001,-125.823 32.5001,-125.823"/>
</g>
<!-- Node13 -->
<g id="node4" class="node"><title>Node13</title>
<g id="a_node4"><a xlink:href="$classProtectedBase.html" xlink:title="ProtectedBase">
<polygon fill="none" stroke="black" points="183,-88 91,-88 91,-68 183,-68 183,-88"/>
<text text-anchor="middle" x="137" y="-75.2" font-family="Segoe UI Semibold" font-size="11.00">ProtectedBase</text>
</a>
</g>
</g>
<!-- Node13&#45;&gt;Node9 -->
<g id="edge3" class="edge"><title>Node13&#45;&gt;Node9</title>
<path fill="none" stroke="darkgreen" d="M167.731,-63.9983C198.415,-51.0166 244.767,-31.4062 271.644,-20.0351"/>
<polygon fill="darkgreen" stroke="darkgreen" points="166.21,-60.8415 158.364,-67.9614 168.937,-67.2883 166.21,-60.8415"/>
</g>
<!-- Node14 -->
<g id="node5" class="node"><title>Node14</title>
<g id="a_node5"><a xlink:href="$classPrivateBase.html" xlink:title="PrivateBase">
<polygon fill="none" stroke="black" points="279,-88 201,-88 201,-68 279,-68 279,-88"/>
<text text-anchor="middle" x="240" y="-75.2" font-family="Segoe UI Semibold" font-size="11.00">PrivateBase</text>
</a>
</g>
</g>
<!-- Node14&#45;&gt;Node9 -->
<g id="edge4" class="edge"><title>Node14&#45;&gt;Node9</title>
<path fill="none" stroke="#8b1a1a" d="M253.801,-59.8134C264.003,-47.1095 277.493,-30.3109 285.693,-20.0991"/>
<polygon fill="#8b1a1a" stroke="#8b1a1a" points="250.902,-57.8343 247.369,-67.823 256.36,-62.2173 250.902,-57.8343"/>
</g>
<!-- Node15 -->
<g id="node6" class="node"><title>Node15</title>
<polygon fill="none" stroke="#bfbfbf" points="395,-88 297,-88 297,-68 395,-68 395,-88"/>
<text text-anchor="middle" x="346" y="-75.2" font-family="Segoe UI Semibold" font-size="11.00">Undocumented</text>
</g>
<!-- Node15&#45;&gt;Node9 -->
<g id="edge5" class="edge"><title>Node15&#45;&gt;Node9</title>
<path fill="none" stroke="midnightblue" d="M332.199,-59.8134C321.997,-47.1095 308.507,-30.3109 300.307,-20.0991"/>
<polygon fill="midnightblue" stroke="midnightblue" points="329.64,-62.2173 338.631,-67.823 335.098,-57.8343 329.64,-62.2173"/>
</g>
<!-- Node16 -->
<g id="node7" class="node"><title>Node16</title>
<g id="a_node7"><a xlink:href="$classTempl.html" xlink:title="Templ&lt; int &gt;">
<polygon fill="none" stroke="black" points="499,-88 413,-88 413,-68 499,-68 499,-88"/>
<text text-anchor="middle" x="456" y="-75.2" font-family="Segoe UI Semibold" font-size="11.00">Templ&lt; int &gt;</text>
</a>
</g>
</g>
<!-- Node16&#45;&gt;Node9 -->
<g id="edge6" class="edge"><title>Node16&#45;&gt;Node9</title>
<path fill="none" stroke="midnightblue" d="M424.305,-64.1665C392.249,-51.1865 343.519,-31.4554 315.314,-20.0351"/>
<polygon fill="midnightblue" stroke="midnightblue" points="423.095,-67.4524 433.677,-67.9614 425.722,-60.9641 423.095,-67.4524"/>
</g>
<!-- Node17 -->
<g id="node8" class="node"><title>Node17</title>
<g id="a_node8"><a xlink:href="$classTempl.html" xlink:title="Templ&lt; T &gt;">
<polygon fill="none" stroke="black" points="495.25,-156 416.75,-156 416.75,-136 495.25,-136 495.25,-156"/>
<text text-anchor="middle" x="456" y="-143.2" font-family="Segoe UI Semibold" font-size="11.00">Templ&lt; T &gt;</text>
</a>
</g>
</g>
<!-- Node17&#45;&gt;Node16 -->
<g id="edge7" class="edge"><title>Node17&#45;&gt;Node16</title>
<path fill="none" stroke="orange" stroke-dasharray="5,2" d="M456,-125.576C456,-113.193 456,-97.7217 456,-88.0991"/>
<polygon fill="orange" stroke="orange" points="452.5,-125.823 456,-135.823 459.5,-125.823 452.5,-125.823"/>
<text text-anchor="middle" x="474.5" y="-109.2" font-family="Segoe UI Semibold" font-size="11.00">&lt; int &gt;</text>
</g>
<!-- Node18 -->
<g id="node9" class="node"><title>Node18</title>
<g id="a_node9"><a xlink:href="$classUsed.html" xlink:title="Used">
<polygon fill="none" stroke="black" points="560.25,-88 517.75,-88 517.75,-68 560.25,-68 560.25,-88"/>
<text text-anchor="middle" x="539" y="-75.2" font-family="Segoe UI Semibold" font-size="11.00">Used</text>
</a>
</g>
</g>
<!-- Node18&#45;&gt;Node9 -->
<g id="edge8" class="edge"><title>Node18&#45;&gt;Node9</title>
<path fill="none" stroke="#9a32cd" stroke-dasharray="5,2" d="M508.294,-68.0817C508.196,-68.0544 508.098,-68.0272 508,-68 443.444,-50.0742 367.637,-30.2648 325.482,-19.3587"/>
<polygon fill="#9a32cd" stroke="#9a32cd" points="507.098,-71.3806 517.673,-70.7373 509.005,-64.6454 507.098,-71.3806"/>
<text text-anchor="middle" x="471.5" y="-41.2" font-family="Segoe UI Semibold" font-size="11.00">m_usedClass</text>
</g>
</g>
</svg>
