<?xml version="1.0" encoding="UTF-8" standalone="no"?>
<!DOCTYPE svg PUBLIC "-//W3C//DTD SVG 1.1//EN"
 "http://www.w3.org/Graphics/SVG/1.1/DTD/svg11.dtd">
<!-- Generated by graphviz version 2.34.0 (20130907.0111)
 -->
<!-- Title: Graphical Class Hierarchy Pages: 1 -->
<svg width="288pt" height="446pt"
 viewBox="0.00 0.00 288.00 446.00" xmlns="http://www.w3.org/2000/svg" xmlns:xlink="http://www.w3.org/1999/xlink">
<g id="graph0" class="graph" transform="scale(1 1) rotate(0) translate(4 442)">
<title>Graphical Class Hierarchy</title>
<polygon fill="white" stroke="white" points="-4,4 -4,-442 284,-442 284,4 -4,4"/>
<!-- Node1 -->
<g id="node1" class="node"><title>Node1</title>
<polygon fill="white" stroke="#bfbfbf" points="45.5,-285.5 45.5,-304.5 104.5,-304.5 104.5,-285.5 45.5,-285.5"/>
<text text-anchor="middle" x="75" y="-292.5" font-family="Helvetica,sans-Serif" font-size="10.00">NSObject</text>
</g>
<!-- Node2 -->
<g id="node2" class="node"><title>Node2</title>
<g id="a_node2"><a xlink:href="interface_collision_manager.html" target="_top" xlink:title="Handles collision events from SpriteKit and hands them over. ">
<polygon fill="white" stroke="black" points="187.5,-152.5 187.5,-171.5 278.5,-171.5 278.5,-152.5 187.5,-152.5"/>
<text text-anchor="middle" x="233" y="-159.5" font-family="Helvetica,sans-Serif" font-size="10.00">CollisionManager</text>
</a>
</g>
</g>
<!-- Node1&#45;&gt;Node2 -->
<g id="edge1" class="edge"><title>Node1&#45;&gt;Node2</title>
<path fill="none" stroke="midnightblue" d="M89.1003,-277.421C108.103,-252.959 145.497,-208.56 186,-181 191.286,-177.403 197.36,-174.298 203.324,-171.701"/>
<polygon fill="midnightblue" stroke="midnightblue" points="86.2466,-275.391 82.9598,-285.464 91.8103,-279.639 86.2466,-275.391"/>
</g>
<!-- Node3 -->
<g id="node3" class="node"><title>Node3</title>
<g id="a_node3"><a xlink:href="interface_enemy.html" target="_top" xlink:title="Represents any game obstacle for the player. ">
<polygon fill="white" stroke="black" points="209.5,-418.5 209.5,-437.5 256.5,-437.5 256.5,-418.5 209.5,-418.5"/>
<text text-anchor="middle" x="233" y="-425.5" font-family="Helvetica,sans-Serif" font-size="10.00">Enemy</text>
</a>
</g>
</g>
<!-- Node1&#45;&gt;Node3 -->
<g id="edge2" class="edge"><title>Node1&#45;&gt;Node3</title>
<path fill="none" stroke="midnightblue" d="M89.1003,-312.579C108.103,-337.041 145.497,-381.44 186,-409 193.001,-413.764 201.383,-417.664 209.062,-420.665"/>
<polygon fill="midnightblue" stroke="midnightblue" points="91.8103,-310.361 82.9598,-304.536 86.2466,-314.609 91.8103,-310.361"/>
</g>
<!-- Node4 -->
<g id="node4" class="node"><title>Node4</title>
<g id="a_node4"><a xlink:href="interface_enemy_manager.html" target="_top" xlink:title="Responsible for handling all enemies. ">
<polygon fill="white" stroke="black" points="190.5,-380.5 190.5,-399.5 275.5,-399.5 275.5,-380.5 190.5,-380.5"/>
<text text-anchor="middle" x="233" y="-387.5" font-family="Helvetica,sans-Serif" font-size="10.00">EnemyManager</text>
</a>
</g>
</g>
<!-- Node1&#45;&gt;Node4 -->
<g id="edge3" class="edge"><title>Node1&#45;&gt;Node4</title>
<path fill="none" stroke="midnightblue" d="M96.0031,-310.767C117.431,-327.182 152.845,-352.967 186,-371 192.376,-374.468 199.52,-377.706 206.242,-380.491"/>
<polygon fill="midnightblue" stroke="midnightblue" points="98.0353,-307.914 87.9852,-304.56 93.7505,-313.449 98.0353,-307.914"/>
</g>
<!-- Node5 -->
<g id="node5" class="node"><title>Node5</title>
<g id="a_node5"><a xlink:href="interface_h_u_d_manager.html" target="_top" xlink:title="Displays information for the player. ">
<polygon fill="white" stroke="black" points="196,-342.5 196,-361.5 270,-361.5 270,-342.5 196,-342.5"/>
<text text-anchor="middle" x="233" y="-349.5" font-family="Helvetica,sans-Serif" font-size="10.00">HUDManager</text>
</a>
</g>
</g>
<!-- Node1&#45;&gt;Node5 -->
<g id="edge4" class="edge"><title>Node1&#45;&gt;Node5</title>
<path fill="none" stroke="midnightblue" d="M111.758,-308.065C140.433,-318.543 180.014,-333.005 205.804,-342.428"/>
<polygon fill="midnightblue" stroke="midnightblue" points="112.705,-304.685 102.111,-304.541 110.302,-311.26 112.705,-304.685"/>
</g>
<!-- Node6 -->
<g id="node6" class="node"><title>Node6</title>
<g id="a_node6"><a xlink:href="interface_hunter.html" target="_top" xlink:title="Advanced enemy that tries to catch the player. ">
<polygon fill="white" stroke="black" points="210.5,-304.5 210.5,-323.5 255.5,-323.5 255.5,-304.5 210.5,-304.5"/>
<text text-anchor="middle" x="233" y="-311.5" font-family="Helvetica,sans-Serif" font-size="10.00">Hunter</text>
</a>
</g>
</g>
<!-- Node1&#45;&gt;Node6 -->
<g id="edge5" class="edge"><title>Node1&#45;&gt;Node6</title>
<path fill="none" stroke="midnightblue" d="M114.768,-299.722C144.84,-303.384 185.432,-308.328 210.109,-311.334"/>
<polygon fill="midnightblue" stroke="midnightblue" points="114.963,-296.22 104.613,-298.485 114.116,-303.168 114.963,-296.22"/>
</g>
<!-- Node7 -->
<g id="node7" class="node"><title>Node7</title>
<g id="a_node7"><a xlink:href="interface_particle_manager.html" target="_top" xlink:title="Responsible for updating and drawing anything related to particles. ">
<polygon fill="white" stroke="black" points="189.5,-266.5 189.5,-285.5 276.5,-285.5 276.5,-266.5 189.5,-266.5"/>
<text text-anchor="middle" x="233" y="-273.5" font-family="Helvetica,sans-Serif" font-size="10.00">ParticleManager</text>
</a>
</g>
</g>
<!-- Node1&#45;&gt;Node7 -->
<g id="edge6" class="edge"><title>Node1&#45;&gt;Node7</title>
<path fill="none" stroke="midnightblue" d="M114.583,-290.301C137.301,-287.534 166.069,-284.03 189.443,-281.183"/>
<polygon fill="midnightblue" stroke="midnightblue" points="114.116,-286.832 104.613,-291.515 114.963,-293.78 114.116,-286.832"/>
</g>
<!-- Node8 -->
<g id="node8" class="node"><title>Node8</title>
<g id="a_node8"><a xlink:href="interface_power_up_manager.html" target="_top" xlink:title="Responsible for updating and drawing anything related to power ups. ">
<polygon fill="white" stroke="black" points="186.5,-228.5 186.5,-247.5 279.5,-247.5 279.5,-228.5 186.5,-228.5"/>
<text text-anchor="middle" x="233" y="-235.5" font-family="Helvetica,sans-Serif" font-size="10.00">PowerUpManager</text>
</a>
</g>
</g>
<!-- Node1&#45;&gt;Node8 -->
<g id="edge7" class="edge"><title>Node1&#45;&gt;Node8</title>
<path fill="none" stroke="midnightblue" d="M111.758,-281.935C140.433,-271.457 180.014,-256.995 205.804,-247.572"/>
<polygon fill="midnightblue" stroke="midnightblue" points="110.302,-278.74 102.111,-285.459 112.705,-285.315 110.302,-278.74"/>
</g>
<!-- Node9 -->
<g id="node9" class="node"><title>Node9</title>
<g id="a_node9"><a xlink:href="interface_sound_manager.html" target="_top" xlink:title="Responsible for playing sound effects and music. ">
<polygon fill="white" stroke="black" points="192,-190.5 192,-209.5 274,-209.5 274,-190.5 192,-190.5"/>
<text text-anchor="middle" x="233" y="-197.5" font-family="Helvetica,sans-Serif" font-size="10.00">SoundManager</text>
</a>
</g>
</g>
<!-- Node1&#45;&gt;Node9 -->
<g id="edge8" class="edge"><title>Node1&#45;&gt;Node9</title>
<path fill="none" stroke="midnightblue" d="M96.0031,-279.233C117.431,-262.818 152.845,-237.033 186,-219 192.376,-215.532 199.52,-212.294 206.242,-209.509"/>
<polygon fill="midnightblue" stroke="midnightblue" points="93.7505,-276.551 87.9852,-285.44 98.0353,-282.086 93.7505,-276.551"/>
</g>
<!-- Node10 -->
<g id="node10" class="node"><title>Node10</title>
<polygon fill="white" stroke="#bfbfbf" points="0.5,-133.5 0.5,-152.5 149.5,-152.5 149.5,-133.5 0.5,-133.5"/>
<text text-anchor="middle" x="75" y="-140.5" font-family="Helvetica,sans-Serif" font-size="10.00">&lt;SKPhysicsContactDelegate&gt;</text>
</g>
<!-- Node10&#45;&gt;Node2 -->
<g id="edge9" class="edge"><title>Node10&#45;&gt;Node2</title>
<path fill="none" stroke="midnightblue" d="M160.06,-153.238C169.416,-154.378 178.654,-155.503 187.233,-156.548"/>
<polygon fill="midnightblue" stroke="midnightblue" points="160.238,-149.734 149.888,-151.999 159.392,-156.683 160.238,-149.734"/>
</g>
<!-- Node11 -->
<g id="node11" class="node"><title>Node11</title>
<g id="a_node11"><a xlink:href="interface_player.html" target="_top" xlink:title="Player object that the user is actually controlling. ">
<polygon fill="white" stroke="black" points="211,-114.5 211,-133.5 255,-133.5 255,-114.5 211,-114.5"/>
<text text-anchor="middle" x="233" y="-121.5" font-family="Helvetica,sans-Serif" font-size="10.00">Player</text>
</a>
</g>
</g>
<!-- Node10&#45;&gt;Node11 -->
<g id="edge10" class="edge"><title>Node10&#45;&gt;Node11</title>
<path fill="none" stroke="midnightblue" d="M159.854,-132.787C178.875,-130.47 197.43,-128.21 210.959,-126.563"/>
<polygon fill="midnightblue" stroke="midnightblue" points="159.392,-129.317 149.888,-134.001 160.238,-136.266 159.392,-129.317"/>
</g>
<!-- Node12 -->
<g id="node12" class="node"><title>Node12</title>
<polygon fill="white" stroke="#bfbfbf" points="36,-57.5 36,-76.5 114,-76.5 114,-57.5 36,-57.5"/>
<text text-anchor="middle" x="75" y="-64.5" font-family="Helvetica,sans-Serif" font-size="10.00">SKSpriteNode</text>
</g>
<!-- Node12&#45;&gt;Node11 -->
<g id="edge12" class="edge"><title>Node12&#45;&gt;Node11</title>
<path fill="none" stroke="midnightblue" d="M111.573,-79.9977C142.19,-91.1848 185.343,-106.952 210.819,-116.261"/>
<polygon fill="midnightblue" stroke="midnightblue" points="112.705,-76.6851 102.111,-76.5405 110.302,-83.2599 112.705,-76.6851"/>
</g>
<!-- Node13 -->
<g id="node13" class="node"><title>Node13</title>
<g id="a_node13"><a xlink:href="interface_enemy_ball.html" target="_top" xlink:title="Standard ball enemy which moves in a straight pattern. ">
<polygon fill="white" stroke="black" points="201,-76.5 201,-95.5 265,-95.5 265,-76.5 201,-76.5"/>
<text text-anchor="middle" x="233" y="-83.5" font-family="Helvetica,sans-Serif" font-size="10.00">EnemyBall</text>
</a>
</g>
</g>
<!-- Node12&#45;&gt;Node13 -->
<g id="edge11" class="edge"><title>Node12&#45;&gt;Node13</title>
<path fill="none" stroke="midnightblue" d="M124.168,-72.8666C149.116,-75.9051 178.857,-79.5275 200.78,-82.1976"/>
<polygon fill="midnightblue" stroke="midnightblue" points="124.512,-69.3827 114.162,-71.6479 123.665,-76.3314 124.512,-69.3827"/>
</g>
<!-- Node14 -->
<g id="node14" class="node"><title>Node14</title>
<g id="a_node14"><a xlink:href="interface_player_controller.html" target="_top" xlink:title="Visual joystick which controls the player. ">
<polygon fill="white" stroke="black" points="190,-38.5 190,-57.5 276,-57.5 276,-38.5 190,-38.5"/>
<text text-anchor="middle" x="233" y="-45.5" font-family="Helvetica,sans-Serif" font-size="10.00">PlayerController</text>
</a>
</g>
</g>
<!-- Node12&#45;&gt;Node14 -->
<g id="edge13" class="edge"><title>Node12&#45;&gt;Node14</title>
<path fill="none" stroke="midnightblue" d="M124.167,-61.1336C145.17,-58.5755 169.571,-55.6036 189.844,-53.1344"/>
<polygon fill="midnightblue" stroke="midnightblue" points="123.665,-57.6686 114.162,-62.3521 124.512,-64.6173 123.665,-57.6686"/>
</g>
<!-- Node15 -->
<g id="node15" class="node"><title>Node15</title>
<g id="a_node15"><a xlink:href="interface_star.html" target="_top" xlink:title="Goal object, player needs to collect this. ">
<polygon fill="white" stroke="black" points="215.5,-0.5 215.5,-19.5 250.5,-19.5 250.5,-0.5 215.5,-0.5"/>
<text text-anchor="middle" x="233" y="-7.5" font-family="Helvetica,sans-Serif" font-size="10.00">Star</text>
</a>
</g>
</g>
<!-- Node12&#45;&gt;Node15 -->
<g id="edge14" class="edge"><title>Node12&#45;&gt;Node15</title>
<path fill="none" stroke="midnightblue" d="M111.717,-53.9494C144.256,-42.0603 190.864,-25.0306 215.414,-16.0604"/>
<polygon fill="midnightblue" stroke="midnightblue" points="110.302,-50.7401 102.111,-57.4595 112.705,-57.3149 110.302,-50.7401"/>
</g>
</g>
</svg>
