<?xml version="1.0" encoding="UTF-8" standalone="no"?>
<!DOCTYPE svg PUBLIC "-//W3C//DTD SVG 1.1//EN"
 "http://www.w3.org/Graphics/SVG/1.1/DTD/svg11.dtd">
<!-- Generated by graphviz version 2.34.0 (20130907.0111)
 -->
<!-- Title: Graphical Class Hierarchy Pages: 1 -->
<svg width="328pt" height="457pt"
 viewBox="0.00 0.00 328.00 457.00" xmlns="http://www.w3.org/2000/svg" xmlns:xlink="http://www.w3.org/1999/xlink">
<g id="graph0" class="graph" transform="scale(1 1) rotate(0) translate(4 453)">
<title>Graphical Class Hierarchy</title>
<polygon fill="white" stroke="white" points="-4,4 -4,-453 324,-453 324,4 -4,4"/>
<!-- Node1 -->
<g id="node1" class="node"><title>Node1</title>
<polygon fill="white" stroke="#bfbfbf" points="53.5,-292 53.5,-312 118.5,-312 118.5,-292 53.5,-292"/>
<text text-anchor="middle" x="86" y="-299.2" font-family="Segoe UI Semibold" font-size="11.00">NSObject</text>
</g>
<!-- Node2 -->
<g id="node2" class="node"><title>Node2</title>
<g id="a_node2"><a xlink:href="interface_collision_manager.html" target="_top" xlink:title="Handles collision events from SpriteKit and hands them over. ">
<polygon fill="white" stroke="black" points="210.5,-156 210.5,-176 317.5,-176 317.5,-156 210.5,-156"/>
<text text-anchor="middle" x="264" y="-163.2" font-family="Segoe UI Semibold" font-size="11.00">CollisionManager</text>
</a>
</g>
</g>
<!-- Node1&#45;&gt;Node2 -->
<g id="edge1" class="edge"><title>Node1&#45;&gt;Node2</title>
<path fill="none" stroke="midnightblue" d="M101.6,-283.882C122.694,-258.762 164.015,-213.365 208,-186 214.298,-182.082 221.476,-178.772 228.521,-176.042"/>
<polygon fill="midnightblue" stroke="midnightblue" points="98.6815,-281.919 95.0116,-291.858 104.079,-286.377 98.6815,-281.919"/>
</g>
<!-- Node3 -->
<g id="node3" class="node"><title>Node3</title>
<g id="a_node3"><a xlink:href="interface_enemy.html" target="_top" xlink:title="Represents any game obstacle for the player. ">
<polygon fill="white" stroke="black" points="238,-429 238,-449 290,-449 290,-429 238,-429"/>
<text text-anchor="middle" x="264" y="-436.2" font-family="Segoe UI Semibold" font-size="11.00">Enemy</text>
</a>
</g>
</g>
<!-- Node1&#45;&gt;Node3 -->
<g id="edge2" class="edge"><title>Node1&#45;&gt;Node3</title>
<path fill="none" stroke="midnightblue" d="M101.566,-320.282C122.619,-345.628 163.892,-391.427 208,-419 217.132,-424.709 228.132,-429.119 237.886,-432.327"/>
<polygon fill="midnightblue" stroke="midnightblue" points="104.028,-317.764 94.9911,-312.234 98.6071,-322.192 104.028,-317.764"/>
</g>
<!-- Node4 -->
<g id="node4" class="node"><title>Node4</title>
<g id="a_node4"><a xlink:href="interface_enemy_manager.html" target="_top" xlink:title="Responsible for handling all enemies. ">
<polygon fill="white" stroke="black" points="215,-390 215,-410 313,-410 313,-390 215,-390"/>
<text text-anchor="middle" x="264" y="-397.2" font-family="Segoe UI Semibold" font-size="11.00">EnemyManager</text>
</a>
</g>
</g>
<!-- Node1&#45;&gt;Node4 -->
<g id="edge3" class="edge"><title>Node1&#45;&gt;Node4</title>
<path fill="none" stroke="midnightblue" d="M108.788,-318.183C132.357,-335.168 171.473,-361.872 208,-380 215.463,-383.704 223.788,-387.087 231.657,-389.975"/>
<polygon fill="midnightblue" stroke="midnightblue" points="110.699,-315.245 100.555,-312.188 106.578,-320.904 110.699,-315.245"/>
</g>
<!-- Node5 -->
<g id="node5" class="node"><title>Node5</title>
<g id="a_node5"><a xlink:href="interface_h_u_d_manager.html" target="_top" xlink:title="Displays information for the player. ">
<polygon fill="white" stroke="black" points="220,-351 220,-371 308,-371 308,-351 220,-351"/>
<text text-anchor="middle" x="264" y="-358.2" font-family="Segoe UI Semibold" font-size="11.00">HUDManager</text>
</a>
</g>
</g>
<!-- Node1&#45;&gt;Node5 -->
<g id="edge4" class="edge"><title>Node1&#45;&gt;Node5</title>
<path fill="none" stroke="midnightblue" d="M126.428,-315.217C158.683,-326.03 203.616,-341.093 232.998,-350.942"/>
<polygon fill="midnightblue" stroke="midnightblue" points="127.45,-311.869 116.856,-312.009 125.225,-318.506 127.45,-311.869"/>
</g>
<!-- Node6 -->
<g id="node6" class="node"><title>Node6</title>
<g id="a_node6"><a xlink:href="interface_hunter.html" target="_top" xlink:title="Advanced enemy that tries to catch the player. ">
<polygon fill="white" stroke="black" points="237.5,-312 237.5,-332 290.5,-332 290.5,-312 237.5,-312"/>
<text text-anchor="middle" x="264" y="-319.2" font-family="Segoe UI Semibold" font-size="11.00">Hunter</text>
</a>
</g>
</g>
<!-- Node1&#45;&gt;Node6 -->
<g id="edge5" class="edge"><title>Node1&#45;&gt;Node6</title>
<path fill="none" stroke="midnightblue" d="M128.9,-306.761C162.622,-310.593 208.928,-315.855 237.363,-319.087"/>
<polygon fill="midnightblue" stroke="midnightblue" points="129.204,-303.273 118.872,-305.622 128.413,-310.229 129.204,-303.273"/>
</g>
<!-- Node7 -->
<g id="node7" class="node"><title>Node7</title>
<g id="a_node7"><a xlink:href="interface_particle_manager.html" target="_top" xlink:title="Responsible for updating and drawing anything related to particles. ">
<polygon fill="white" stroke="black" points="213,-273 213,-293 315,-293 315,-273 213,-273"/>
<text text-anchor="middle" x="264" y="-280.2" font-family="Segoe UI Semibold" font-size="11.00">ParticleManager</text>
</a>
</g>
</g>
<!-- Node1&#45;&gt;Node7 -->
<g id="edge6" class="edge"><title>Node1&#45;&gt;Node7</title>
<path fill="none" stroke="midnightblue" d="M128.839,-297.483C153.999,-294.767 186.182,-291.293 212.72,-288.428"/>
<polygon fill="midnightblue" stroke="midnightblue" points="128.439,-294.006 118.872,-298.559 129.19,-300.966 128.439,-294.006"/>
</g>
<!-- Node8 -->
<g id="node8" class="node"><title>Node8</title>
<g id="a_node8"><a xlink:href="interface_power_up_manager.html" target="_top" xlink:title="Responsible for updating and drawing anything related to power ups. ">
<polygon fill="white" stroke="black" points="208.5,-234 208.5,-254 319.5,-254 319.5,-234 208.5,-234"/>
<text text-anchor="middle" x="264" y="-241.2" font-family="Segoe UI Semibold" font-size="11.00">PowerUpManager</text>
</a>
</g>
</g>
<!-- Node1&#45;&gt;Node8 -->
<g id="edge7" class="edge"><title>Node1&#45;&gt;Node8</title>
<path fill="none" stroke="midnightblue" d="M127.163,-288.764C159.144,-278.225 203.233,-263.696 232.4,-254.084"/>
<polygon fill="midnightblue" stroke="midnightblue" points="126.059,-285.443 117.657,-291.897 128.25,-292.091 126.059,-285.443"/>
</g>
<!-- Node9 -->
<g id="node9" class="node"><title>Node9</title>
<g id="a_node9"><a xlink:href="interface_sound_manager.html" target="_top" xlink:title="Responsible for playing sound effects and music. ">
<polygon fill="white" stroke="black" points="216,-195 216,-215 312,-215 312,-195 216,-195"/>
<text text-anchor="middle" x="264" y="-202.2" font-family="Segoe UI Semibold" font-size="11.00">SoundManager</text>
</a>
</g>
</g>
<!-- Node1&#45;&gt;Node9 -->
<g id="edge8" class="edge"><title>Node1&#45;&gt;Node9</title>
<path fill="none" stroke="midnightblue" d="M108.821,-286.047C132.418,-269.299 171.557,-242.954 208,-225 215.474,-221.318 223.803,-217.943 231.672,-215.056"/>
<polygon fill="midnightblue" stroke="midnightblue" points="106.664,-283.287 100.577,-291.958 110.743,-288.976 106.664,-283.287"/>
</g>
<!-- Node10 -->
<g id="node10" class="node"><title>Node10</title>
<polygon fill="white" stroke="#bfbfbf" points="0,-136 0,-156 172,-156 172,-136 0,-136"/>
<text text-anchor="middle" x="86" y="-143.2" font-family="Segoe UI Semibold" font-size="11.00">&lt;SKPhysicsContactDelegate&gt;</text>
</g>
<!-- Node10&#45;&gt;Node2 -->
<g id="edge9" class="edge"><title>Node10&#45;&gt;Node2</title>
<path fill="none" stroke="midnightblue" d="M182.205,-156.819C191.819,-157.911 201.317,-158.991 210.237,-160.004"/>
<polygon fill="midnightblue" stroke="midnightblue" points="182.496,-153.329 172.164,-155.678 181.705,-160.285 182.496,-153.329"/>
</g>
<!-- Node11 -->
<g id="node11" class="node"><title>Node11</title>
<g id="a_node11"><a xlink:href="interface_player.html" target="_top" xlink:title="Player object that the user is actually controlling. ">
<polygon fill="white" stroke="black" points="239.5,-117 239.5,-137 288.5,-137 288.5,-117 239.5,-117"/>
<text text-anchor="middle" x="264" y="-124.2" font-family="Segoe UI Semibold" font-size="11.00">Player</text>
</a>
</g>
</g>
<!-- Node10&#45;&gt;Node11 -->
<g id="edge10" class="edge"><title>Node10&#45;&gt;Node11</title>
<path fill="none" stroke="midnightblue" d="M182.31,-135.711C203.615,-133.411 224.344,-131.173 239.457,-129.542"/>
<polygon fill="midnightblue" stroke="midnightblue" points="181.731,-132.253 172.164,-136.806 182.482,-139.212 181.731,-132.253"/>
</g>
<!-- Node12 -->
<g id="node12" class="node"><title>Node12</title>
<polygon fill="white" stroke="#bfbfbf" points="41.5,-58 41.5,-78 130.5,-78 130.5,-58 41.5,-58"/>
<text text-anchor="middle" x="86" y="-65.2" font-family="Segoe UI Semibold" font-size="11.00">SKSpriteNode</text>
</g>
<!-- Node12&#45;&gt;Node11 -->
<g id="edge12" class="edge"><title>Node12&#45;&gt;Node11</title>
<path fill="none" stroke="midnightblue" d="M126.68,-81.3017C161.402,-92.9417 210.672,-109.458 239.488,-119.118"/>
<polygon fill="midnightblue" stroke="midnightblue" points="127.45,-77.8685 116.856,-78.0085 125.225,-84.5055 127.45,-77.8685"/>
</g>
<!-- Node13 -->
<g id="node13" class="node"><title>Node13</title>
<g id="a_node13"><a xlink:href="interface_enemy_ball.html" target="_top" xlink:title="Standard ball enemy which moves in a straight pattern. ">
<polygon fill="white" stroke="black" points="228.5,-78 228.5,-98 299.5,-98 299.5,-78 228.5,-78"/>
<text text-anchor="middle" x="264" y="-85.2" font-family="Segoe UI Semibold" font-size="11.00">EnemyBall</text>
</a>
</g>
</g>
<!-- Node12&#45;&gt;Node13 -->
<g id="edge11" class="edge"><title>Node12&#45;&gt;Node13</title>
<path fill="none" stroke="midnightblue" d="M140.704,-74.1027C169.156,-77.3359 203.278,-81.2134 228.241,-84.0501"/>
<polygon fill="midnightblue" stroke="midnightblue" points="140.837,-70.5954 130.506,-72.9438 140.046,-77.5506 140.837,-70.5954"/>
</g>
<!-- Node14 -->
<g id="node14" class="node"><title>Node14</title>
<g id="a_node14"><a xlink:href="interface_player_controller.html" target="_top" xlink:title="Visual joystick which controls the player. ">
<polygon fill="white" stroke="black" points="213.5,-39 213.5,-59 314.5,-59 314.5,-39 213.5,-39"/>
<text text-anchor="middle" x="264" y="-46.2" font-family="Segoe UI Semibold" font-size="11.00">PlayerController</text>
</a>
</g>
</g>
<!-- Node12&#45;&gt;Node14 -->
<g id="edge13" class="edge"><title>Node12&#45;&gt;Node14</title>
<path fill="none" stroke="midnightblue" d="M140.531,-62.2211C163.733,-59.7163 190.733,-56.8016 213.467,-54.3473"/>
<polygon fill="midnightblue" stroke="midnightblue" points="140.072,-58.7502 130.506,-63.3034 140.824,-65.7098 140.072,-58.7502"/>
</g>
<!-- Node15 -->
<g id="node15" class="node"><title>Node15</title>
<g id="a_node15"><a xlink:href="interface_star.html" target="_top" xlink:title="Goal object, player needs to collect this. ">
<polygon fill="white" stroke="black" points="245,-0 245,-20 283,-20 283,-0 245,-0"/>
<text text-anchor="middle" x="264" y="-7.2" font-family="Segoe UI Semibold" font-size="11.00">Star</text>
</a>
</g>
</g>
<!-- Node12&#45;&gt;Node15 -->
<g id="edge14" class="edge"><title>Node12&#45;&gt;Node15</title>
<path fill="none" stroke="midnightblue" d="M127.589,-54.6241C164.406,-42.4911 217.009,-25.1562 244.56,-16.0769"/>
<polygon fill="midnightblue" stroke="midnightblue" points="126.059,-51.4431 117.657,-57.8972 128.25,-58.0914 126.059,-51.4431"/>
</g>
</g>
</svg>
