<?xml version="1.0" encoding="UTF-8" standalone="no"?>
<!DOCTYPE svg PUBLIC "-//W3C//DTD SVG 1.1//EN"
 "http://www.w3.org/Graphics/SVG/1.1/DTD/svg11.dtd">
<!-- Generated by graphviz version 2.34.0 (20130907.0111)
 -->
<!-- Title: Graphical Class Hierarchy Pages: 1 -->
<svg width="282pt" height="67pt"
 viewBox="0.00 0.00 282.00 67.00" xmlns="http://www.w3.org/2000/svg" xmlns:xlink="http://www.w3.org/1999/xlink">
<g id="graph0" class="graph" transform="scale(1 1) rotate(0) translate(4 63)">
<title>Graphical Class Hierarchy</title>
<polygon fill="white" stroke="white" points="-4,4 -4,-63 278,-63 278,4 -4,4"/>
<!-- Node1 -->
<g id="node1" class="node"><title>Node1</title>
<polygon fill="white" stroke="#bfbfbf" points="0,-39 0,-59 152,-59 152,-39 0,-39"/>
<text text-anchor="middle" x="76" y="-46.2" font-family="Segoe UI Semibold" font-size="11.00">&lt;UIApplicationDelegate&gt;</text>
</g>
<!-- Node2 -->
<g id="node2" class="node"><title>Node2</title>
<g id="a_node2"><a xlink:href="interface_app_delegate.html" target="_top" xlink:title="Standard delegate for our app. ">
<polygon fill="white" stroke="black" points="188.5,-19 188.5,-39 273.5,-39 273.5,-19 188.5,-19"/>
<text text-anchor="middle" x="231" y="-26.2" font-family="Segoe UI Semibold" font-size="11.00">AppDelegate</text>
</a>
</g>
</g>
<!-- Node1&#45;&gt;Node2 -->
<g id="edge1" class="edge"><title>Node1&#45;&gt;Node2</title>
<path fill="none" stroke="midnightblue" d="M162.306,-37.8489C171.259,-36.6786 180.049,-35.5296 188.176,-34.4672"/>
<polygon fill="midnightblue" stroke="midnightblue" points="161.617,-34.4091 152.155,-39.1758 162.525,-41.35 161.617,-34.4091"/>
</g>
<!-- Node3 -->
<g id="node3" class="node"><title>Node3</title>
<polygon fill="white" stroke="#bfbfbf" points="33.5,-0 33.5,-20 118.5,-20 118.5,-0 33.5,-0"/>
<text text-anchor="middle" x="76" y="-7.2" font-family="Segoe UI Semibold" font-size="11.00">UIResponder</text>
</g>
<!-- Node3&#45;&gt;Node2 -->
<g id="edge2" class="edge"><title>Node3&#45;&gt;Node2</title>
<path fill="none" stroke="midnightblue" d="M128.967,-16.4534C148.29,-18.853 169.949,-21.5427 188.243,-23.8144"/>
<polygon fill="midnightblue" stroke="midnightblue" points="129.163,-12.951 118.808,-15.1918 128.3,-19.8976 129.163,-12.951"/>
</g>
</g>
</svg>
