<?xml version="1.0" encoding="UTF-8" standalone="no"?>
<!DOCTYPE svg PUBLIC "-//W3C//DTD SVG 1.1//EN"
 "http://www.w3.org/Graphics/SVG/1.1/DTD/svg11.dtd">
<!-- Generated by graphviz version 2.34.0 (20130907.0111)
 -->
<!-- Title: Player Pages: 1 -->
<svg width="347pt" height="358pt"
 viewBox="0.00 0.00 347.00 358.00" xmlns="http://www.w3.org/2000/svg" xmlns:xlink="http://www.w3.org/1999/xlink">
<g id="graph0" class="graph" transform="scale(1 1) rotate(0) translate(4 354)">
<title>Player</title>
<polygon fill="white" stroke="white" points="-4,4 -4,-354 343,-354 343,4 -4,4"/>
<!-- Node1 -->
<g id="node1" class="node"><title>Node1</title>
<polygon fill="#bfbfbf" stroke="black" points="37.5,-1 37.5,-113 172.5,-113 172.5,-1 37.5,-1"/>
<text text-anchor="middle" x="105" y="-101" font-family="Helvetica,sans-Serif" font-size="10.00">Player</text>
<polyline fill="none" stroke="black" points="37.5,-94 172.5,-94 "/>
<text text-anchor="start" x="45.5" y="-82" font-family="Helvetica,sans-Serif" font-size="10.00">+ score</text>
<polyline fill="none" stroke="black" points="37.5,-75 172.5,-75 "/>
<text text-anchor="start" x="45.5" y="-63" font-family="Helvetica,sans-Serif" font-size="10.00">+ initWithHUDManager:</text>
<text text-anchor="start" x="45.5" y="-52" font-family="Helvetica,sans-Serif" font-size="10.00">+ touchesBegan:withEvent:</text>
<text text-anchor="start" x="45.5" y="-41" font-family="Helvetica,sans-Serif" font-size="10.00">+ touchesMoved:withEvent:</text>
<text text-anchor="start" x="45.5" y="-30" font-family="Helvetica,sans-Serif" font-size="10.00">+ touchesEnded:withEvent:</text>
<text text-anchor="start" x="45.5" y="-19" font-family="Helvetica,sans-Serif" font-size="10.00">+ didBeginContactWith:</text>
<text text-anchor="start" x="45.5" y="-8" font-family="Helvetica,sans-Serif" font-size="10.00">+ update</text>
</g>
<!-- Node2 -->
<g id="node2" class="node"><title>Node2</title>
<polygon fill="white" stroke="#bfbfbf" points="0,-292.5 0,-349.5 78,-349.5 78,-292.5 0,-292.5"/>
<text text-anchor="middle" x="39" y="-337.5" font-family="Helvetica,sans-Serif" font-size="10.00">SKSpriteNode</text>
<polyline fill="none" stroke="#bfbfbf" points="0,-330.5 78,-330.5 "/>
<text text-anchor="middle" x="39" y="-318.5" font-family="Helvetica,sans-Serif" font-size="10.00"> </text>
<polyline fill="none" stroke="#bfbfbf" points="0,-311.5 78,-311.5 "/>
<text text-anchor="middle" x="39" y="-299.5" font-family="Helvetica,sans-Serif" font-size="10.00"> </text>
</g>
<!-- Node2&#45;&gt;Node1 -->
<g id="edge1" class="edge"><title>Node2&#45;&gt;Node1</title>
<path fill="none" stroke="midnightblue" d="M28.487,-282.348C21.2052,-249.692 14.9408,-201.585 28,-162 33.7011,-144.719 43.5031,-127.962 54.2403,-113.127"/>
<polygon fill="none" stroke="midnightblue" points="25.152,-283.454 30.8638,-292.377 31.9634,-281.839 25.152,-283.454"/>
</g>
<!-- Node4 -->
<g id="node4" class="node"><title>Node4</title>
<g id="a_node4"><a xlink:href="interface_player_controller.html" target="_top" xlink:title="{PlayerController\n||+ touchesBegan:withEvent:\l+ touchesMoved:withEvent:\l+ touchesEnded:withEvent:\l+ getJoystickVelocity\l}">
<polygon fill="white" stroke="black" points="37.5,-163 37.5,-253 172.5,-253 172.5,-163 37.5,-163"/>
<text text-anchor="middle" x="105" y="-241" font-family="Helvetica,sans-Serif" font-size="10.00">PlayerController</text>
<polyline fill="none" stroke="black" points="37.5,-234 172.5,-234 "/>
<text text-anchor="middle" x="105" y="-222" font-family="Helvetica,sans-Serif" font-size="10.00"> </text>
<polyline fill="none" stroke="black" points="37.5,-215 172.5,-215 "/>
<text text-anchor="start" x="45.5" y="-203" font-family="Helvetica,sans-Serif" font-size="10.00">+ touchesBegan:withEvent:</text>
<text text-anchor="start" x="45.5" y="-192" font-family="Helvetica,sans-Serif" font-size="10.00">+ touchesMoved:withEvent:</text>
<text text-anchor="start" x="45.5" y="-181" font-family="Helvetica,sans-Serif" font-size="10.00">+ touchesEnded:withEvent:</text>
<text text-anchor="start" x="45.5" y="-170" font-family="Helvetica,sans-Serif" font-size="10.00">+ getJoystickVelocity</text>
</a>
</g>
</g>
<!-- Node2&#45;&gt;Node4 -->
<g id="edge4" class="edge"><title>Node2&#45;&gt;Node4</title>
<path fill="none" stroke="midnightblue" d="M60.6216,-283.636C66.4044,-273.911 72.7185,-263.292 78.7224,-253.194"/>
<polygon fill="none" stroke="midnightblue" points="57.5868,-281.892 55.4843,-292.276 63.6035,-285.47 57.5868,-281.892"/>
</g>
<!-- Node3 -->
<g id="node3" class="node"><title>Node3</title>
<polygon fill="white" stroke="#bfbfbf" points="190.5,-179.5 190.5,-236.5 339.5,-236.5 339.5,-179.5 190.5,-179.5"/>
<text text-anchor="middle" x="265" y="-224.5" font-family="Helvetica,sans-Serif" font-size="10.00">&lt;SKPhysicsContactDelegate&gt;</text>
<polyline fill="none" stroke="#bfbfbf" points="190.5,-217.5 339.5,-217.5 "/>
<text text-anchor="middle" x="265" y="-205.5" font-family="Helvetica,sans-Serif" font-size="10.00"> </text>
<polyline fill="none" stroke="#bfbfbf" points="190.5,-198.5 339.5,-198.5 "/>
<text text-anchor="middle" x="265" y="-186.5" font-family="Helvetica,sans-Serif" font-size="10.00"> </text>
</g>
<!-- Node3&#45;&gt;Node1 -->
<g id="edge2" class="edge"><title>Node3&#45;&gt;Node1</title>
<path fill="none" stroke="midnightblue" d="M228.992,-172.539C215.553,-159.75 200.129,-145.159 186,-132 179.449,-125.899 172.573,-119.544 165.712,-113.233"/>
<polygon fill="none" stroke="midnightblue" points="226.579,-175.074 236.233,-179.438 231.408,-170.006 226.579,-175.074"/>
</g>
<!-- Node4&#45;&gt;Node1 -->
<g id="edge3" class="edge"><title>Node4&#45;&gt;Node1</title>
<path fill="none" stroke="#404040" d="M105,-162.699C105,-150.932 105,-137.956 105,-125.263"/>
<polygon fill="none" stroke="#404040" points="105,-125.228 101,-119.228 105,-113.228 109,-119.228 105,-125.228"/>
<text text-anchor="middle" x="143.5" y="-135.5" font-family="Helvetica,sans-Serif" font-size="10.00"> +playerController</text>
</g>
</g>
</svg>
