<?xml version="1.0" encoding="UTF-8" standalone="no"?>
<!DOCTYPE svg PUBLIC "-//W3C//DTD SVG 1.1//EN"
 "http://www.w3.org/Graphics/SVG/1.1/DTD/svg11.dtd">
<!-- Generated by graphviz version 2.34.0 (20130907.0111)
 -->
<!-- Title: EnemyBall Pages: 1 -->
<svg width="94pt" height="172pt"
 viewBox="0.00 0.00 94.00 172.00" xmlns="http://www.w3.org/2000/svg" xmlns:xlink="http://www.w3.org/1999/xlink">
<g id="graph0" class="graph" transform="scale(1 1) rotate(0) translate(4 168)">
<title>EnemyBall</title>
<polygon fill="white" stroke="white" points="-4,4 -4,-168 90,-168 90,4 -4,4"/>
<!-- Node1 -->
<g id="node1" class="node"><title>Node1</title>
<polygon fill="#bfbfbf" stroke="black" points="0,-1 0,-69 86,-69 86,-1 0,-1"/>
<text text-anchor="middle" x="43" y="-57" font-family="Helvetica,sans-Serif" font-size="10.00">EnemyBall</text>
<polyline fill="none" stroke="black" points="0,-50 86,-50 "/>
<text text-anchor="start" x="8" y="-38" font-family="Helvetica,sans-Serif" font-size="10.00">+ velocity</text>
<polyline fill="none" stroke="black" points="0,-31 86,-31 "/>
<text text-anchor="start" x="8" y="-19" font-family="Helvetica,sans-Serif" font-size="10.00">+ update:</text>
<text text-anchor="start" x="8" y="-8" font-family="Helvetica,sans-Serif" font-size="10.00">+ initAtPosition:</text>
</g>
<!-- Node2 -->
<g id="node2" class="node"><title>Node2</title>
<polygon fill="white" stroke="#bfbfbf" points="4,-106.5 4,-163.5 82,-163.5 82,-106.5 4,-106.5"/>
<text text-anchor="middle" x="43" y="-151.5" font-family="Helvetica,sans-Serif" font-size="10.00">SKSpriteNode</text>
<polyline fill="none" stroke="#bfbfbf" points="4,-144.5 82,-144.5 "/>
<text text-anchor="middle" x="43" y="-132.5" font-family="Helvetica,sans-Serif" font-size="10.00"> </text>
<polyline fill="none" stroke="#bfbfbf" points="4,-125.5 82,-125.5 "/>
<text text-anchor="middle" x="43" y="-113.5" font-family="Helvetica,sans-Serif" font-size="10.00"> </text>
</g>
<!-- Node2&#45;&gt;Node1 -->
<g id="edge1" class="edge"><title>Node2&#45;&gt;Node1</title>
<path fill="none" stroke="midnightblue" d="M43,-96.3023C43,-87.3951 43,-77.9608 43,-69.2659"/>
<polygon fill="none" stroke="midnightblue" points="39.5001,-96.4407 43,-106.441 46.5001,-96.4408 39.5001,-96.4407"/>
</g>
</g>
</svg>
