<?xml version="1.0" encoding="UTF-8" standalone="no"?>
<!DOCTYPE svg PUBLIC "-//W3C//DTD SVG 1.1//EN"
 "http://www.w3.org/Graphics/SVG/1.1/DTD/svg11.dtd">
<!-- Generated by graphviz version 2.34.0 (20130907.0111)
 -->
<!-- Title: CollisionManager Pages: 1 -->
<svg width="233pt" height="172pt"
 viewBox="0.00 0.00 233.00 172.00" xmlns="http://www.w3.org/2000/svg" xmlns:xlink="http://www.w3.org/1999/xlink">
<g id="graph0" class="graph" transform="scale(1 1) rotate(0) translate(4 168)">
<title>CollisionManager</title>
<polygon fill="white" stroke="white" points="-4,4 -4,-168 229,-168 229,4 -4,4"/>
<!-- Node1 -->
<g id="node1" class="node"><title>Node1</title>
<polygon fill="#bfbfbf" stroke="black" points="44,-1 44,-69 136,-69 136,-1 44,-1"/>
<text text-anchor="middle" x="90" y="-57" font-family="Helvetica,sans-Serif" font-size="10.00">CollisionManager</text>
<polyline fill="none" stroke="black" points="44,-50 136,-50 "/>
<text text-anchor="start" x="52" y="-38" font-family="Helvetica,sans-Serif" font-size="10.00">+ enemyManager</text>
<text text-anchor="start" x="52" y="-27" font-family="Helvetica,sans-Serif" font-size="10.00">+ hudManager</text>
<polyline fill="none" stroke="black" points="44,-20 136,-20 "/>
<text text-anchor="start" x="52" y="-8" font-family="Helvetica,sans-Serif" font-size="10.00">+ initWithScene:</text>
</g>
<!-- Node2 -->
<g id="node2" class="node"><title>Node2</title>
<polygon fill="white" stroke="#bfbfbf" points="-0.5,-106.5 -0.5,-163.5 58.5,-163.5 58.5,-106.5 -0.5,-106.5"/>
<text text-anchor="middle" x="29" y="-151.5" font-family="Helvetica,sans-Serif" font-size="10.00">NSObject</text>
<polyline fill="none" stroke="#bfbfbf" points="-0.5,-144.5 58.5,-144.5 "/>
<text text-anchor="middle" x="29" y="-132.5" font-family="Helvetica,sans-Serif" font-size="10.00"> </text>
<polyline fill="none" stroke="#bfbfbf" points="-0.5,-125.5 58.5,-125.5 "/>
<text text-anchor="middle" x="29" y="-113.5" font-family="Helvetica,sans-Serif" font-size="10.00"> </text>
</g>
<!-- Node2&#45;&gt;Node1 -->
<g id="edge1" class="edge"><title>Node2&#45;&gt;Node1</title>
<path fill="none" stroke="midnightblue" d="M51.5639,-97.7497C57.3695,-88.4227 63.5874,-78.4333 69.2937,-69.2659"/>
<polygon fill="none" stroke="midnightblue" points="48.4673,-96.1015 46.1542,-106.441 54.4101,-99.8006 48.4673,-96.1015"/>
</g>
<!-- Node3 -->
<g id="node3" class="node"><title>Node3</title>
<polygon fill="white" stroke="#bfbfbf" points="76.5,-106.5 76.5,-163.5 225.5,-163.5 225.5,-106.5 76.5,-106.5"/>
<text text-anchor="middle" x="151" y="-151.5" font-family="Helvetica,sans-Serif" font-size="10.00">&lt;SKPhysicsContactDelegate&gt;</text>
<polyline fill="none" stroke="#bfbfbf" points="76.5,-144.5 225.5,-144.5 "/>
<text text-anchor="middle" x="151" y="-132.5" font-family="Helvetica,sans-Serif" font-size="10.00"> </text>
<polyline fill="none" stroke="#bfbfbf" points="76.5,-125.5 225.5,-125.5 "/>
<text text-anchor="middle" x="151" y="-113.5" font-family="Helvetica,sans-Serif" font-size="10.00"> </text>
</g>
<!-- Node3&#45;&gt;Node1 -->
<g id="edge2" class="edge"><title>Node3&#45;&gt;Node1</title>
<path fill="none" stroke="midnightblue" d="M128.436,-97.7497C122.63,-88.4227 116.413,-78.4333 110.706,-69.2659"/>
<polygon fill="none" stroke="midnightblue" points="125.59,-99.8006 133.846,-106.441 131.533,-96.1015 125.59,-99.8006"/>
</g>
</g>
</svg>
