<?xml version="1.0" encoding="UTF-8" standalone="no"?>
<!DOCTYPE svg PUBLIC "-//W3C//DTD SVG 1.1//EN"
 "http://www.w3.org/Graphics/SVG/1.1/DTD/svg11.dtd">
<!-- Generated by graphviz version 2.34.0 (20130907.0111)
 -->
<!-- Title: Player Pages: 1 -->
<svg width="346pt" height="160pt"
 viewBox="0.00 0.00 346.00 160.00" xmlns="http://www.w3.org/2000/svg" xmlns:xlink="http://www.w3.org/1999/xlink">
<g id="graph0" class="graph" transform="scale(1 1) rotate(0) translate(4 156)">
<title>Player</title>
<polygon fill="white" stroke="white" points="-4,4 -4,-156 342,-156 342,4 -4,4"/>
<!-- Node1 -->
<g id="node1" class="node"><title>Node1</title>
<polygon fill="#bfbfbf" stroke="black" points="72.5,-1 72.5,-21 121.5,-21 121.5,-1 72.5,-1"/>
<text text-anchor="middle" x="97" y="-8.2" font-family="Segoe UI Semibold" font-size="11.00">Player</text>
</g>
<!-- Node2 -->
<g id="node2" class="node"><title>Node2</title>
<polygon fill="white" stroke="#bfbfbf" points="-0.5,-131 -0.5,-151 88.5,-151 88.5,-131 -0.5,-131"/>
<text text-anchor="middle" x="44" y="-138.2" font-family="Segoe UI Semibold" font-size="11.00">SKSpriteNode</text>
</g>
<!-- Node2&#45;&gt;Node1 -->
<g id="edge1" class="edge"><title>Node2&#45;&gt;Node1</title>
<path fill="none" stroke="midnightblue" d="M37.2954,-121.136C33.25,-106.604 30.083,-86.3069 37,-70 46.1086,-48.5264 67.4917,-31.1222 82.1076,-21.1622"/>
<polygon fill="midnightblue" stroke="midnightblue" points="34.0518,-122.487 40.4076,-130.964 40.7252,-120.374 34.0518,-122.487"/>
</g>
<!-- Node4 -->
<g id="node4" class="node"><title>Node4</title>
<g id="a_node4"><a xlink:href="interface_player_controller.html" target="_top" xlink:title="Visual joystick which controls the player. ">
<polygon fill="white" stroke="black" points="46.5,-71 46.5,-91 147.5,-91 147.5,-71 46.5,-71"/>
<text text-anchor="middle" x="97" y="-78.2" font-family="Segoe UI Semibold" font-size="11.00">PlayerController</text>
</a>
</g>
</g>
<!-- Node2&#45;&gt;Node4 -->
<g id="edge4" class="edge"><title>Node2&#45;&gt;Node4</title>
<path fill="none" stroke="midnightblue" d="M59.2998,-123.257C68.8389,-112.818 80.7508,-99.7822 88.602,-91.1903"/>
<polygon fill="midnightblue" stroke="midnightblue" points="56.4432,-121.194 52.2813,-130.938 61.6107,-125.916 56.4432,-121.194"/>
</g>
<!-- Node3 -->
<g id="node3" class="node"><title>Node3</title>
<polygon fill="white" stroke="#bfbfbf" points="166,-71 166,-91 338,-91 338,-71 166,-71"/>
<text text-anchor="middle" x="252" y="-78.2" font-family="Segoe UI Semibold" font-size="11.00">&lt;SKPhysicsContactDelegate&gt;</text>
</g>
<!-- Node3&#45;&gt;Node1 -->
<g id="edge2" class="edge"><title>Node3&#45;&gt;Node1</title>
<path fill="none" stroke="midnightblue" d="M231.662,-65.0944C219.697,-56.8437 204.011,-46.8947 189,-40 167.153,-29.9653 140.774,-22.3602 121.875,-17.6265"/>
<polygon fill="midnightblue" stroke="midnightblue" points="229.826,-68.0829 240.013,-70.9939 233.865,-62.3655 229.826,-68.0829"/>
</g>
<!-- Node4&#45;&gt;Node1 -->
<g id="edge3" class="edge"><title>Node4&#45;&gt;Node1</title>
<path fill="none" stroke="#9a32cd" stroke-dasharray="5,2" d="M97,-60.5567C97,-47.557 97,-31.0574 97,-21.0255"/>
<polygon fill="#9a32cd" stroke="#9a32cd" points="93.5001,-60.8292 97,-70.8292 100.5,-60.8293 93.5001,-60.8292"/>
<text text-anchor="middle" x="141" y="-43.2" font-family="Segoe UI Semibold" font-size="11.00"> playerController</text>
</g>
</g>
</svg>
