<?xml version="1.0" encoding="UTF-8" standalone="no"?>
<!DOCTYPE svg PUBLIC "-//W3C//DTD SVG 1.1//EN"
 "http://www.w3.org/Graphics/SVG/1.1/DTD/svg11.dtd">
<!-- Generated by graphviz version 2.34.0 (20130907.0111)
 -->
<!-- Title: ViewController Pages: 1 -->
<svg width="96pt" height="160pt"
 viewBox="0.00 0.00 96.00 160.00" xmlns="http://www.w3.org/2000/svg" xmlns:xlink="http://www.w3.org/1999/xlink">
<g id="graph0" class="graph" transform="scale(1 1) rotate(0) translate(4 156)">
<title>ViewController</title>
<polygon fill="white" stroke="white" points="-4,4 -4,-156 92,-156 92,4 -4,4"/>
<!-- Node1 -->
<g id="node1" class="node"><title>Node1</title>
<polygon fill="#bfbfbf" stroke="black" points="4.5,-0.5 4.5,-57.5 83.5,-57.5 83.5,-0.5 4.5,-0.5"/>
<text text-anchor="middle" x="44" y="-45.5" font-family="Helvetica,sans-Serif" font-size="10.00">ViewController</text>
<polyline fill="none" stroke="black" points="4.5,-38.5 83.5,-38.5 "/>
<text text-anchor="middle" x="44" y="-26.5" font-family="Helvetica,sans-Serif" font-size="10.00"> </text>
<polyline fill="none" stroke="black" points="4.5,-19.5 83.5,-19.5 "/>
<text text-anchor="middle" x="44" y="-7.5" font-family="Helvetica,sans-Serif" font-size="10.00"> </text>
</g>
<!-- Node2 -->
<g id="node2" class="node"><title>Node2</title>
<polygon fill="white" stroke="#bfbfbf" points="0,-94.5 0,-151.5 88,-151.5 88,-94.5 0,-94.5"/>
<text text-anchor="middle" x="44" y="-139.5" font-family="Helvetica,sans-Serif" font-size="10.00">UIViewController</text>
<polyline fill="none" stroke="#bfbfbf" points="0,-132.5 88,-132.5 "/>
<text text-anchor="middle" x="44" y="-120.5" font-family="Helvetica,sans-Serif" font-size="10.00"> </text>
<polyline fill="none" stroke="#bfbfbf" points="0,-113.5 88,-113.5 "/>
<text text-anchor="middle" x="44" y="-101.5" font-family="Helvetica,sans-Serif" font-size="10.00"> </text>
</g>
<!-- Node2&#45;&gt;Node1 -->
<g id="edge1" class="edge"><title>Node2&#45;&gt;Node1</title>
<path fill="none" stroke="midnightblue" d="M44,-84.2092C44,-75.2929 44,-65.9513 44,-57.5836"/>
<polygon fill="none" stroke="midnightblue" points="40.5001,-84.3969 44,-94.397 47.5001,-84.397 40.5001,-84.3969"/>
</g>
</g>
</svg>
