<?xml version="1.0" encoding="UTF-8" standalone="no"?>
<!DOCTYPE svg PUBLIC "-//W3C//DTD SVG 1.1//EN"
 "http://www.w3.org/Graphics/SVG/1.1/DTD/svg11.dtd">
<!-- Generated by graphviz version 2.34.0 (20130907.0111)
 -->
<!-- Title: HUDManager Pages: 1 -->
<svg width="96pt" height="172pt"
 viewBox="0.00 0.00 96.00 172.00" xmlns="http://www.w3.org/2000/svg" xmlns:xlink="http://www.w3.org/1999/xlink">
<g id="graph0" class="graph" transform="scale(1 1) rotate(0) translate(4 168)">
<title>HUDManager</title>
<polygon fill="white" stroke="white" points="-4,4 -4,-168 92,-168 92,4 -4,4"/>
<!-- Node1 -->
<g id="node1" class="node"><title>Node1</title>
<polygon fill="#bfbfbf" stroke="black" points="-0.5,-1 -0.5,-69 88.5,-69 88.5,-1 -0.5,-1"/>
<text text-anchor="middle" x="44" y="-57" font-family="Helvetica,sans-Serif" font-size="10.00">HUDManager</text>
<polyline fill="none" stroke="black" points="-0.5,-50 88.5,-50 "/>
<text text-anchor="start" x="7.5" y="-38" font-family="Helvetica,sans-Serif" font-size="10.00">+ players</text>
<polyline fill="none" stroke="black" points="-0.5,-31 88.5,-31 "/>
<text text-anchor="start" x="7.5" y="-19" font-family="Helvetica,sans-Serif" font-size="10.00">+ initWithScene:</text>
<text text-anchor="start" x="7.5" y="-8" font-family="Helvetica,sans-Serif" font-size="10.00">+ update</text>
</g>
<!-- Node2 -->
<g id="node2" class="node"><title>Node2</title>
<polygon fill="white" stroke="#bfbfbf" points="14.5,-106.5 14.5,-163.5 73.5,-163.5 73.5,-106.5 14.5,-106.5"/>
<text text-anchor="middle" x="44" y="-151.5" font-family="Helvetica,sans-Serif" font-size="10.00">NSObject</text>
<polyline fill="none" stroke="#bfbfbf" points="14.5,-144.5 73.5,-144.5 "/>
<text text-anchor="middle" x="44" y="-132.5" font-family="Helvetica,sans-Serif" font-size="10.00"> </text>
<polyline fill="none" stroke="#bfbfbf" points="14.5,-125.5 73.5,-125.5 "/>
<text text-anchor="middle" x="44" y="-113.5" font-family="Helvetica,sans-Serif" font-size="10.00"> </text>
</g>
<!-- Node2&#45;&gt;Node1 -->
<g id="edge1" class="edge"><title>Node2&#45;&gt;Node1</title>
<path fill="none" stroke="midnightblue" d="M44,-96.3023C44,-87.3951 44,-77.9608 44,-69.2659"/>
<polygon fill="none" stroke="midnightblue" points="40.5001,-96.4407 44,-106.441 47.5001,-96.4408 40.5001,-96.4407"/>
</g>
</g>
</svg>
