<?xml version="1.0" encoding="UTF-8" standalone="no"?>
<!DOCTYPE svg PUBLIC "-//W3C//DTD SVG 1.1//EN"
 "http://www.w3.org/Graphics/SVG/1.1/DTD/svg11.dtd">
<!-- Generated by graphviz version 2.34.0 (20130907.0111)
 -->
<!-- Title: CollisionManager Pages: 1 -->
<svg width="415pt" height="160pt"
 viewBox="0.00 0.00 414.92 160.00" xmlns="http://www.w3.org/2000/svg" xmlns:xlink="http://www.w3.org/1999/xlink">
<g id="graph0" class="graph" transform="scale(1 1) rotate(0) translate(4 156)">
<title>CollisionManager</title>
<polygon fill="white" stroke="white" points="-4,4 -4,-156 410.924,-156 410.924,4 -4,4"/>
<!-- Node1 -->
<g id="node1" class="node"><title>Node1</title>
<polygon fill="#bfbfbf" stroke="black" points="58.4238,-1 58.4238,-21 165.424,-21 165.424,-1 58.4238,-1"/>
<text text-anchor="middle" x="111.924" y="-8.2" font-family="Segoe UI Semibold" font-size="11.00">CollisionManager</text>
</g>
<!-- Node2 -->
<g id="node2" class="node"><title>Node2</title>
<polygon fill="white" stroke="#bfbfbf" points="24.4238,-131 24.4238,-151 89.4238,-151 89.4238,-131 24.4238,-131"/>
<text text-anchor="middle" x="56.9238" y="-138.2" font-family="Segoe UI Semibold" font-size="11.00">NSObject</text>
</g>
<!-- Node2&#45;&gt;Node1 -->
<g id="edge1" class="edge"><title>Node2&#45;&gt;Node1</title>
<path fill="none" stroke="midnightblue" d="M32.7827,-125.208C13.6032,-111.485 -8.15289,-90.1936 3.92379,-70 19.3261,-44.2456 50.5247,-29.2664 75.4465,-21.0057"/>
<polygon fill="midnightblue" stroke="midnightblue" points="31.0371,-128.253 41.2829,-130.95 34.9554,-122.452 31.0371,-128.253"/>
</g>
<!-- Node4 -->
<g id="node4" class="node"><title>Node4</title>
<g id="a_node4"><a xlink:href="interface_h_u_d_manager.html" target="_top" xlink:title="Displays information for the player. ">
<polygon fill="white" stroke="black" points="12.9238,-71 12.9238,-91 100.924,-91 100.924,-71 12.9238,-71"/>
<text text-anchor="middle" x="56.9238" y="-78.2" font-family="Segoe UI Semibold" font-size="11.00">HUDManager</text>
</a>
</g>
</g>
<!-- Node2&#45;&gt;Node4 -->
<g id="edge4" class="edge"><title>Node2&#45;&gt;Node4</title>
<path fill="none" stroke="midnightblue" d="M56.9238,-120.731C56.9238,-110.781 56.9238,-99.1016 56.9238,-91.1903"/>
<polygon fill="midnightblue" stroke="midnightblue" points="53.4239,-120.937 56.9238,-130.938 60.4239,-120.938 53.4239,-120.937"/>
</g>
<!-- Node5 -->
<g id="node5" class="node"><title>Node5</title>
<g id="a_node5"><a xlink:href="interface_enemy_manager.html" target="_top" xlink:title="Responsible for handling all enemies. ">
<polygon fill="white" stroke="black" points="118.924,-71 118.924,-91 216.924,-91 216.924,-71 118.924,-71"/>
<text text-anchor="middle" x="167.924" y="-78.2" font-family="Segoe UI Semibold" font-size="11.00">EnemyManager</text>
</a>
</g>
</g>
<!-- Node2&#45;&gt;Node5 -->
<g id="edge6" class="edge"><title>Node2&#45;&gt;Node5</title>
<path fill="none" stroke="midnightblue" d="M83.1919,-126.274C103.921,-115.443 132.264,-100.633 150.336,-91.1903"/>
<polygon fill="midnightblue" stroke="midnightblue" points="81.5096,-123.204 74.2675,-130.938 84.7515,-129.408 81.5096,-123.204"/>
</g>
<!-- Node3 -->
<g id="node3" class="node"><title>Node3</title>
<polygon fill="white" stroke="#bfbfbf" points="234.924,-71 234.924,-91 406.924,-91 406.924,-71 234.924,-71"/>
<text text-anchor="middle" x="320.924" y="-78.2" font-family="Segoe UI Semibold" font-size="11.00">&lt;SKPhysicsContactDelegate&gt;</text>
</g>
<!-- Node3&#45;&gt;Node1 -->
<g id="edge2" class="edge"><title>Node3&#45;&gt;Node1</title>
<path fill="none" stroke="midnightblue" d="M296.047,-66.1433C279.885,-57.6148 258.137,-47.0111 237.924,-40 214.635,-31.9222 188.097,-25.6165 165.401,-21.0515"/>
<polygon fill="midnightblue" stroke="midnightblue" points="294.398,-69.2305 304.863,-70.8821 297.712,-63.0647 294.398,-69.2305"/>
</g>
<!-- Node4&#45;&gt;Node1 -->
<g id="edge3" class="edge"><title>Node4&#45;&gt;Node1</title>
<path fill="none" stroke="#9a32cd" stroke-dasharray="5,2" d="M60.8886,-61.0503C63.0279,-53.9497 66.2265,-46.126 70.9238,-40 76.9029,-32.2022 85.6873,-25.7968 93.5929,-21.09"/>
<polygon fill="#9a32cd" stroke="#9a32cd" points="57.4416,-60.4066 58.3981,-70.9582 64.2304,-62.1131 57.4416,-60.4066"/>
<text text-anchor="middle" x="105.924" y="-43.2" font-family="Segoe UI Semibold" font-size="11.00"> hudManager</text>
</g>
<!-- Node5&#45;&gt;Node1 -->
<g id="edge5" class="edge"><title>Node5&#45;&gt;Node1</title>
<path fill="none" stroke="#9a32cd" stroke-dasharray="5,2" d="M156.843,-61.8755C152.231,-54.8102 146.627,-46.7941 140.924,-40 135.254,-33.2462 128.14,-26.3577 122.377,-21.1032"/>
<polygon fill="#9a32cd" stroke="#9a32cd" points="154.13,-64.134 162.431,-70.7165 160.046,-60.3936 154.13,-64.134"/>
<text text-anchor="middle" x="191.424" y="-43.2" font-family="Segoe UI Semibold" font-size="11.00"> enemyManager</text>
</g>
</g>
</svg>
