<?xml version="1.0" encoding="UTF-8" standalone="no"?>
<!DOCTYPE svg PUBLIC "-//W3C//DTD SVG 1.1//EN"
 "http://www.w3.org/Graphics/SVG/1.1/DTD/svg11.dtd">
<!-- Generated by graphviz version 2.34.0 (20130907.0111)
 -->
<!-- Title: Enemy Pages: 1 -->
<svg width="66pt" height="160pt"
 viewBox="0.00 0.00 66.00 160.00" xmlns="http://www.w3.org/2000/svg" xmlns:xlink="http://www.w3.org/1999/xlink">
<g id="graph0" class="graph" transform="scale(1 1) rotate(0) translate(4 156)">
<title>Enemy</title>
<polygon fill="white" stroke="white" points="-4,4 -4,-156 62,-156 62,4 -4,4"/>
<!-- Node1 -->
<g id="node1" class="node"><title>Node1</title>
<polygon fill="#bfbfbf" stroke="black" points="5.5,-0.5 5.5,-57.5 52.5,-57.5 52.5,-0.5 5.5,-0.5"/>
<text text-anchor="middle" x="29" y="-45.5" font-family="Helvetica,sans-Serif" font-size="10.00">Enemy</text>
<polyline fill="none" stroke="black" points="5.5,-38.5 52.5,-38.5 "/>
<text text-anchor="middle" x="29" y="-26.5" font-family="Helvetica,sans-Serif" font-size="10.00"> </text>
<polyline fill="none" stroke="black" points="5.5,-19.5 52.5,-19.5 "/>
<text text-anchor="middle" x="29" y="-7.5" font-family="Helvetica,sans-Serif" font-size="10.00"> </text>
</g>
<!-- Node2 -->
<g id="node2" class="node"><title>Node2</title>
<polygon fill="white" stroke="#bfbfbf" points="-0.5,-94.5 -0.5,-151.5 58.5,-151.5 58.5,-94.5 -0.5,-94.5"/>
<text text-anchor="middle" x="29" y="-139.5" font-family="Helvetica,sans-Serif" font-size="10.00">NSObject</text>
<polyline fill="none" stroke="#bfbfbf" points="-0.5,-132.5 58.5,-132.5 "/>
<text text-anchor="middle" x="29" y="-120.5" font-family="Helvetica,sans-Serif" font-size="10.00"> </text>
<polyline fill="none" stroke="#bfbfbf" points="-0.5,-113.5 58.5,-113.5 "/>
<text text-anchor="middle" x="29" y="-101.5" font-family="Helvetica,sans-Serif" font-size="10.00"> </text>
</g>
<!-- Node2&#45;&gt;Node1 -->
<g id="edge1" class="edge"><title>Node2&#45;&gt;Node1</title>
<path fill="none" stroke="midnightblue" d="M29,-84.2092C29,-75.2929 29,-65.9513 29,-57.5836"/>
<polygon fill="none" stroke="midnightblue" points="25.5001,-84.3969 29,-94.397 32.5001,-84.397 25.5001,-84.3969"/>
</g>
</g>
</svg>
