<?xml version="1.0" encoding="UTF-8" standalone="no"?>
<!DOCTYPE svg PUBLIC "-//W3C//DTD SVG 1.1//EN"
 "http://www.w3.org/Graphics/SVG/1.1/DTD/svg11.dtd">
<!-- Generated by graphviz version 2.34.0 (20130907.0111)
 -->
<!-- Title: CollisionManager Pages: 1 -->
<svg width="411pt" height="302pt"
 viewBox="0.00 0.00 410.64 302.00" xmlns="http://www.w3.org/2000/svg" xmlns:xlink="http://www.w3.org/1999/xlink">
<g id="graph0" class="graph" transform="scale(1 1) rotate(0) translate(4 298)">
<title>CollisionManager</title>
<polygon fill="white" stroke="white" points="-4,4 -4,-298 406.639,-298 406.639,4 -4,4"/>
<!-- Node1 -->
<g id="node1" class="node"><title>Node1</title>
<polygon fill="#bfbfbf" stroke="black" points="78.139,-0.5 78.139,-57.5 169.139,-57.5 169.139,-0.5 78.139,-0.5"/>
<text text-anchor="middle" x="123.639" y="-45.5" font-family="Helvetica,sans-Serif" font-size="10.00">CollisionManager</text>
<polyline fill="none" stroke="black" points="78.139,-38.5 169.139,-38.5 "/>
<text text-anchor="middle" x="123.639" y="-26.5" font-family="Helvetica,sans-Serif" font-size="10.00"> </text>
<polyline fill="none" stroke="black" points="78.139,-19.5 169.139,-19.5 "/>
<text text-anchor="start" x="86.139" y="-7.5" font-family="Helvetica,sans-Serif" font-size="10.00">+ initWithScene:</text>
</g>
<!-- Node2 -->
<g id="node2" class="node"><title>Node2</title>
<polygon fill="white" stroke="#bfbfbf" points="37.139,-236.5 37.139,-293.5 96.139,-293.5 96.139,-236.5 37.139,-236.5"/>
<text text-anchor="middle" x="66.639" y="-281.5" font-family="Helvetica,sans-Serif" font-size="10.00">NSObject</text>
<polyline fill="none" stroke="#bfbfbf" points="37.139,-274.5 96.139,-274.5 "/>
<text text-anchor="middle" x="66.639" y="-262.5" font-family="Helvetica,sans-Serif" font-size="10.00"> </text>
<polyline fill="none" stroke="#bfbfbf" points="37.139,-255.5 96.139,-255.5 "/>
<text text-anchor="middle" x="66.639" y="-243.5" font-family="Helvetica,sans-Serif" font-size="10.00"> </text>
</g>
<!-- Node2&#45;&gt;Node1 -->
<g id="edge1" class="edge"><title>Node2&#45;&gt;Node1</title>
<path fill="none" stroke="midnightblue" d="M30.501,-228.735C23.2002,-219.488 16.5656,-209 12.639,-198 -1.10728,-159.491 -6.43138,-142.169 12.639,-106 26.4727,-79.7627 53.8989,-60.8534 78.0267,-48.4586"/>
<polygon fill="none" stroke="midnightblue" points="27.9277,-231.113 37.0371,-236.523 33.2898,-226.613 27.9277,-231.113"/>
</g>
<!-- Node4 -->
<g id="node4" class="node"><title>Node4</title>
<g id="a_node4"><a xlink:href="interface_h_u_d_manager.html" target="_top" xlink:title="Displays information for the player. ">
<polygon fill="white" stroke="black" points="22.139,-118 22.139,-186 111.139,-186 111.139,-118 22.139,-118"/>
<text text-anchor="middle" x="66.639" y="-174" font-family="Helvetica,sans-Serif" font-size="10.00">HUDManager</text>
<polyline fill="none" stroke="black" points="22.139,-167 111.139,-167 "/>
<text text-anchor="start" x="30.139" y="-155" font-family="Helvetica,sans-Serif" font-size="10.00">+ players</text>
<polyline fill="none" stroke="black" points="22.139,-148 111.139,-148 "/>
<text text-anchor="start" x="30.139" y="-136" font-family="Helvetica,sans-Serif" font-size="10.00">+ initWithScene:</text>
<text text-anchor="start" x="30.139" y="-125" font-family="Helvetica,sans-Serif" font-size="10.00">+ update</text>
</a>
</g>
</g>
<!-- Node2&#45;&gt;Node4 -->
<g id="edge4" class="edge"><title>Node2&#45;&gt;Node4</title>
<path fill="none" stroke="midnightblue" d="M66.639,-226.252C66.639,-213.288 66.639,-198.881 66.639,-186.297"/>
<polygon fill="none" stroke="midnightblue" points="63.1391,-226.276 66.639,-236.276 70.1391,-226.276 63.1391,-226.276"/>
</g>
<!-- Node5 -->
<g id="node5" class="node"><title>Node5</title>
<g id="a_node5"><a xlink:href="interface_enemy_manager.html" target="_top" xlink:title="Responsible for handling all enemies. ">
<polygon fill="white" stroke="black" points="129.639,-107 129.639,-197 235.639,-197 235.639,-107 129.639,-107"/>
<text text-anchor="middle" x="182.639" y="-185" font-family="Helvetica,sans-Serif" font-size="10.00">EnemyManager</text>
<polyline fill="none" stroke="black" points="129.639,-178 235.639,-178 "/>
<text text-anchor="middle" x="182.639" y="-166" font-family="Helvetica,sans-Serif" font-size="10.00"> </text>
<polyline fill="none" stroke="black" points="129.639,-159 235.639,-159 "/>
<text text-anchor="start" x="137.639" y="-147" font-family="Helvetica,sans-Serif" font-size="10.00">+ initWithScene:</text>
<text text-anchor="start" x="137.639" y="-136" font-family="Helvetica,sans-Serif" font-size="10.00">+ update:</text>
<text text-anchor="start" x="137.639" y="-125" font-family="Helvetica,sans-Serif" font-size="10.00">+ createEnemy</text>
<text text-anchor="start" x="137.639" y="-114" font-family="Helvetica,sans-Serif" font-size="10.00">+ removeAllEnemies</text>
</a>
</g>
</g>
<!-- Node2&#45;&gt;Node5 -->
<g id="edge6" class="edge"><title>Node2&#45;&gt;Node5</title>
<path fill="none" stroke="midnightblue" d="M103.092,-229.118C113.671,-218.996 125.363,-207.807 136.454,-197.194"/>
<polygon fill="none" stroke="midnightblue" points="100.417,-226.834 95.6115,-236.276 105.256,-231.891 100.417,-226.834"/>
</g>
<!-- Node3 -->
<g id="node3" class="node"><title>Node3</title>
<polygon fill="white" stroke="#bfbfbf" points="254.139,-123.5 254.139,-180.5 403.139,-180.5 403.139,-123.5 254.139,-123.5"/>
<text text-anchor="middle" x="328.639" y="-168.5" font-family="Helvetica,sans-Serif" font-size="10.00">&lt;SKPhysicsContactDelegate&gt;</text>
<polyline fill="none" stroke="#bfbfbf" points="254.139,-161.5 403.139,-161.5 "/>
<text text-anchor="middle" x="328.639" y="-149.5" font-family="Helvetica,sans-Serif" font-size="10.00"> </text>
<polyline fill="none" stroke="#bfbfbf" points="254.139,-142.5 403.139,-142.5 "/>
<text text-anchor="middle" x="328.639" y="-130.5" font-family="Helvetica,sans-Serif" font-size="10.00"> </text>
</g>
<!-- Node3&#45;&gt;Node1 -->
<g id="edge2" class="edge"><title>Node3&#45;&gt;Node1</title>
<path fill="none" stroke="midnightblue" d="M292.961,-116.822C277.175,-102.916 257.856,-87.4572 238.639,-76 216.937,-63.0612 190.93,-52.3092 169.142,-44.4623"/>
<polygon fill="none" stroke="midnightblue" points="290.628,-119.431 300.41,-123.499 295.3,-114.218 290.628,-119.431"/>
</g>
<!-- Node4&#45;&gt;Node1 -->
<g id="edge3" class="edge"><title>Node4&#45;&gt;Node1</title>
<path fill="none" stroke="#404040" d="M74.1721,-117.951C77.8882,-104.534 83.0165,-89.1337 89.639,-76 91.0083,-73.2844 92.5366,-70.5602 94.1662,-67.8684"/>
<polygon fill="none" stroke="#404040" points="94.2381,-67.759 94.1929,-60.548 100.832,-57.7328 100.877,-64.9438 94.2381,-67.759"/>
<text text-anchor="middle" x="121.139" y="-79.5" font-family="Helvetica,sans-Serif" font-size="10.00"> +hudManager</text>
</g>
<!-- Node5&#45;&gt;Node1 -->
<g id="edge5" class="edge"><title>Node5&#45;&gt;Node1</title>
<path fill="none" stroke="#404040" d="M166.503,-106.779C162.333,-96.5143 157.608,-85.7451 152.639,-76 151.336,-73.4453 149.935,-70.8492 148.476,-68.2576"/>
<polygon fill="none" stroke="#404040" points="148.369,-68.0761 141.872,-64.9463 142.263,-57.7457 148.759,-60.8756 148.369,-68.0761"/>
<text text-anchor="middle" x="196.639" y="-79.5" font-family="Helvetica,sans-Serif" font-size="10.00"> +enemyManager</text>
</g>
</g>
</svg>
