<?xml version="1.0" encoding="UTF-8" standalone="no"?>
<!DOCTYPE svg PUBLIC "-//W3C//DTD SVG 1.1//EN"
 "http://www.w3.org/Graphics/SVG/1.1/DTD/svg11.dtd">
<!-- Generated by graphviz version 2.34.0 (20130907.0111)
 -->
<!-- Title: AppDelegate Pages: 1 -->
<svg width="263pt" height="88pt"
 viewBox="0.00 0.00 263.00 88.00" xmlns="http://www.w3.org/2000/svg" xmlns:xlink="http://www.w3.org/1999/xlink">
<g id="graph0" class="graph" transform="scale(1 1) rotate(0) translate(4 84)">
<title>AppDelegate</title>
<polygon fill="white" stroke="white" points="-4,4 -4,-84 259,-84 259,4 -4,4"/>
<!-- Node1 -->
<g id="node1" class="node"><title>Node1</title>
<polygon fill="#bfbfbf" stroke="black" points="67.5,-1 67.5,-21 152.5,-21 152.5,-1 67.5,-1"/>
<text text-anchor="middle" x="110" y="-8.2" font-family="Segoe UI Semibold" font-size="11.00">AppDelegate</text>
</g>
<!-- Node2 -->
<g id="node2" class="node"><title>Node2</title>
<polygon fill="white" stroke="#bfbfbf" points="-0.5,-59 -0.5,-79 84.5,-79 84.5,-59 -0.5,-59"/>
<text text-anchor="middle" x="42" y="-66.2" font-family="Segoe UI Semibold" font-size="11.00">UIResponder</text>
</g>
<!-- Node2&#45;&gt;Node1 -->
<g id="edge1" class="edge"><title>Node2&#45;&gt;Node1</title>
<path fill="none" stroke="midnightblue" d="M61.0789,-52.288C73.309,-42.2161 88.7523,-29.4981 98.9801,-21.0752"/>
<polygon fill="midnightblue" stroke="midnightblue" points="58.7232,-49.6939 53.2288,-58.7527 63.1731,-55.0974 58.7232,-49.6939"/>
</g>
<!-- Node3 -->
<g id="node3" class="node"><title>Node3</title>
<polygon fill="white" stroke="#bfbfbf" points="103,-59 103,-79 255,-79 255,-59 103,-59"/>
<text text-anchor="middle" x="179" y="-66.2" font-family="Segoe UI Semibold" font-size="11.00">&lt;UIApplicationDelegate&gt;</text>
</g>
<!-- Node3&#45;&gt;Node1 -->
<g id="edge2" class="edge"><title>Node3&#45;&gt;Node1</title>
<path fill="none" stroke="midnightblue" d="M159.641,-52.288C147.231,-42.2161 131.56,-29.4981 121.182,-21.0752"/>
<polygon fill="midnightblue" stroke="midnightblue" points="157.636,-55.1686 167.606,-58.7527 162.047,-49.7334 157.636,-55.1686"/>
</g>
</g>
</svg>
