<?xml version="1.0" encoding="UTF-8" standalone="no"?>
<!DOCTYPE svg PUBLIC "-//W3C//DTD SVG 1.1//EN"
 "http://www.w3.org/Graphics/SVG/1.1/DTD/svg11.dtd">
<!-- Generated by graphviz version 2.34.0 (20130907.0111)
 -->
<!-- Title: CollisionManager Pages: 1 -->
<svg width="263pt" height="88pt"
 viewBox="0.00 0.00 263.00 88.00" xmlns="http://www.w3.org/2000/svg" xmlns:xlink="http://www.w3.org/1999/xlink">
<g id="graph0" class="graph" transform="scale(1 1) rotate(0) translate(4 84)">
<title>CollisionManager</title>
<polygon fill="white" stroke="white" points="-4,4 -4,-84 259,-84 259,4 -4,4"/>
<!-- Node1 -->
<g id="node1" class="node"><title>Node1</title>
<polygon fill="#bfbfbf" stroke="black" points="46.5,-1 46.5,-21 153.5,-21 153.5,-1 46.5,-1"/>
<text text-anchor="middle" x="100" y="-8.2" font-family="Segoe UI Semibold" font-size="11.00">CollisionManager</text>
</g>
<!-- Node2 -->
<g id="node2" class="node"><title>Node2</title>
<polygon fill="white" stroke="#bfbfbf" points="-0.5,-59 -0.5,-79 64.5,-79 64.5,-59 -0.5,-59"/>
<text text-anchor="middle" x="32" y="-66.2" font-family="Segoe UI Semibold" font-size="11.00">NSObject</text>
</g>
<!-- Node2&#45;&gt;Node1 -->
<g id="edge1" class="edge"><title>Node2&#45;&gt;Node1</title>
<path fill="none" stroke="midnightblue" d="M51.0789,-52.288C63.309,-42.2161 78.7523,-29.4981 88.9801,-21.0752"/>
<polygon fill="midnightblue" stroke="midnightblue" points="48.7232,-49.6939 43.2288,-58.7527 53.1731,-55.0974 48.7232,-49.6939"/>
</g>
<!-- Node3 -->
<g id="node3" class="node"><title>Node3</title>
<polygon fill="white" stroke="#bfbfbf" points="83,-59 83,-79 255,-79 255,-59 83,-59"/>
<text text-anchor="middle" x="169" y="-66.2" font-family="Segoe UI Semibold" font-size="11.00">&lt;SKPhysicsContactDelegate&gt;</text>
</g>
<!-- Node3&#45;&gt;Node1 -->
<g id="edge2" class="edge"><title>Node3&#45;&gt;Node1</title>
<path fill="none" stroke="midnightblue" d="M149.641,-52.288C137.231,-42.2161 121.56,-29.4981 111.182,-21.0752"/>
<polygon fill="midnightblue" stroke="midnightblue" points="147.636,-55.1686 157.606,-58.7527 152.047,-49.7334 147.636,-55.1686"/>
</g>
</g>
</svg>
