<?xml version="1.0" encoding="UTF-8" standalone="no"?>
<!DOCTYPE svg PUBLIC "-//W3C//DTD SVG 1.1//EN"
 "http://www.w3.org/Graphics/SVG/1.1/DTD/svg11.dtd">
<!-- Generated by graphviz version 2.34.0 (20130907.0111)
 -->
<!-- Title: PlayerController Pages: 1 -->
<svg width="142pt" height="194pt"
 viewBox="0.00 0.00 142.00 194.00" xmlns="http://www.w3.org/2000/svg" xmlns:xlink="http://www.w3.org/1999/xlink">
<g id="graph0" class="graph" transform="scale(1 1) rotate(0) translate(4 190)">
<title>PlayerController</title>
<polygon fill="white" stroke="white" points="-4,4 -4,-190 138,-190 138,4 -4,4"/>
<!-- Node1 -->
<g id="node1" class="node"><title>Node1</title>
<polygon fill="#bfbfbf" stroke="black" points="-0.5,-1 -0.5,-91 134.5,-91 134.5,-1 -0.5,-1"/>
<text text-anchor="middle" x="67" y="-79" font-family="Helvetica,sans-Serif" font-size="10.00">PlayerController</text>
<polyline fill="none" stroke="black" points="-0.5,-72 134.5,-72 "/>
<text text-anchor="middle" x="67" y="-60" font-family="Helvetica,sans-Serif" font-size="10.00"> </text>
<polyline fill="none" stroke="black" points="-0.5,-53 134.5,-53 "/>
<text text-anchor="start" x="7.5" y="-41" font-family="Helvetica,sans-Serif" font-size="10.00">+ touchesBegan:withEvent:</text>
<text text-anchor="start" x="7.5" y="-30" font-family="Helvetica,sans-Serif" font-size="10.00">+ touchesMoved:withEvent:</text>
<text text-anchor="start" x="7.5" y="-19" font-family="Helvetica,sans-Serif" font-size="10.00">+ touchesEnded:withEvent:</text>
<text text-anchor="start" x="7.5" y="-8" font-family="Helvetica,sans-Serif" font-size="10.00">+ getJoystickVelocity</text>
</g>
<!-- Node2 -->
<g id="node2" class="node"><title>Node2</title>
<polygon fill="white" stroke="#bfbfbf" points="28,-128.5 28,-185.5 106,-185.5 106,-128.5 28,-128.5"/>
<text text-anchor="middle" x="67" y="-173.5" font-family="Helvetica,sans-Serif" font-size="10.00">SKSpriteNode</text>
<polyline fill="none" stroke="#bfbfbf" points="28,-166.5 106,-166.5 "/>
<text text-anchor="middle" x="67" y="-154.5" font-family="Helvetica,sans-Serif" font-size="10.00"> </text>
<polyline fill="none" stroke="#bfbfbf" points="28,-147.5 106,-147.5 "/>
<text text-anchor="middle" x="67" y="-135.5" font-family="Helvetica,sans-Serif" font-size="10.00"> </text>
</g>
<!-- Node2&#45;&gt;Node1 -->
<g id="edge1" class="edge"><title>Node2&#45;&gt;Node1</title>
<path fill="none" stroke="midnightblue" d="M67,-118.484C67,-109.643 67,-100.139 67,-91.0399"/>
<polygon fill="none" stroke="midnightblue" points="63.5001,-118.495 67,-128.495 70.5001,-118.495 63.5001,-118.495"/>
</g>
</g>
</svg>
