<?xml version="1.0" encoding="UTF-8" standalone="no"?>
<!DOCTYPE svg PUBLIC "-//W3C//DTD SVG 1.1//EN"
 "http://www.w3.org/Graphics/SVG/1.1/DTD/svg11.dtd">
<!-- Generated by graphviz version 2.34.0 (20130907.0111)
 -->
<!-- Title: Player Pages: 1 -->
<svg width="253pt" height="226pt"
 viewBox="0.00 0.00 253.00 226.00" xmlns="http://www.w3.org/2000/svg" xmlns:xlink="http://www.w3.org/1999/xlink">
<g id="graph0" class="graph" transform="scale(1 1) rotate(0) translate(4 222)">
<title>Player</title>
<polygon fill="white" stroke="white" points="-4,4 -4,-222 249,-222 249,4 -4,4"/>
<!-- Node1 -->
<g id="node1" class="node"><title>Node1</title>
<polygon fill="#bfbfbf" stroke="black" points="37.5,-0.5 37.5,-123.5 172.5,-123.5 172.5,-0.5 37.5,-0.5"/>
<text text-anchor="middle" x="105" y="-111.5" font-family="Helvetica,sans-Serif" font-size="10.00">Player</text>
<polyline fill="none" stroke="black" points="37.5,-104.5 172.5,-104.5 "/>
<text text-anchor="start" x="45.5" y="-92.5" font-family="Helvetica,sans-Serif" font-size="10.00">+ playerController</text>
<text text-anchor="start" x="45.5" y="-81.5" font-family="Helvetica,sans-Serif" font-size="10.00">+ score</text>
<polyline fill="none" stroke="black" points="37.5,-74.5 172.5,-74.5 "/>
<text text-anchor="start" x="45.5" y="-62.5" font-family="Helvetica,sans-Serif" font-size="10.00">+ initWithHUDManager:</text>
<text text-anchor="start" x="45.5" y="-51.5" font-family="Helvetica,sans-Serif" font-size="10.00">+ touchesBegan:withEvent:</text>
<text text-anchor="start" x="45.5" y="-40.5" font-family="Helvetica,sans-Serif" font-size="10.00">+ touchesMoved:withEvent:</text>
<text text-anchor="start" x="45.5" y="-29.5" font-family="Helvetica,sans-Serif" font-size="10.00">+ touchesEnded:withEvent:</text>
<text text-anchor="start" x="45.5" y="-18.5" font-family="Helvetica,sans-Serif" font-size="10.00">+ didBeginContactWith:</text>
<text text-anchor="start" x="45.5" y="-7.5" font-family="Helvetica,sans-Serif" font-size="10.00">+ update</text>
</g>
<!-- Node2 -->
<g id="node2" class="node"><title>Node2</title>
<polygon fill="white" stroke="#bfbfbf" points="0,-160.5 0,-217.5 78,-217.5 78,-160.5 0,-160.5"/>
<text text-anchor="middle" x="39" y="-205.5" font-family="Helvetica,sans-Serif" font-size="10.00">SKSpriteNode</text>
<polyline fill="none" stroke="#bfbfbf" points="0,-198.5 78,-198.5 "/>
<text text-anchor="middle" x="39" y="-186.5" font-family="Helvetica,sans-Serif" font-size="10.00"> </text>
<polyline fill="none" stroke="#bfbfbf" points="0,-179.5 78,-179.5 "/>
<text text-anchor="middle" x="39" y="-167.5" font-family="Helvetica,sans-Serif" font-size="10.00"> </text>
</g>
<!-- Node2&#45;&gt;Node1 -->
<g id="edge1" class="edge"><title>Node2&#45;&gt;Node1</title>
<path fill="none" stroke="midnightblue" d="M58.4254,-151.21C63.0006,-142.544 67.9975,-133.081 72.9652,-123.672"/>
<polygon fill="none" stroke="midnightblue" points="55.2216,-149.781 53.6475,-160.258 61.4118,-153.05 55.2216,-149.781"/>
</g>
<!-- Node3 -->
<g id="node3" class="node"><title>Node3</title>
<polygon fill="white" stroke="#bfbfbf" points="96.5,-160.5 96.5,-217.5 245.5,-217.5 245.5,-160.5 96.5,-160.5"/>
<text text-anchor="middle" x="171" y="-205.5" font-family="Helvetica,sans-Serif" font-size="10.00">&lt;SKPhysicsContactDelegate&gt;</text>
<polyline fill="none" stroke="#bfbfbf" points="96.5,-198.5 245.5,-198.5 "/>
<text text-anchor="middle" x="171" y="-186.5" font-family="Helvetica,sans-Serif" font-size="10.00"> </text>
<polyline fill="none" stroke="#bfbfbf" points="96.5,-179.5 245.5,-179.5 "/>
<text text-anchor="middle" x="171" y="-167.5" font-family="Helvetica,sans-Serif" font-size="10.00"> </text>
</g>
<!-- Node3&#45;&gt;Node1 -->
<g id="edge2" class="edge"><title>Node3&#45;&gt;Node1</title>
<path fill="none" stroke="midnightblue" d="M151.575,-151.21C146.999,-142.544 142.003,-133.081 137.035,-123.672"/>
<polygon fill="none" stroke="midnightblue" points="148.588,-153.05 156.352,-160.258 154.778,-149.781 148.588,-153.05"/>
</g>
</g>
</svg>
