<?xml version="1.0" encoding="UTF-8" standalone="no"?>
<!DOCTYPE svg PUBLIC "-//W3C//DTD SVG 1.1//EN"
 "http://www.w3.org/Graphics/SVG/1.1/DTD/svg11.dtd">
<!-- Generated by graphviz version 2.34.0 (20130907.0111)
 -->
<!-- Title: ParticleManager Pages: 1 -->
<svg width="94pt" height="160pt"
 viewBox="0.00 0.00 94.00 160.00" xmlns="http://www.w3.org/2000/svg" xmlns:xlink="http://www.w3.org/1999/xlink">
<g id="graph0" class="graph" transform="scale(1 1) rotate(0) translate(4 156)">
<title>ParticleManager</title>
<polygon fill="white" stroke="white" points="-4,4 -4,-156 90,-156 90,4 -4,4"/>
<!-- Node1 -->
<g id="node1" class="node"><title>Node1</title>
<polygon fill="#bfbfbf" stroke="black" points="-0.5,-0.5 -0.5,-57.5 86.5,-57.5 86.5,-0.5 -0.5,-0.5"/>
<text text-anchor="middle" x="43" y="-45.5" font-family="Helvetica,sans-Serif" font-size="10.00">ParticleManager</text>
<polyline fill="none" stroke="black" points="-0.5,-38.5 86.5,-38.5 "/>
<text text-anchor="middle" x="43" y="-26.5" font-family="Helvetica,sans-Serif" font-size="10.00"> </text>
<polyline fill="none" stroke="black" points="-0.5,-19.5 86.5,-19.5 "/>
<text text-anchor="middle" x="43" y="-7.5" font-family="Helvetica,sans-Serif" font-size="10.00"> </text>
</g>
<!-- Node2 -->
<g id="node2" class="node"><title>Node2</title>
<polygon fill="white" stroke="#bfbfbf" points="13.5,-94.5 13.5,-151.5 72.5,-151.5 72.5,-94.5 13.5,-94.5"/>
<text text-anchor="middle" x="43" y="-139.5" font-family="Helvetica,sans-Serif" font-size="10.00">NSObject</text>
<polyline fill="none" stroke="#bfbfbf" points="13.5,-132.5 72.5,-132.5 "/>
<text text-anchor="middle" x="43" y="-120.5" font-family="Helvetica,sans-Serif" font-size="10.00"> </text>
<polyline fill="none" stroke="#bfbfbf" points="13.5,-113.5 72.5,-113.5 "/>
<text text-anchor="middle" x="43" y="-101.5" font-family="Helvetica,sans-Serif" font-size="10.00"> </text>
</g>
<!-- Node2&#45;&gt;Node1 -->
<g id="edge1" class="edge"><title>Node2&#45;&gt;Node1</title>
<path fill="none" stroke="midnightblue" d="M43,-84.2092C43,-75.2929 43,-65.9513 43,-57.5836"/>
<polygon fill="none" stroke="midnightblue" points="39.5001,-84.3969 43,-94.397 46.5001,-84.397 39.5001,-84.3969"/>
</g>
</g>
</svg>
