<?xml version="1.0" encoding="UTF-8" standalone="no"?>
<!DOCTYPE svg PUBLIC "-//W3C//DTD SVG 1.1//EN"
 "http://www.w3.org/Graphics/SVG/1.1/DTD/svg11.dtd">
<!-- Generated by graphviz version 2.34.0 (20130907.0111)
 -->
<!-- Title: Star Pages: 1 -->
<svg width="128pt" height="182pt"
 viewBox="0.00 0.00 128.00 182.00" xmlns="http://www.w3.org/2000/svg" xmlns:xlink="http://www.w3.org/1999/xlink">
<g id="graph0" class="graph" transform="scale(1 1) rotate(0) translate(4 178)">
<title>Star</title>
<polygon fill="white" stroke="white" points="-4,4 -4,-178 124,-178 124,4 -4,4"/>
<!-- Node1 -->
<g id="node1" class="node"><title>Node1</title>
<polygon fill="#bfbfbf" stroke="black" points="0,-0.5 0,-79.5 120,-79.5 120,-0.5 0,-0.5"/>
<text text-anchor="middle" x="60" y="-67.5" font-family="Helvetica,sans-Serif" font-size="10.00">Star</text>
<polyline fill="none" stroke="black" points="0,-60.5 120,-60.5 "/>
<text text-anchor="middle" x="60" y="-48.5" font-family="Helvetica,sans-Serif" font-size="10.00"> </text>
<polyline fill="none" stroke="black" points="0,-41.5 120,-41.5 "/>
<text text-anchor="start" x="8" y="-29.5" font-family="Helvetica,sans-Serif" font-size="10.00">+ didBeginContactWith:</text>
<text text-anchor="start" x="8" y="-18.5" font-family="Helvetica,sans-Serif" font-size="10.00">+ changePosition</text>
<text text-anchor="start" x="8" y="-7.5" font-family="Helvetica,sans-Serif" font-size="10.00">+ update</text>
</g>
<!-- Node2 -->
<g id="node2" class="node"><title>Node2</title>
<polygon fill="white" stroke="#bfbfbf" points="21,-116.5 21,-173.5 99,-173.5 99,-116.5 21,-116.5"/>
<text text-anchor="middle" x="60" y="-161.5" font-family="Helvetica,sans-Serif" font-size="10.00">SKSpriteNode</text>
<polyline fill="none" stroke="#bfbfbf" points="21,-154.5 99,-154.5 "/>
<text text-anchor="middle" x="60" y="-142.5" font-family="Helvetica,sans-Serif" font-size="10.00"> </text>
<polyline fill="none" stroke="#bfbfbf" points="21,-135.5 99,-135.5 "/>
<text text-anchor="middle" x="60" y="-123.5" font-family="Helvetica,sans-Serif" font-size="10.00"> </text>
</g>
<!-- Node2&#45;&gt;Node1 -->
<g id="edge1" class="edge"><title>Node2&#45;&gt;Node1</title>
<path fill="none" stroke="midnightblue" d="M60,-106.156C60,-97.4733 60,-88.2318 60,-79.5205"/>
<polygon fill="none" stroke="midnightblue" points="56.5001,-106.398 60,-116.398 63.5001,-106.398 56.5001,-106.398"/>
</g>
</g>
</svg>
