<?xml version="1.0" encoding="UTF-8" standalone="no"?>
<!DOCTYPE svg PUBLIC "-//W3C//DTD SVG 1.1//EN"
 "http://www.w3.org/Graphics/SVG/1.1/DTD/svg11.dtd">
<!-- Generated by graphviz version 2.34.0 (20130907.0111)
 -->
<!-- Title: AppDelegate Pages: 1 -->
<svg width="222pt" height="160pt"
 viewBox="0.00 0.00 222.00 160.00" xmlns="http://www.w3.org/2000/svg" xmlns:xlink="http://www.w3.org/1999/xlink">
<g id="graph0" class="graph" transform="scale(1 1) rotate(0) translate(4 156)">
<title>AppDelegate</title>
<polygon fill="white" stroke="white" points="-4,4 -4,-156 218,-156 218,4 -4,4"/>
<!-- Node1 -->
<g id="node1" class="node"><title>Node1</title>
<polygon fill="#bfbfbf" stroke="black" points="58,-0.5 58,-57.5 130,-57.5 130,-0.5 58,-0.5"/>
<text text-anchor="middle" x="94" y="-45.5" font-family="Helvetica,sans-Serif" font-size="10.00">AppDelegate</text>
<polyline fill="none" stroke="black" points="58,-38.5 130,-38.5 "/>
<text text-anchor="start" x="66" y="-26.5" font-family="Helvetica,sans-Serif" font-size="10.00">+ window</text>
<polyline fill="none" stroke="black" points="58,-19.5 130,-19.5 "/>
<text text-anchor="middle" x="94" y="-7.5" font-family="Helvetica,sans-Serif" font-size="10.00"> </text>
</g>
<!-- Node2 -->
<g id="node2" class="node"><title>Node2</title>
<polygon fill="white" stroke="#bfbfbf" points="0,-94.5 0,-151.5 72,-151.5 72,-94.5 0,-94.5"/>
<text text-anchor="middle" x="36" y="-139.5" font-family="Helvetica,sans-Serif" font-size="10.00">UIResponder</text>
<polyline fill="none" stroke="#bfbfbf" points="0,-132.5 72,-132.5 "/>
<text text-anchor="middle" x="36" y="-120.5" font-family="Helvetica,sans-Serif" font-size="10.00"> </text>
<polyline fill="none" stroke="#bfbfbf" points="0,-113.5 72,-113.5 "/>
<text text-anchor="middle" x="36" y="-101.5" font-family="Helvetica,sans-Serif" font-size="10.00"> </text>
</g>
<!-- Node2&#45;&gt;Node1 -->
<g id="edge1" class="edge"><title>Node2&#45;&gt;Node1</title>
<path fill="none" stroke="midnightblue" d="M58.9107,-85.6589C64.8038,-76.3111 71.0484,-66.4061 76.6104,-57.5836"/>
<polygon fill="none" stroke="midnightblue" points="55.7742,-84.0711 53.4019,-94.397 61.6957,-87.8043 55.7742,-84.0711"/>
</g>
<!-- Node3 -->
<g id="node3" class="node"><title>Node3</title>
<polygon fill="white" stroke="#bfbfbf" points="90,-94.5 90,-151.5 214,-151.5 214,-94.5 90,-94.5"/>
<text text-anchor="middle" x="152" y="-139.5" font-family="Helvetica,sans-Serif" font-size="10.00">&lt;UIApplicationDelegate&gt;</text>
<polyline fill="none" stroke="#bfbfbf" points="90,-132.5 214,-132.5 "/>
<text text-anchor="middle" x="152" y="-120.5" font-family="Helvetica,sans-Serif" font-size="10.00"> </text>
<polyline fill="none" stroke="#bfbfbf" points="90,-113.5 214,-113.5 "/>
<text text-anchor="middle" x="152" y="-101.5" font-family="Helvetica,sans-Serif" font-size="10.00"> </text>
</g>
<!-- Node3&#45;&gt;Node1 -->
<g id="edge2" class="edge"><title>Node3&#45;&gt;Node1</title>
<path fill="none" stroke="midnightblue" d="M129.089,-85.6589C123.196,-76.3111 116.952,-66.4061 111.39,-57.5836"/>
<polygon fill="none" stroke="midnightblue" points="126.304,-87.8043 134.598,-94.397 132.226,-84.0711 126.304,-87.8043"/>
</g>
</g>
</svg>
