<?xml version="1.0" encoding="UTF-8" standalone="no"?>
<!DOCTYPE svg PUBLIC "-//W3C//DTD SVG 1.1//EN"
 "http://www.w3.org/Graphics/SVG/1.1/DTD/svg11.dtd">
<!-- Generated by graphviz version 2.34.0 (20130907.0111)
 -->
<!-- Title: Hunter() Pages: 1 -->
<svg width="346pt" height="230pt"
 viewBox="0.00 0.00 346.00 230.00" xmlns="http://www.w3.org/2000/svg" xmlns:xlink="http://www.w3.org/1999/xlink">
<g id="graph0" class="graph" transform="scale(1 1) rotate(0) translate(4 226)">
<title>Hunter()</title>
<polygon fill="white" stroke="white" points="-4,4 -4,-226 342,-226 342,4 -4,4"/>
<!-- Node1 -->
<g id="node1" class="node"><title>Node1</title>
<polygon fill="#bfbfbf" stroke="black" points="66,-1 66,-21 128,-21 128,-1 66,-1"/>
<text text-anchor="middle" x="97" y="-8.2" font-family="Segoe UI Semibold" font-size="11.00">Hunter()</text>
</g>
<!-- Node2 -->
<g id="node2" class="node"><title>Node2</title>
<g id="a_node2"><a xlink:href="interface_player.html" target="_top" xlink:title="Player object that the user is actually controlling. ">
<polygon fill="white" stroke="black" points="72.5,-71 72.5,-91 121.5,-91 121.5,-71 72.5,-71"/>
<text text-anchor="middle" x="97" y="-78.2" font-family="Segoe UI Semibold" font-size="11.00">Player</text>
</a>
</g>
</g>
<!-- Node2&#45;&gt;Node1 -->
<g id="edge1" class="edge"><title>Node2&#45;&gt;Node1</title>
<path fill="none" stroke="#9a32cd" stroke-dasharray="5,2" d="M97,-60.5567C97,-47.557 97,-31.0574 97,-21.0255"/>
<polygon fill="#9a32cd" stroke="#9a32cd" points="93.5001,-60.8292 97,-70.8292 100.5,-60.8293 93.5001,-60.8292"/>
<text text-anchor="middle" x="139.5" y="-43.2" font-family="Segoe UI Semibold" font-size="11.00"> followingPlayer</text>
</g>
<!-- Node3 -->
<g id="node3" class="node"><title>Node3</title>
<polygon fill="white" stroke="#bfbfbf" points="-0.5,-201 -0.5,-221 88.5,-221 88.5,-201 -0.5,-201"/>
<text text-anchor="middle" x="44" y="-208.2" font-family="Segoe UI Semibold" font-size="11.00">SKSpriteNode</text>
</g>
<!-- Node3&#45;&gt;Node2 -->
<g id="edge2" class="edge"><title>Node3&#45;&gt;Node2</title>
<path fill="none" stroke="midnightblue" d="M37.2954,-191.136C33.25,-176.604 30.083,-156.307 37,-140 46.1086,-118.526 67.4917,-101.122 82.1076,-91.1622"/>
<polygon fill="midnightblue" stroke="midnightblue" points="34.0518,-192.487 40.4076,-200.964 40.7252,-190.374 34.0518,-192.487"/>
</g>
<!-- Node5 -->
<g id="node5" class="node"><title>Node5</title>
<g id="a_node5"><a xlink:href="interface_player_controller.html" target="_top" xlink:title="Visual joystick which controls the player. ">
<polygon fill="white" stroke="black" points="46.5,-141 46.5,-161 147.5,-161 147.5,-141 46.5,-141"/>
<text text-anchor="middle" x="97" y="-148.2" font-family="Segoe UI Semibold" font-size="11.00">PlayerController</text>
</a>
</g>
</g>
<!-- Node3&#45;&gt;Node5 -->
<g id="edge5" class="edge"><title>Node3&#45;&gt;Node5</title>
<path fill="none" stroke="midnightblue" d="M59.2998,-193.257C68.8389,-182.818 80.7508,-169.782 88.602,-161.19"/>
<polygon fill="midnightblue" stroke="midnightblue" points="56.4432,-191.194 52.2813,-200.938 61.6107,-195.916 56.4432,-191.194"/>
</g>
<!-- Node4 -->
<g id="node4" class="node"><title>Node4</title>
<polygon fill="white" stroke="#bfbfbf" points="166,-141 166,-161 338,-161 338,-141 166,-141"/>
<text text-anchor="middle" x="252" y="-148.2" font-family="Segoe UI Semibold" font-size="11.00">&lt;SKPhysicsContactDelegate&gt;</text>
</g>
<!-- Node4&#45;&gt;Node2 -->
<g id="edge3" class="edge"><title>Node4&#45;&gt;Node2</title>
<path fill="none" stroke="midnightblue" d="M231.662,-135.094C219.697,-126.844 204.011,-116.895 189,-110 167.153,-99.9653 140.774,-92.3602 121.875,-87.6265"/>
<polygon fill="midnightblue" stroke="midnightblue" points="229.826,-138.083 240.013,-140.994 233.865,-132.366 229.826,-138.083"/>
</g>
<!-- Node5&#45;&gt;Node2 -->
<g id="edge4" class="edge"><title>Node5&#45;&gt;Node2</title>
<path fill="none" stroke="#9a32cd" stroke-dasharray="5,2" d="M97,-130.557C97,-117.557 97,-101.057 97,-91.0255"/>
<polygon fill="#9a32cd" stroke="#9a32cd" points="93.5001,-130.829 97,-140.829 100.5,-130.829 93.5001,-130.829"/>
<text text-anchor="middle" x="141" y="-113.2" font-family="Segoe UI Semibold" font-size="11.00"> playerController</text>
</g>
</g>
</svg>
