<?xml version="1.0" encoding="UTF-8" standalone="no"?>
<!DOCTYPE svg PUBLIC "-//W3C//DTD SVG 1.1//EN"
 "http://www.w3.org/Graphics/SVG/1.1/DTD/svg11.dtd">
<!-- Generated by graphviz version 2.34.0 (20130907.0111)
 -->
<!-- Title: Hunter() Pages: 1 -->
<svg width="401pt" height="546pt"
 viewBox="0.00 0.00 401.00 546.00" xmlns="http://www.w3.org/2000/svg" xmlns:xlink="http://www.w3.org/1999/xlink">
<g id="graph0" class="graph" transform="scale(1 1) rotate(0) translate(4 542)">
<title>Hunter()</title>
<polygon fill="white" stroke="white" points="-4,4 -4,-542 397,-542 397,4 -4,4"/>
<!-- Node1 -->
<g id="node1" class="node"><title>Node1</title>
<polygon fill="#bfbfbf" stroke="black" points="90,-1 90,-61 152,-61 152,-1 90,-1"/>
<text text-anchor="middle" x="121" y="-48.2" font-family="Segoe UI Semibold" font-size="11.00">Hunter()</text>
<polyline fill="none" stroke="black" points="90,-41 152,-41 "/>
<text text-anchor="middle" x="121" y="-28.2" font-family="Segoe UI Semibold" font-size="11.00"> </text>
<polyline fill="none" stroke="black" points="90,-21 152,-21 "/>
<text text-anchor="middle" x="121" y="-8.2" font-family="Segoe UI Semibold" font-size="11.00"> </text>
</g>
<!-- Node2 -->
<g id="node2" class="node"><title>Node2</title>
<g id="a_node2"><a xlink:href="interface_player.html" target="_top" xlink:title="Player object that the user is actually controlling. ">
<polygon fill="white" stroke="black" points="39,-111 39,-291 203,-291 203,-111 39,-111"/>
<text text-anchor="middle" x="121" y="-278.2" font-family="Segoe UI Semibold" font-size="11.00">Player</text>
<polyline fill="none" stroke="black" points="39,-271 203,-271 "/>
<text text-anchor="start" x="47" y="-258.2" font-family="Segoe UI Semibold" font-size="11.00">+ score</text>
<text text-anchor="start" x="47" y="-246.2" font-family="Segoe UI Semibold" font-size="11.00">+ starCount</text>
<text text-anchor="start" x="47" y="-234.2" font-family="Segoe UI Semibold" font-size="11.00">+ playerSpeed</text>
<text text-anchor="start" x="47" y="-222.2" font-family="Segoe UI Semibold" font-size="11.00">+ dead</text>
<text text-anchor="start" x="47" y="-210.2" font-family="Segoe UI Semibold" font-size="11.00">+ immortal</text>
<text text-anchor="start" x="47" y="-198.2" font-family="Segoe UI Semibold" font-size="11.00">+ scoreBoost</text>
<polyline fill="none" stroke="black" points="39,-191 203,-191 "/>
<text text-anchor="start" x="47" y="-178.2" font-family="Segoe UI Semibold" font-size="11.00">+ initWithHUDManager:</text>
<text text-anchor="start" x="47" y="-166.2" font-family="Segoe UI Semibold" font-size="11.00">+ touchesBegan:withEvent:</text>
<text text-anchor="start" x="47" y="-154.2" font-family="Segoe UI Semibold" font-size="11.00">+ touchesMoved:withEvent:</text>
<text text-anchor="start" x="47" y="-142.2" font-family="Segoe UI Semibold" font-size="11.00">+ touchesEnded:withEvent:</text>
<text text-anchor="start" x="47" y="-130.2" font-family="Segoe UI Semibold" font-size="11.00">+ didBeginContactWith:</text>
<text text-anchor="start" x="47" y="-118.2" font-family="Segoe UI Semibold" font-size="11.00">+ update</text>
</a>
</g>
</g>
<!-- Node2&#45;&gt;Node1 -->
<g id="edge1" class="edge"><title>Node2&#45;&gt;Node1</title>
<path fill="none" stroke="#404040" d="M121,-110.589C121,-97.6082 121,-84.8002 121,-73.4121"/>
<polygon fill="none" stroke="#404040" points="121,-73.2244 117,-67.2244 121,-61.2244 125,-67.2243 121,-73.2244"/>
<text text-anchor="middle" x="168" y="-83.2" font-family="Segoe UI Semibold" font-size="11.00"> +followingPlayer</text>
</g>
<!-- Node3 -->
<g id="node3" class="node"><title>Node3</title>
<polygon fill="white" stroke="#bfbfbf" points="-0.5,-477 -0.5,-537 88.5,-537 88.5,-477 -0.5,-477"/>
<text text-anchor="middle" x="44" y="-524.2" font-family="Segoe UI Semibold" font-size="11.00">SKSpriteNode</text>
<polyline fill="none" stroke="#bfbfbf" points="-0.5,-517 88.5,-517 "/>
<text text-anchor="middle" x="44" y="-504.2" font-family="Segoe UI Semibold" font-size="11.00"> </text>
<polyline fill="none" stroke="#bfbfbf" points="-0.5,-497 88.5,-497 "/>
<text text-anchor="middle" x="44" y="-484.2" font-family="Segoe UI Semibold" font-size="11.00"> </text>
</g>
<!-- Node3&#45;&gt;Node2 -->
<g id="edge2" class="edge"><title>Node3&#45;&gt;Node2</title>
<path fill="none" stroke="midnightblue" d="M32.6586,-466.781C24.6515,-432.598 17.3836,-382.05 30,-340 35.0308,-323.232 42.8309,-306.62 51.7949,-291.042"/>
<polygon fill="none" stroke="midnightblue" points="29.347,-467.97 35.1461,-476.836 36.1422,-466.289 29.347,-467.97"/>
</g>
<!-- Node5 -->
<g id="node5" class="node"><title>Node5</title>
<g id="a_node5"><a xlink:href="interface_player_controller.html" target="_top" xlink:title="Visual joystick which controls the player. ">
<polygon fill="white" stroke="black" points="39,-341 39,-437 203,-437 203,-341 39,-341"/>
<text text-anchor="middle" x="121" y="-424.2" font-family="Segoe UI Semibold" font-size="11.00">PlayerController</text>
<polyline fill="none" stroke="black" points="39,-417 203,-417 "/>
<text text-anchor="middle" x="121" y="-404.2" font-family="Segoe UI Semibold" font-size="11.00"> </text>
<polyline fill="none" stroke="black" points="39,-397 203,-397 "/>
<text text-anchor="start" x="47" y="-384.2" font-family="Segoe UI Semibold" font-size="11.00">+ touchesBegan:withEvent:</text>
<text text-anchor="start" x="47" y="-372.2" font-family="Segoe UI Semibold" font-size="11.00">+ touchesMoved:withEvent:</text>
<text text-anchor="start" x="47" y="-360.2" font-family="Segoe UI Semibold" font-size="11.00">+ touchesEnded:withEvent:</text>
<text text-anchor="start" x="47" y="-348.2" font-family="Segoe UI Semibold" font-size="11.00">+ getJoystickVelocity</text>
</a>
</g>
</g>
<!-- Node3&#45;&gt;Node5 -->
<g id="edge5" class="edge"><title>Node3&#45;&gt;Node5</title>
<path fill="none" stroke="midnightblue" d="M69.02,-468.308C75.5818,-458.422 82.7414,-447.636 89.5909,-437.318"/>
<polygon fill="none" stroke="midnightblue" points="66.0448,-466.461 63.4304,-476.728 71.8769,-470.332 66.0448,-466.461"/>
</g>
<!-- Node4 -->
<g id="node4" class="node"><title>Node4</title>
<polygon fill="white" stroke="#bfbfbf" points="221,-359 221,-419 393,-419 393,-359 221,-359"/>
<text text-anchor="middle" x="307" y="-406.2" font-family="Segoe UI Semibold" font-size="11.00">&lt;SKPhysicsContactDelegate&gt;</text>
<polyline fill="none" stroke="#bfbfbf" points="221,-399 393,-399 "/>
<text text-anchor="middle" x="307" y="-386.2" font-family="Segoe UI Semibold" font-size="11.00"> </text>
<polyline fill="none" stroke="#bfbfbf" points="221,-379 393,-379 "/>
<text text-anchor="middle" x="307" y="-366.2" font-family="Segoe UI Semibold" font-size="11.00"> </text>
</g>
<!-- Node4&#45;&gt;Node2 -->
<g id="edge3" class="edge"><title>Node4&#45;&gt;Node2</title>
<path fill="none" stroke="midnightblue" d="M270.812,-351.812C251.51,-332.51 226.915,-307.915 203.259,-284.259"/>
<polygon fill="none" stroke="midnightblue" points="268.392,-354.341 277.938,-358.938 273.341,-349.392 268.392,-354.341"/>
</g>
<!-- Node5&#45;&gt;Node2 -->
<g id="edge4" class="edge"><title>Node5&#45;&gt;Node2</title>
<path fill="none" stroke="#404040" d="M121,-340.583C121,-329.164 121,-316.527 121,-303.667"/>
<polygon fill="none" stroke="#404040" points="121,-303.301 117,-297.301 121,-291.301 125,-297.301 121,-303.301"/>
<text text-anchor="middle" x="169.5" y="-313.2" font-family="Segoe UI Semibold" font-size="11.00"> +playerController</text>
</g>
</g>
</svg>
