<?xml version="1.0" encoding="UTF-8" standalone="no"?>
<!DOCTYPE svg PUBLIC "-//W3C//DTD SVG 1.1//EN"
 "http://www.w3.org/Graphics/SVG/1.1/DTD/svg11.dtd">
<!-- Generated by graphviz version 2.34.0 (20130907.0111)
 -->
<!-- Title: Hunter() Pages: 1 -->
<!--zoomable 558 -->
<svg id="main" version="1.1" xmlns="http://www.w3.org/2000/svg" xmlns:xlink="http://www.w3.org/1999/xlink" xml:space="preserve" onload="init(evt)">
<style type="text/css"><![CDATA[
.edge:hover path { stroke: red; }
.edge:hover polygon { stroke: red; fill: red; }
]]></style>
<script type="text/javascript"><![CDATA[
var edges = document.getElementsByTagName('g');
if (edges && edges.length) {
  for (var i=0;i<edges.length;i++) {
    if (edges[i].id.substr(0,4)=='edge') {
      edges[i].setAttribute('class','edge');
    }
  }
}
]]></script>
        <defs>
                <circle id="rim" cx="0" cy="0" r="7"/>
                <circle id="rim2" cx="0" cy="0" r="3.5"/>
                <g id="zoomPlus">
                        <use xlink:href="#rim" fill="#404040">
                                <set attributeName="fill" to="#808080" begin="zoomplus.mouseover" end="zoomplus.mouseout"/>
                        </use>
                        <path d="M-4,0h8M0,-4v8" fill="none" stroke="white" stroke-width="1.5" pointer-events="none"/>
                </g>
                <g id="zoomMin">
                        <use xlink:href="#rim" fill="#404040">
                                <set attributeName="fill" to="#808080" begin="zoomminus.mouseover" end="zoomminus.mouseout"/>
                        </use>
                        <path d="M-4,0h8" fill="none" stroke="white" stroke-width="1.5" pointer-events="none"/>
                </g>
                <g id="dirArrow">
                        <path fill="none" stroke="white" stroke-width="1.5" d="M0,-3.0v7 M-2.5,-0.5L0,-3.0L2.5,-0.5"/>
                </g>
               <g id="resetDef">
                       <use xlink:href="#rim2" fill="#404040">
                               <set attributeName="fill" to="#808080" begin="reset.mouseover" end="reset.mouseout"/>
                       </use>
               </g>
        </defs>

<script type="text/javascript">
var viewWidth = 401;
var viewHeight = 558;
var sectionId = 'dynsection-0';
</script>
<script xlink:href="svgpan.js"/>
<svg id="graph" class="graph">
<g id="viewport">
<title>Hunter()</title>
<polygon fill="white" stroke="white" points="-4,4 -4,-554 397,-554 397,4 -4,4"/>
<!-- Node1 -->
<g id="node1" class="node"><title>Node1</title>
<polygon fill="#bfbfbf" stroke="black" points="90,-1 90,-61 152,-61 152,-1 90,-1"/>
<text text-anchor="middle" x="121" y="-48.2" font-family="Segoe UI Semibold" font-size="11.00">Hunter()</text>
<polyline fill="none" stroke="black" points="90,-41 152,-41 "/>
<text text-anchor="middle" x="121" y="-28.2" font-family="Segoe UI Semibold" font-size="11.00"> </text>
<polyline fill="none" stroke="black" points="90,-21 152,-21 "/>
<text text-anchor="middle" x="121" y="-8.2" font-family="Segoe UI Semibold" font-size="11.00"> </text>
</g>
<!-- Node2 -->
<g id="node2" class="node"><title>Node2</title>
<g id="a_node2"><a xlink:href="interface_player.html" target="_top" xlink:title="Player object that the user is actually controlling. ">
<polygon fill="white" stroke="black" points="39,-111 39,-303 203,-303 203,-111 39,-111"/>
<text text-anchor="middle" x="121" y="-290.2" font-family="Segoe UI Semibold" font-size="11.00">Player</text>
<polyline fill="none" stroke="black" points="39,-283 203,-283 "/>
<text text-anchor="start" x="47" y="-270.2" font-family="Segoe UI Semibold" font-size="11.00">+ score</text>
<text text-anchor="start" x="47" y="-258.2" font-family="Segoe UI Semibold" font-size="11.00">+ starCount</text>
<text text-anchor="start" x="47" y="-246.2" font-family="Segoe UI Semibold" font-size="11.00">+ playerSpeed</text>
<text text-anchor="start" x="47" y="-234.2" font-family="Segoe UI Semibold" font-size="11.00">+ peerID</text>
<text text-anchor="start" x="47" y="-222.2" font-family="Segoe UI Semibold" font-size="11.00">+ dead</text>
<text text-anchor="start" x="47" y="-210.2" font-family="Segoe UI Semibold" font-size="11.00">+ immortal</text>
<text text-anchor="start" x="47" y="-198.2" font-family="Segoe UI Semibold" font-size="11.00">+ scoreBoost</text>
<polyline fill="none" stroke="black" points="39,-191 203,-191 "/>
<text text-anchor="start" x="47" y="-178.2" font-family="Segoe UI Semibold" font-size="11.00">+ initWithHUDManager:</text>
<text text-anchor="start" x="47" y="-166.2" font-family="Segoe UI Semibold" font-size="11.00">+ touchesBegan:withEvent:</text>
<text text-anchor="start" x="47" y="-154.2" font-family="Segoe UI Semibold" font-size="11.00">+ touchesMoved:withEvent:</text>
<text text-anchor="start" x="47" y="-142.2" font-family="Segoe UI Semibold" font-size="11.00">+ touchesEnded:withEvent:</text>
<text text-anchor="start" x="47" y="-130.2" font-family="Segoe UI Semibold" font-size="11.00">+ didBeginContactWith:</text>
<text text-anchor="start" x="47" y="-118.2" font-family="Segoe UI Semibold" font-size="11.00">+ update</text>
</a>
</g>
</g>
<!-- Node2&#45;&gt;Node1 -->
<g id="edge1" class="edge"><title>Node2&#45;&gt;Node1</title>
<path fill="none" stroke="#404040" d="M121,-110.854C121,-97.7112 121,-84.8183 121,-73.3894"/>
<polygon fill="none" stroke="#404040" points="121,-73.1727 117,-67.1727 121,-61.1727 125,-67.1727 121,-73.1727"/>
<text text-anchor="middle" x="168" y="-83.2" font-family="Segoe UI Semibold" font-size="11.00"> +followingPlayer</text>
</g>
<!-- Node3 -->
<g id="node3" class="node"><title>Node3</title>
<polygon fill="white" stroke="#bfbfbf" points="-0.5,-489 -0.5,-549 88.5,-549 88.5,-489 -0.5,-489"/>
<text text-anchor="middle" x="44" y="-536.2" font-family="Segoe UI Semibold" font-size="11.00">SKSpriteNode</text>
<polyline fill="none" stroke="#bfbfbf" points="-0.5,-529 88.5,-529 "/>
<text text-anchor="middle" x="44" y="-516.2" font-family="Segoe UI Semibold" font-size="11.00"> </text>
<polyline fill="none" stroke="#bfbfbf" points="-0.5,-509 88.5,-509 "/>
<text text-anchor="middle" x="44" y="-496.2" font-family="Segoe UI Semibold" font-size="11.00"> </text>
</g>
<!-- Node3&#45;&gt;Node2 -->
<g id="edge2" class="edge"><title>Node3&#45;&gt;Node2</title>
<path fill="none" stroke="midnightblue" d="M32.8615,-478.841C24.9839,-444.696 17.7919,-394.171 30,-352 34.8108,-335.382 42.1749,-318.839 50.6742,-303.205"/>
<polygon fill="none" stroke="midnightblue" points="29.5406,-479.996 35.3076,-488.884 36.3418,-478.34 29.5406,-479.996"/>
</g>
<!-- Node5 -->
<g id="node5" class="node"><title>Node5</title>
<g id="a_node5"><a xlink:href="interface_player_controller.html" target="_top" xlink:title="Visual joystick which controls the player. ">
<polygon fill="white" stroke="black" points="39,-353 39,-449 203,-449 203,-353 39,-353"/>
<text text-anchor="middle" x="121" y="-436.2" font-family="Segoe UI Semibold" font-size="11.00">PlayerController</text>
<polyline fill="none" stroke="black" points="39,-429 203,-429 "/>
<text text-anchor="middle" x="121" y="-416.2" font-family="Segoe UI Semibold" font-size="11.00"> </text>
<polyline fill="none" stroke="black" points="39,-409 203,-409 "/>
<text text-anchor="start" x="47" y="-396.2" font-family="Segoe UI Semibold" font-size="11.00">+ touchesBegan:withEvent:</text>
<text text-anchor="start" x="47" y="-384.2" font-family="Segoe UI Semibold" font-size="11.00">+ touchesMoved:withEvent:</text>
<text text-anchor="start" x="47" y="-372.2" font-family="Segoe UI Semibold" font-size="11.00">+ touchesEnded:withEvent:</text>
<text text-anchor="start" x="47" y="-360.2" font-family="Segoe UI Semibold" font-size="11.00">+ getJoystickVelocity</text>
</a>
</g>
</g>
<!-- Node3&#45;&gt;Node5 -->
<g id="edge5" class="edge"><title>Node3&#45;&gt;Node5</title>
<path fill="none" stroke="midnightblue" d="M69.02,-480.308C75.5818,-470.422 82.7414,-459.636 89.5909,-449.318"/>
<polygon fill="none" stroke="midnightblue" points="66.0448,-478.461 63.4304,-488.728 71.8769,-482.332 66.0448,-478.461"/>
</g>
<!-- Node4 -->
<g id="node4" class="node"><title>Node4</title>
<polygon fill="white" stroke="#bfbfbf" points="221,-371 221,-431 393,-431 393,-371 221,-371"/>
<text text-anchor="middle" x="307" y="-418.2" font-family="Segoe UI Semibold" font-size="11.00">&lt;SKPhysicsContactDelegate&gt;</text>
<polyline fill="none" stroke="#bfbfbf" points="221,-411 393,-411 "/>
<text text-anchor="middle" x="307" y="-398.2" font-family="Segoe UI Semibold" font-size="11.00"> </text>
<polyline fill="none" stroke="#bfbfbf" points="221,-391 393,-391 "/>
<text text-anchor="middle" x="307" y="-378.2" font-family="Segoe UI Semibold" font-size="11.00"> </text>
</g>
<!-- Node4&#45;&gt;Node2 -->
<g id="edge3" class="edge"><title>Node4&#45;&gt;Node2</title>
<path fill="none" stroke="midnightblue" d="M271.579,-363.436C252.124,-343.353 227.125,-317.548 203.109,-292.758"/>
<polygon fill="none" stroke="midnightblue" points="269.279,-366.092 278.751,-370.839 274.306,-361.222 269.279,-366.092"/>
</g>
<!-- Node5&#45;&gt;Node2 -->
<g id="edge4" class="edge"><title>Node5&#45;&gt;Node2</title>
<path fill="none" stroke="#404040" d="M121,-352.539C121,-341.061 121,-328.327 121,-315.312"/>
<polygon fill="none" stroke="#404040" points="121,-315.308 117,-309.308 121,-303.308 125,-309.308 121,-315.308"/>
<text text-anchor="middle" x="169.5" y="-325.2" font-family="Segoe UI Semibold" font-size="11.00"> +playerController</text>
</g>
</g>
</svg>
        <g id="navigator" transform="translate(0 0)" fill="#404254">
                <rect fill="#f2f5e9" fill-opacity="0.5" stroke="#606060" stroke-width=".5" x="0" y="0" width="60" height="60"/>
                <use id="zoomplus" xlink:href="#zoomPlus" x="17" y="9" onmousedown="handleZoom(evt,'in')"/>
                <use id="zoomminus" xlink:href="#zoomMin" x="42" y="9" onmousedown="handleZoom(evt,'out')"/>
                <use id="reset" xlink:href="#resetDef" x="30" y="36" onmousedown="handleReset()"/>
                <g id="arrowUp" xlink:href="#dirArrow" transform="translate(30 24)" onmousedown="handlePan(0,-1)">
                  <use xlink:href="#rim" fill="#404040">
                        <set attributeName="fill" to="#808080" begin="arrowUp.mouseover" end="arrowUp.mouseout"/>
                  </use>
                  <path fill="none" stroke="white" stroke-width="1.5" d="M0,-3.0v7 M-2.5,-0.5L0,-3.0L2.5,-0.5"/>
                </g>
                <g id="arrowRight" xlink:href="#dirArrow" transform="rotate(90) translate(36 -43)" onmousedown="handlePan(1,0)">
                  <use xlink:href="#rim" fill="#404040">
                        <set attributeName="fill" to="#808080" begin="arrowRight.mouseover" end="arrowRight.mouseout"/>
                  </use>
                  <path fill="none" stroke="white" stroke-width="1.5" d="M0,-3.0v7 M-2.5,-0.5L0,-3.0L2.5,-0.5"/>
                </g>
                <g id="arrowDown" xlink:href="#dirArrow" transform="rotate(180) translate(-30 -48)" onmousedown="handlePan(0,1)">
                  <use xlink:href="#rim" fill="#404040">
                        <set attributeName="fill" to="#808080" begin="arrowDown.mouseover" end="arrowDown.mouseout"/>
                  </use>
                  <path fill="none" stroke="white" stroke-width="1.5" d="M0,-3.0v7 M-2.5,-0.5L0,-3.0L2.5,-0.5"/>
                </g>
                <g id="arrowLeft" xlink:href="#dirArrow" transform="rotate(270) translate(-36 17)" onmousedown="handlePan(-1,0)">
                  <use xlink:href="#rim" fill="#404040">
                        <set attributeName="fill" to="#808080" begin="arrowLeft.mouseover" end="arrowLeft.mouseout"/>
                  </use>
                  <path fill="none" stroke="white" stroke-width="1.5" d="M0,-3.0v7 M-2.5,-0.5L0,-3.0L2.5,-0.5"/>
                </g>
        </g>
        <svg viewBox="0 0 15 15" width="100%" height="30px" preserveAspectRatio="xMaxYMin meet">
         <g id="arrow_out" transform="scale(0.3 0.3)">
          <a xlink:href="category_hunter_07_08__coll__graph_org.svg" target="_base">
           <rect id="button" ry="5" rx="5" y="6" x="6" height="38" width="38"
                fill="#f2f5e9" fill-opacity="0.5" stroke="#606060" stroke-width="1.0"/>
           <path id="arrow"
             d="M 11.500037,31.436501 C 11.940474,20.09759 22.043105,11.32322 32.158766,21.979434 L 37.068811,17.246167 C 37.068811,17.246167 37.088388,32 37.088388,32 L 22.160133,31.978069 C 22.160133,31.978069 26.997745,27.140456 26.997745,27.140456 C 18.528582,18.264221 13.291696,25.230495 11.500037,31.436501 z"
             style="fill:#404040;"/>
          </a>
         </g>
        </svg>
</svg>
