<?xml version="1.0" encoding="UTF-8" standalone="no"?>
<!DOCTYPE svg PUBLIC "-//W3C//DTD SVG 1.1//EN"
 "http://www.w3.org/Graphics/SVG/1.1/DTD/svg11.dtd">
<!-- Generated by graphviz version 2.34.0 (20130907.0111)
 -->
<!-- Title: Voozix Pages: 1 -->
<svg width="280pt" height="112pt"
 viewBox="0.00 0.00 280.00 112.00" xmlns="http://www.w3.org/2000/svg" xmlns:xlink="http://www.w3.org/1999/xlink">
<g id="graph0" class="graph" transform="scale(1 1) rotate(0) translate(4 108)">
<title>Voozix</title>
<polygon fill="white" stroke="white" points="-4,4 -4,-108 276,-108 276,4 -4,4"/>
<g id="clust1" class="cluster"><title>clusterdir_e04ae2849dfa520b4ee2c9f7e9ff15de</title>
<g id="a_clust1"><a xlink:href="dir_e04ae2849dfa520b4ee2c9f7e9ff15de.html" target="_top" xlink:title="Desktop">
<polygon fill="#ddddee" stroke="black" points="8,-8 8,-96 264,-96 264,-8 8,-8"/>
<text text-anchor="middle" x="136" y="-83.2" font-family="Segoe UI Semibold" font-size="11.00">Desktop</text>
</a>
</g>
</g>
<g id="clust2" class="cluster"><title>clusterdir_e21b4bd0d4300bacff5a2981134d6a87</title>
<g id="a_clust2"><a xlink:href="dir_e21b4bd0d4300bacff5a2981134d6a87.html" target="_top">
<polygon fill="#eeeeff" stroke="black" points="16,-16 16,-68 256,-68 256,-16 16,-16"/>
</a>
</g>
</g>
<!-- dir_e21b4bd0d4300bacff5a2981134d6a87 -->
<g id="node1" class="node"><title>dir_e21b4bd0d4300bacff5a2981134d6a87</title>
<text text-anchor="middle" x="221" y="-39.2" font-family="Segoe UI Semibold" font-size="11.00">Voozix</text>
</g>
<!-- dir_0aa70d636dd41138b910e37a48bcdde6 -->
<g id="node2" class="node"><title>dir_0aa70d636dd41138b910e37a48bcdde6</title>
<g id="a_node2"><a xlink:href="dir_0aa70d636dd41138b910e37a48bcdde6.html" target="_top" xlink:title="Voozix">
<polygon fill="white" stroke="black" points="176,-60 122,-60 122,-24 176,-24 176,-60"/>
<text text-anchor="middle" x="149" y="-39.2" font-family="Segoe UI Semibold" font-size="11.00">Voozix</text>
</a>
</g>
</g>
<!-- dir_8c10488ff554e4b7b3741e3592645cf0 -->
<g id="node3" class="node"><title>dir_8c10488ff554e4b7b3741e3592645cf0</title>
<g id="a_node3"><a xlink:href="dir_8c10488ff554e4b7b3741e3592645cf0.html" target="_top" xlink:title="VoozixTests">
<polygon fill="white" stroke="black" points="104,-60 24,-60 24,-24 104,-24 104,-60"/>
<text text-anchor="middle" x="64" y="-39.2" font-family="Segoe UI Semibold" font-size="11.00">VoozixTests</text>
</a>
</g>
</g>
</g>
</svg>
