<?xml version="1.0" encoding="UTF-8" standalone="no"?>
<!DOCTYPE svg PUBLIC "-//W3C//DTD SVG 1.1//EN"
 "http://www.w3.org/Graphics/SVG/1.1/DTD/svg11.dtd">
<!-- Generated by graphviz version 2.34.0 (20130907.0111)
 -->
<!-- Title: EnemyManager Pages: 1 -->
<svg width="204pt" height="204pt"
 viewBox="0.00 0.00 204.00 204.00" xmlns="http://www.w3.org/2000/svg" xmlns:xlink="http://www.w3.org/1999/xlink">
<g id="graph0" class="graph" transform="scale(1 1) rotate(0) translate(4 200)">
<title>EnemyManager</title>
<polygon fill="white" stroke="white" points="-4,4 -4,-200 200,-200 200,4 -4,4"/>
<!-- Node1 -->
<g id="node1" class="node"><title>Node1</title>
<polygon fill="#bfbfbf" stroke="black" points="0,-1 0,-97 196,-97 196,-1 0,-1"/>
<text text-anchor="middle" x="98" y="-84.2" font-family="Segoe UI Semibold" font-size="11.00">EnemyManager</text>
<polyline fill="none" stroke="black" points="0,-77 196,-77 "/>
<text text-anchor="middle" x="98" y="-64.2" font-family="Segoe UI Semibold" font-size="11.00"> </text>
<polyline fill="none" stroke="black" points="0,-57 196,-57 "/>
<text text-anchor="start" x="8" y="-44.2" font-family="Segoe UI Semibold" font-size="11.00">+ initWithScene:</text>
<text text-anchor="start" x="8" y="-32.2" font-family="Segoe UI Semibold" font-size="11.00">+ update:</text>
<text text-anchor="start" x="8" y="-20.2" font-family="Segoe UI Semibold" font-size="11.00">+ createEnemyWithPlayerPostion:</text>
<text text-anchor="start" x="8" y="-8.2" font-family="Segoe UI Semibold" font-size="11.00">+ removeAllEnemies</text>
</g>
<!-- Node2 -->
<g id="node2" class="node"><title>Node2</title>
<polygon fill="white" stroke="#bfbfbf" points="65.5,-135 65.5,-195 130.5,-195 130.5,-135 65.5,-135"/>
<text text-anchor="middle" x="98" y="-182.2" font-family="Segoe UI Semibold" font-size="11.00">NSObject</text>
<polyline fill="none" stroke="#bfbfbf" points="65.5,-175 130.5,-175 "/>
<text text-anchor="middle" x="98" y="-162.2" font-family="Segoe UI Semibold" font-size="11.00"> </text>
<polyline fill="none" stroke="#bfbfbf" points="65.5,-155 130.5,-155 "/>
<text text-anchor="middle" x="98" y="-142.2" font-family="Segoe UI Semibold" font-size="11.00"> </text>
</g>
<!-- Node2&#45;&gt;Node1 -->
<g id="edge1" class="edge"><title>Node2&#45;&gt;Node1</title>
<path fill="none" stroke="midnightblue" d="M98,-124.836C98,-115.928 98,-106.372 98,-97.1692"/>
<polygon fill="none" stroke="midnightblue" points="94.5001,-124.938 98,-134.938 101.5,-124.938 94.5001,-124.938"/>
</g>
</g>
</svg>
