<?xml version="1.0" encoding="UTF-8" standalone="no"?>
<!DOCTYPE svg PUBLIC "-//W3C//DTD SVG 1.1//EN"
 "http://www.w3.org/Graphics/SVG/1.1/DTD/svg11.dtd">
<!-- Generated by graphviz version 2.34.0 (20130907.0111)
 -->
<!-- Title: CollisionManager Pages: 1 -->
<svg width="263pt" height="204pt"
 viewBox="0.00 0.00 263.00 204.00" xmlns="http://www.w3.org/2000/svg" xmlns:xlink="http://www.w3.org/1999/xlink">
<g id="graph0" class="graph" transform="scale(1 1) rotate(0) translate(4 200)">
<title>CollisionManager</title>
<polygon fill="white" stroke="white" points="-4,4 -4,-200 259,-200 259,4 -4,4"/>
<!-- Node1 -->
<g id="node1" class="node"><title>Node1</title>
<polygon fill="#bfbfbf" stroke="black" points="39,-1 39,-97 161,-97 161,-1 39,-1"/>
<text text-anchor="middle" x="100" y="-84.2" font-family="Segoe UI Semibold" font-size="11.00">CollisionManager</text>
<polyline fill="none" stroke="black" points="39,-77 161,-77 "/>
<text text-anchor="start" x="47" y="-64.2" font-family="Segoe UI Semibold" font-size="11.00">+ enemyManager</text>
<text text-anchor="start" x="47" y="-52.2" font-family="Segoe UI Semibold" font-size="11.00">+ hudManager</text>
<text text-anchor="start" x="47" y="-40.2" font-family="Segoe UI Semibold" font-size="11.00">+ soundManager</text>
<text text-anchor="start" x="47" y="-28.2" font-family="Segoe UI Semibold" font-size="11.00">+ powerUpManager</text>
<polyline fill="none" stroke="black" points="39,-21 161,-21 "/>
<text text-anchor="start" x="47" y="-8.2" font-family="Segoe UI Semibold" font-size="11.00">+ initWithScene:</text>
</g>
<!-- Node2 -->
<g id="node2" class="node"><title>Node2</title>
<polygon fill="white" stroke="#bfbfbf" points="-0.5,-135 -0.5,-195 64.5,-195 64.5,-135 -0.5,-135"/>
<text text-anchor="middle" x="32" y="-182.2" font-family="Segoe UI Semibold" font-size="11.00">NSObject</text>
<polyline fill="none" stroke="#bfbfbf" points="-0.5,-175 64.5,-175 "/>
<text text-anchor="middle" x="32" y="-162.2" font-family="Segoe UI Semibold" font-size="11.00"> </text>
<polyline fill="none" stroke="#bfbfbf" points="-0.5,-155 64.5,-155 "/>
<text text-anchor="middle" x="32" y="-142.2" font-family="Segoe UI Semibold" font-size="11.00"> </text>
</g>
<!-- Node2&#45;&gt;Node1 -->
<g id="edge1" class="edge"><title>Node2&#45;&gt;Node1</title>
<path fill="none" stroke="midnightblue" d="M54.4978,-126.283C60.0547,-116.967 66.0762,-106.872 71.864,-97.1692"/>
<polygon fill="none" stroke="midnightblue" points="51.4522,-124.557 49.3352,-134.938 57.4639,-128.143 51.4522,-124.557"/>
</g>
<!-- Node3 -->
<g id="node3" class="node"><title>Node3</title>
<polygon fill="white" stroke="#bfbfbf" points="83,-135 83,-195 255,-195 255,-135 83,-135"/>
<text text-anchor="middle" x="169" y="-182.2" font-family="Segoe UI Semibold" font-size="11.00">&lt;SKPhysicsContactDelegate&gt;</text>
<polyline fill="none" stroke="#bfbfbf" points="83,-175 255,-175 "/>
<text text-anchor="middle" x="169" y="-162.2" font-family="Segoe UI Semibold" font-size="11.00"> </text>
<polyline fill="none" stroke="#bfbfbf" points="83,-155 255,-155 "/>
<text text-anchor="middle" x="169" y="-142.2" font-family="Segoe UI Semibold" font-size="11.00"> </text>
</g>
<!-- Node3&#45;&gt;Node1 -->
<g id="edge2" class="edge"><title>Node3&#45;&gt;Node1</title>
<path fill="none" stroke="midnightblue" d="M146.171,-126.283C140.533,-116.967 134.423,-106.872 128.55,-97.1692"/>
<polygon fill="none" stroke="midnightblue" points="143.238,-128.195 151.41,-134.938 149.226,-124.571 143.238,-128.195"/>
</g>
</g>
</svg>
