<?xml version="1.0" encoding="UTF-8" standalone="no"?>
<!DOCTYPE svg PUBLIC "-//W3C//DTD SVG 1.1//EN"
 "http://www.w3.org/Graphics/SVG/1.1/DTD/svg11.dtd">
<!-- Generated by graphviz version 2.34.0 (20130907.0111)
 -->
<!-- Title: SoundManager Pages: 1 -->
<svg width="150pt" height="192pt"
 viewBox="0.00 0.00 150.00 192.00" xmlns="http://www.w3.org/2000/svg" xmlns:xlink="http://www.w3.org/1999/xlink">
<g id="graph0" class="graph" transform="scale(1 1) rotate(0) translate(4 188)">
<title>SoundManager</title>
<polygon fill="white" stroke="white" points="-4,4 -4,-188 146,-188 146,4 -4,4"/>
<!-- Node1 -->
<g id="node1" class="node"><title>Node1</title>
<polygon fill="#bfbfbf" stroke="black" points="-0.5,-1 -0.5,-85 142.5,-85 142.5,-1 -0.5,-1"/>
<text text-anchor="middle" x="71" y="-72.2" font-family="Segoe UI Semibold" font-size="11.00">SoundManager</text>
<polyline fill="none" stroke="black" points="-0.5,-65 142.5,-65 "/>
<text text-anchor="middle" x="71" y="-52.2" font-family="Segoe UI Semibold" font-size="11.00"> </text>
<polyline fill="none" stroke="black" points="-0.5,-45 142.5,-45 "/>
<text text-anchor="start" x="7.5" y="-32.2" font-family="Segoe UI Semibold" font-size="11.00">+ playSound:</text>
<text text-anchor="start" x="7.5" y="-20.2" font-family="Segoe UI Semibold" font-size="11.00">+ playBackgroundMusic</text>
<text text-anchor="start" x="7.5" y="-8.2" font-family="Segoe UI Semibold" font-size="11.00">+ stop</text>
</g>
<!-- Node2 -->
<g id="node2" class="node"><title>Node2</title>
<polygon fill="white" stroke="#bfbfbf" points="41.5,-123 41.5,-183 100.5,-183 100.5,-123 41.5,-123"/>
<text text-anchor="middle" x="71" y="-170.2" font-family="Segoe UI Semibold" font-size="11.00">SKNode</text>
<polyline fill="none" stroke="#bfbfbf" points="41.5,-163 100.5,-163 "/>
<text text-anchor="middle" x="71" y="-150.2" font-family="Segoe UI Semibold" font-size="11.00"> </text>
<polyline fill="none" stroke="#bfbfbf" points="41.5,-143 100.5,-143 "/>
<text text-anchor="middle" x="71" y="-130.2" font-family="Segoe UI Semibold" font-size="11.00"> </text>
</g>
<!-- Node2&#45;&gt;Node1 -->
<g id="edge1" class="edge"><title>Node2&#45;&gt;Node1</title>
<path fill="none" stroke="midnightblue" d="M71,-112.572C71,-103.598 71,-94.0446 71,-85.007"/>
<polygon fill="none" stroke="midnightblue" points="67.5001,-112.774 71,-122.774 74.5001,-112.774 67.5001,-112.774"/>
</g>
</g>
</svg>
