<?xml version="1.0" encoding="UTF-8" standalone="no"?>
<!DOCTYPE svg PUBLIC "-//W3C//DTD SVG 1.1//EN"
 "http://www.w3.org/Graphics/SVG/1.1/DTD/svg11.dtd">
<!-- Generated by graphviz version 2.34.0 (20130907.0111)
 -->
<!-- Title: PowerUp Pages: 1 -->
<svg width="329pt" height="302pt"
 viewBox="0.00 0.00 329.00 302.00" xmlns="http://www.w3.org/2000/svg" xmlns:xlink="http://www.w3.org/1999/xlink">
<g id="graph0" class="graph" transform="scale(1 1) rotate(0) translate(4 298)">
<title>PowerUp</title>
<polygon fill="white" stroke="white" points="-4,4 -4,-298 325,-298 325,4 -4,4"/>
<!-- Node1 -->
<g id="node1" class="node"><title>Node1</title>
<polygon fill="#bfbfbf" stroke="black" points="97.5,-99 97.5,-195 240.5,-195 240.5,-99 97.5,-99"/>
<text text-anchor="middle" x="169" y="-182.2" font-family="Segoe UI Semibold" font-size="11.00">PowerUp</text>
<polyline fill="none" stroke="black" points="97.5,-175 240.5,-175 "/>
<text text-anchor="start" x="105.5" y="-162.2" font-family="Segoe UI Semibold" font-size="11.00">+ timeToLive</text>
<polyline fill="none" stroke="black" points="97.5,-155 240.5,-155 "/>
<text text-anchor="start" x="105.5" y="-142.2" font-family="Segoe UI Semibold" font-size="11.00">+ didBeginContactWith:</text>
<text text-anchor="start" x="105.5" y="-130.2" font-family="Segoe UI Semibold" font-size="11.00">+ update</text>
<text text-anchor="start" x="105.5" y="-118.2" font-family="Segoe UI Semibold" font-size="11.00">+ changePosition</text>
<text text-anchor="start" x="105.5" y="-106.2" font-family="Segoe UI Semibold" font-size="11.00">+ chanceToSpawn</text>
</g>
<!-- Node3 -->
<g id="node3" class="node"><title>Node3</title>
<g id="a_node3"><a xlink:href="interface_immortal.html" target="_top" xlink:title="{Immortal\n||}">
<polygon fill="white" stroke="black" points="0,-1 0,-61 66,-61 66,-1 0,-1"/>
<text text-anchor="middle" x="33" y="-48.2" font-family="Segoe UI Semibold" font-size="11.00">Immortal</text>
<polyline fill="none" stroke="black" points="0,-41 66,-41 "/>
<text text-anchor="middle" x="33" y="-28.2" font-family="Segoe UI Semibold" font-size="11.00"> </text>
<polyline fill="none" stroke="black" points="0,-21 66,-21 "/>
<text text-anchor="middle" x="33" y="-8.2" font-family="Segoe UI Semibold" font-size="11.00"> </text>
</a>
</g>
</g>
<!-- Node1&#45;&gt;Node3 -->
<g id="edge2" class="edge"><title>Node1&#45;&gt;Node3</title>
<path fill="none" stroke="midnightblue" d="M104.991,-92.3453C91.492,-81.0301 77.7826,-69.5384 66.0004,-59.6621"/>
<polygon fill="none" stroke="midnightblue" points="102.986,-95.2319 112.898,-98.9737 107.483,-89.8673 102.986,-95.2319"/>
</g>
<!-- Node4 -->
<g id="node4" class="node"><title>Node4</title>
<g id="a_node4"><a xlink:href="interface_scoreboost.html" target="_top" xlink:title="{Scoreboost\n||}">
<polygon fill="white" stroke="black" points="84.5,-1 84.5,-61 159.5,-61 159.5,-1 84.5,-1"/>
<text text-anchor="middle" x="122" y="-48.2" font-family="Segoe UI Semibold" font-size="11.00">Scoreboost</text>
<polyline fill="none" stroke="black" points="84.5,-41 159.5,-41 "/>
<text text-anchor="middle" x="122" y="-28.2" font-family="Segoe UI Semibold" font-size="11.00"> </text>
<polyline fill="none" stroke="black" points="84.5,-21 159.5,-21 "/>
<text text-anchor="middle" x="122" y="-8.2" font-family="Segoe UI Semibold" font-size="11.00"> </text>
</a>
</g>
</g>
<!-- Node1&#45;&gt;Node4 -->
<g id="edge3" class="edge"><title>Node1&#45;&gt;Node4</title>
<path fill="none" stroke="midnightblue" d="M145.756,-89.6215C141.715,-79.8197 137.664,-69.9935 134.081,-61.3023"/>
<polygon fill="none" stroke="midnightblue" points="142.565,-91.0626 149.612,-98.9737 149.036,-88.3945 142.565,-91.0626"/>
</g>
<!-- Node5 -->
<g id="node5" class="node"><title>Node5</title>
<g id="a_node5"><a xlink:href="interface_speedboost.html" target="_top" xlink:title="{Speedboost\n||}">
<polygon fill="white" stroke="black" points="178,-1 178,-61 256,-61 256,-1 178,-1"/>
<text text-anchor="middle" x="217" y="-48.2" font-family="Segoe UI Semibold" font-size="11.00">Speedboost</text>
<polyline fill="none" stroke="black" points="178,-41 256,-41 "/>
<text text-anchor="middle" x="217" y="-28.2" font-family="Segoe UI Semibold" font-size="11.00"> </text>
<polyline fill="none" stroke="black" points="178,-21 256,-21 "/>
<text text-anchor="middle" x="217" y="-8.2" font-family="Segoe UI Semibold" font-size="11.00"> </text>
</a>
</g>
</g>
<!-- Node1&#45;&gt;Node5 -->
<g id="edge4" class="edge"><title>Node1&#45;&gt;Node5</title>
<path fill="none" stroke="midnightblue" d="M192.738,-89.6215C196.865,-79.8197 201.003,-69.9935 204.662,-61.3023"/>
<polygon fill="none" stroke="midnightblue" points="189.455,-88.3991 188.801,-98.9737 195.907,-91.1155 189.455,-88.3991"/>
</g>
<!-- Node6 -->
<g id="node6" class="node"><title>Node6</title>
<g id="a_node6"><a xlink:href="interface_tinier.html" target="_top" xlink:title="{Tinier\n||}">
<polygon fill="white" stroke="black" points="274.5,-1 274.5,-61 321.5,-61 321.5,-1 274.5,-1"/>
<text text-anchor="middle" x="298" y="-48.2" font-family="Segoe UI Semibold" font-size="11.00">Tinier</text>
<polyline fill="none" stroke="black" points="274.5,-41 321.5,-41 "/>
<text text-anchor="middle" x="298" y="-28.2" font-family="Segoe UI Semibold" font-size="11.00"> </text>
<polyline fill="none" stroke="black" points="274.5,-21 321.5,-21 "/>
<text text-anchor="middle" x="298" y="-8.2" font-family="Segoe UI Semibold" font-size="11.00"> </text>
</a>
</g>
</g>
<!-- Node1&#45;&gt;Node6 -->
<g id="edge5" class="edge"><title>Node1&#45;&gt;Node6</title>
<path fill="none" stroke="midnightblue" d="M231.009,-92.047C242.35,-82.093 254.056,-71.7612 265,-62 268.005,-59.3201 271.15,-56.4911 274.256,-53.6841"/>
<polygon fill="none" stroke="midnightblue" points="228.443,-89.6424 223.23,-98.8662 233.057,-94.9063 228.443,-89.6424"/>
</g>
<!-- Node2 -->
<g id="node2" class="node"><title>Node2</title>
<polygon fill="white" stroke="#bfbfbf" points="124.5,-233 124.5,-293 213.5,-293 213.5,-233 124.5,-233"/>
<text text-anchor="middle" x="169" y="-280.2" font-family="Segoe UI Semibold" font-size="11.00">SKSpriteNode</text>
<polyline fill="none" stroke="#bfbfbf" points="124.5,-273 213.5,-273 "/>
<text text-anchor="middle" x="169" y="-260.2" font-family="Segoe UI Semibold" font-size="11.00"> </text>
<polyline fill="none" stroke="#bfbfbf" points="124.5,-253 213.5,-253 "/>
<text text-anchor="middle" x="169" y="-240.2" font-family="Segoe UI Semibold" font-size="11.00"> </text>
</g>
<!-- Node2&#45;&gt;Node1 -->
<g id="edge1" class="edge"><title>Node2&#45;&gt;Node1</title>
<path fill="none" stroke="midnightblue" d="M169,-222.836C169,-213.928 169,-204.372 169,-195.169"/>
<polygon fill="none" stroke="midnightblue" points="165.5,-222.938 169,-232.938 172.5,-222.938 165.5,-222.938"/>
</g>
</g>
</svg>
