<?xml version="1.0" encoding="UTF-8" standalone="no"?>
<!DOCTYPE svg PUBLIC "-//W3C//DTD SVG 1.1//EN"
 "http://www.w3.org/Graphics/SVG/1.1/DTD/svg11.dtd">
<!-- Generated by graphviz version 2.34.0 (20130907.0111)
 -->
<!-- Title: CollisionManager Pages: 1 -->
<svg width="526pt" height="218pt"
 viewBox="0.00 0.00 526.00 217.78" xmlns="http://www.w3.org/2000/svg" xmlns:xlink="http://www.w3.org/1999/xlink">
<g id="graph0" class="graph" transform="scale(1 1) rotate(0) translate(4 213.778)">
<title>CollisionManager</title>
<polygon fill="white" stroke="white" points="-4,4 -4,-213.778 522,-213.778 522,4 -4,4"/>
<!-- Node1 -->
<g id="node1" class="node"><title>Node1</title>
<polygon fill="#bfbfbf" stroke="black" points="410.5,-97 410.5,-117 517.5,-117 517.5,-97 410.5,-97"/>
<text text-anchor="middle" x="464" y="-104.2" font-family="Segoe UI Semibold" font-size="11.00">CollisionManager</text>
</g>
<!-- Node2 -->
<g id="node2" class="node"><title>Node2</title>
<polygon fill="white" stroke="#bfbfbf" points="0.5,-139 0.5,-159 65.5,-159 65.5,-139 0.5,-139"/>
<text text-anchor="middle" x="33" y="-146.2" font-family="Segoe UI Semibold" font-size="11.00">NSObject</text>
</g>
<!-- Node2&#45;&gt;Node1 -->
<g id="edge1" class="edge"><title>Node2&#45;&gt;Node1</title>
<path fill="none" stroke="midnightblue" d="M57.274,-164.527C70.3936,-172.342 87.4337,-180.99 104,-185 228.533,-215.146 275.345,-225.001 392,-172 419.387,-159.557 443.362,-132.477 455.184,-117.495"/>
<polygon fill="midnightblue" stroke="midnightblue" points="58.8179,-161.366 48.4765,-159.062 55.1242,-167.312 58.8179,-161.366"/>
</g>
<!-- Node4 -->
<g id="node4" class="node"><title>Node4</title>
<g id="a_node4"><a xlink:href="interface_power_up_manager.html" target="_top" xlink:title="Responsible for updating and drawing anything related to power ups. ">
<polygon fill="white" stroke="black" points="134.5,-156 134.5,-176 245.5,-176 245.5,-156 134.5,-156"/>
<text text-anchor="middle" x="190" y="-163.2" font-family="Segoe UI Semibold" font-size="11.00">PowerUpManager</text>
</a>
</g>
</g>
<!-- Node2&#45;&gt;Node4 -->
<g id="edge4" class="edge"><title>Node2&#45;&gt;Node4</title>
<path fill="none" stroke="midnightblue" d="M75.9202,-153.598C93.9198,-155.572 115.19,-157.905 134.398,-160.011"/>
<polygon fill="midnightblue" stroke="midnightblue" points="76.0626,-150.092 65.7406,-152.481 75.2994,-157.051 76.0626,-150.092"/>
</g>
<!-- Node5 -->
<g id="node5" class="node"><title>Node5</title>
<g id="a_node5"><a xlink:href="interface_h_u_d_manager.html" target="_top" xlink:title="Displays information for the player. ">
<polygon fill="white" stroke="black" points="146,-117 146,-137 234,-137 234,-117 146,-117"/>
<text text-anchor="middle" x="190" y="-124.2" font-family="Segoe UI Semibold" font-size="11.00">HUDManager</text>
</a>
</g>
</g>
<!-- Node2&#45;&gt;Node5 -->
<g id="edge6" class="edge"><title>Node2&#45;&gt;Node5</title>
<path fill="none" stroke="midnightblue" d="M75.6591,-143.087C97.3765,-140.005 123.909,-136.239 145.842,-133.126"/>
<polygon fill="midnightblue" stroke="midnightblue" points="75.1495,-139.624 65.7406,-144.495 76.1332,-146.555 75.1495,-139.624"/>
</g>
<!-- Node8 -->
<g id="node8" class="node"><title>Node8</title>
<g id="a_node8"><a xlink:href="interface_enemy_manager.html" target="_top" xlink:title="Responsible for handling all enemies. ">
<polygon fill="white" stroke="black" points="141,-78 141,-98 239,-98 239,-78 141,-78"/>
<text text-anchor="middle" x="190" y="-85.2" font-family="Segoe UI Semibold" font-size="11.00">EnemyManager</text>
</a>
</g>
</g>
<!-- Node2&#45;&gt;Node8 -->
<g id="edge10" class="edge"><title>Node2&#45;&gt;Node8</title>
<path fill="none" stroke="midnightblue" d="M56.2492,-133.126C69.5519,-124.293 87.1051,-113.751 104,-107 115.654,-102.343 128.687,-98.7083 140.978,-95.9228"/>
<polygon fill="midnightblue" stroke="midnightblue" points="54.0699,-130.376 47.7789,-138.901 58.0131,-136.16 54.0699,-130.376"/>
</g>
<!-- Node3 -->
<g id="node3" class="node"><title>Node3</title>
<polygon fill="white" stroke="#bfbfbf" points="104,-39 104,-59 276,-59 276,-39 104,-39"/>
<text text-anchor="middle" x="190" y="-46.2" font-family="Segoe UI Semibold" font-size="11.00">&lt;SKPhysicsContactDelegate&gt;</text>
</g>
<!-- Node3&#45;&gt;Node1 -->
<g id="edge2" class="edge"><title>Node3&#45;&gt;Node1</title>
<path fill="none" stroke="midnightblue" d="M282.453,-60.5454C317.053,-65.8177 356.611,-72.9394 392,-82 407.572,-85.9867 424.57,-91.9137 438.03,-96.9962"/>
<polygon fill="midnightblue" stroke="midnightblue" points="282.768,-57.0537 272.361,-59.0381 281.734,-63.9769 282.768,-57.0537"/>
</g>
<!-- Node4&#45;&gt;Node1 -->
<g id="edge3" class="edge"><title>Node4&#45;&gt;Node1</title>
<path fill="none" stroke="#9a32cd" stroke-dasharray="5,2" d="M256.007,-160.289C295.771,-155.817 347.399,-148.246 392,-136 409.334,-131.241 428.13,-123.436 442.026,-117.122"/>
<polygon fill="#9a32cd" stroke="#9a32cd" points="255.468,-156.827 245.905,-161.388 256.225,-163.786 255.468,-156.827"/>
<text text-anchor="middle" x="343" y="-159.2" font-family="Segoe UI Semibold" font-size="11.00"> powerUpManager</text>
</g>
<!-- Node5&#45;&gt;Node1 -->
<g id="edge5" class="edge"><title>Node5&#45;&gt;Node1</title>
<path fill="none" stroke="#9a32cd" stroke-dasharray="5,2" d="M244.292,-123.081C292.305,-119.551 362.491,-114.39 410.315,-110.874"/>
<polygon fill="#9a32cd" stroke="#9a32cd" points="243.816,-119.607 234.099,-123.831 244.329,-126.588 243.816,-119.607"/>
<text text-anchor="middle" x="343" y="-123.2" font-family="Segoe UI Semibold" font-size="11.00"> hudManager</text>
</g>
<!-- Node6 -->
<g id="node6" class="node"><title>Node6</title>
<g id="a_node6"><a xlink:href="interface_sound_manager.html" target="_top" xlink:title="Responsible for playing sound effects and music. ">
<polygon fill="white" stroke="black" points="142,-0 142,-20 238,-20 238,-0 142,-0"/>
<text text-anchor="middle" x="190" y="-7.2" font-family="Segoe UI Semibold" font-size="11.00">SoundManager</text>
</a>
</g>
</g>
<!-- Node6&#45;&gt;Node1 -->
<g id="edge7" class="edge"><title>Node6&#45;&gt;Node1</title>
<path fill="none" stroke="#9a32cd" stroke-dasharray="5,2" d="M248.368,-13.1562C289.916,-17.2384 346.534,-26.5898 392,-48 417.519,-60.0171 441.508,-83.3974 454.009,-96.8366"/>
<polygon fill="#9a32cd" stroke="#9a32cd" points="248.421,-9.64673 238.146,-12.2278 247.788,-16.618 248.421,-9.64673"/>
<text text-anchor="middle" x="343" y="-51.2" font-family="Segoe UI Semibold" font-size="11.00"> soundManager</text>
</g>
<!-- Node7 -->
<g id="node7" class="node"><title>Node7</title>
<polygon fill="white" stroke="#bfbfbf" points="3.5,-0 3.5,-20 62.5,-20 62.5,-0 3.5,-0"/>
<text text-anchor="middle" x="33" y="-7.2" font-family="Segoe UI Semibold" font-size="11.00">SKNode</text>
</g>
<!-- Node7&#45;&gt;Node6 -->
<g id="edge8" class="edge"><title>Node7&#45;&gt;Node6</title>
<path fill="none" stroke="midnightblue" d="M72.9115,-10C93.8131,-10 119.742,-10 141.79,-10"/>
<polygon fill="midnightblue" stroke="midnightblue" points="72.7911,-6.5001 62.7911,-10 72.791,-13.5001 72.7911,-6.5001"/>
</g>
<!-- Node8&#45;&gt;Node1 -->
<g id="edge9" class="edge"><title>Node8&#45;&gt;Node1</title>
<path fill="none" stroke="#9a32cd" stroke-dasharray="5,2" d="M249.274,-85.7017C289.512,-84.8887 344.179,-85.3169 392,-91 402.916,-92.2973 414.613,-94.5607 425.299,-96.9838"/>
<polygon fill="#9a32cd" stroke="#9a32cd" points="249.023,-82.2065 239.107,-85.9396 249.187,-89.2046 249.023,-82.2065"/>
<text text-anchor="middle" x="343" y="-94.2" font-family="Segoe UI Semibold" font-size="11.00"> enemyManager</text>
</g>
</g>
</svg>
