<?xml version="1.0" encoding="UTF-8" standalone="no"?>
<!DOCTYPE svg PUBLIC "-//W3C//DTD SVG 1.1//EN"
 "http://www.w3.org/Graphics/SVG/1.1/DTD/svg11.dtd">
<!-- Generated by graphviz version 2.34.0 (20130907.0111)
 -->
<!-- Title: Message Pages: 1 -->
<svg width="106pt" height="204pt"
 viewBox="0.00 0.00 106.00 204.00" xmlns="http://www.w3.org/2000/svg" xmlns:xlink="http://www.w3.org/1999/xlink">
<g id="graph0" class="graph" transform="scale(1 1) rotate(0) translate(4 200)">
<title>Message</title>
<polygon fill="white" stroke="white" points="-4,4 -4,-200 102,-200 102,4 -4,4"/>
<!-- Node1 -->
<g id="node1" class="node"><title>Node1</title>
<polygon fill="#bfbfbf" stroke="black" points="-0.5,-1 -0.5,-97 98.5,-97 98.5,-1 -0.5,-1"/>
<text text-anchor="middle" x="49" y="-84.2" font-family="Segoe UI Semibold" font-size="11.00">Message</text>
<polyline fill="none" stroke="black" points="-0.5,-77 98.5,-77 "/>
<text text-anchor="start" x="7.5" y="-64.2" font-family="Segoe UI Semibold" font-size="11.00">+ messageType</text>
<text text-anchor="start" x="7.5" y="-52.2" font-family="Segoe UI Semibold" font-size="11.00">+ position</text>
<text text-anchor="start" x="7.5" y="-40.2" font-family="Segoe UI Semibold" font-size="11.00">+ velocity</text>
<text text-anchor="start" x="7.5" y="-28.2" font-family="Segoe UI Semibold" font-size="11.00">+ args</text>
<polyline fill="none" stroke="black" points="-0.5,-21 98.5,-21 "/>
<text text-anchor="middle" x="49" y="-8.2" font-family="Segoe UI Semibold" font-size="11.00"> </text>
</g>
<!-- Node2 -->
<g id="node2" class="node"><title>Node2</title>
<polygon fill="white" stroke="#bfbfbf" points="16.5,-135 16.5,-195 81.5,-195 81.5,-135 16.5,-135"/>
<text text-anchor="middle" x="49" y="-182.2" font-family="Segoe UI Semibold" font-size="11.00">NSObject</text>
<polyline fill="none" stroke="#bfbfbf" points="16.5,-175 81.5,-175 "/>
<text text-anchor="middle" x="49" y="-162.2" font-family="Segoe UI Semibold" font-size="11.00"> </text>
<polyline fill="none" stroke="#bfbfbf" points="16.5,-155 81.5,-155 "/>
<text text-anchor="middle" x="49" y="-142.2" font-family="Segoe UI Semibold" font-size="11.00"> </text>
</g>
<!-- Node2&#45;&gt;Node1 -->
<g id="edge1" class="edge"><title>Node2&#45;&gt;Node1</title>
<path fill="none" stroke="midnightblue" d="M49,-124.836C49,-115.928 49,-106.372 49,-97.1692"/>
<polygon fill="none" stroke="midnightblue" points="45.5001,-124.938 49,-134.938 52.5001,-124.938 45.5001,-124.938"/>
</g>
</g>
</svg>
