<?xml version="1.0" encoding="UTF-8" standalone="no"?>
<!DOCTYPE svg PUBLIC "-//W3C//DTD SVG 1.1//EN"
 "http://www.w3.org/Graphics/SVG/1.1/DTD/svg11.dtd">
<!-- Generated by graphviz version 2.34.0 (20130907.0111)
 -->
<!-- Title: PowerUpManager Pages: 1 -->
<svg width="118pt" height="180pt"
 viewBox="0.00 0.00 118.00 180.00" xmlns="http://www.w3.org/2000/svg" xmlns:xlink="http://www.w3.org/1999/xlink">
<g id="graph0" class="graph" transform="scale(1 1) rotate(0) translate(4 176)">
<title>PowerUpManager</title>
<polygon fill="white" stroke="white" points="-4,4 -4,-176 114,-176 114,4 -4,4"/>
<!-- Node1 -->
<g id="node1" class="node"><title>Node1</title>
<polygon fill="#bfbfbf" stroke="black" points="-0.5,-1 -0.5,-73 110.5,-73 110.5,-1 -0.5,-1"/>
<text text-anchor="middle" x="55" y="-60.2" font-family="Segoe UI Semibold" font-size="11.00">PowerUpManager</text>
<polyline fill="none" stroke="black" points="-0.5,-53 110.5,-53 "/>
<text text-anchor="start" x="7.5" y="-40.2" font-family="Segoe UI Semibold" font-size="11.00">+ powerUps</text>
<polyline fill="none" stroke="black" points="-0.5,-33 110.5,-33 "/>
<text text-anchor="start" x="7.5" y="-20.2" font-family="Segoe UI Semibold" font-size="11.00">+ initWithScene:</text>
<text text-anchor="start" x="7.5" y="-8.2" font-family="Segoe UI Semibold" font-size="11.00">+ update</text>
</g>
<!-- Node2 -->
<g id="node2" class="node"><title>Node2</title>
<polygon fill="white" stroke="#bfbfbf" points="22.5,-111 22.5,-171 87.5,-171 87.5,-111 22.5,-111"/>
<text text-anchor="middle" x="55" y="-158.2" font-family="Segoe UI Semibold" font-size="11.00">NSObject</text>
<polyline fill="none" stroke="#bfbfbf" points="22.5,-151 87.5,-151 "/>
<text text-anchor="middle" x="55" y="-138.2" font-family="Segoe UI Semibold" font-size="11.00"> </text>
<polyline fill="none" stroke="#bfbfbf" points="22.5,-131 87.5,-131 "/>
<text text-anchor="middle" x="55" y="-118.2" font-family="Segoe UI Semibold" font-size="11.00"> </text>
</g>
<!-- Node2&#45;&gt;Node1 -->
<g id="edge1" class="edge"><title>Node2&#45;&gt;Node1</title>
<path fill="none" stroke="midnightblue" d="M55,-100.752C55,-91.6193 55,-81.9544 55,-73.0179"/>
<polygon fill="none" stroke="midnightblue" points="51.5001,-100.771 55,-110.771 58.5001,-100.771 51.5001,-100.771"/>
</g>
</g>
</svg>
