<?xml version="1.0" encoding="UTF-8" standalone="no"?>
<!DOCTYPE svg PUBLIC "-//W3C//DTD SVG 1.1//EN"
 "http://www.w3.org/Graphics/SVG/1.1/DTD/svg11.dtd">
<!-- Generated by graphviz version 2.34.0 (20130907.0111)
 -->
<!-- Title: MenuScene Pages: 1 -->
<svg width="84pt" height="168pt"
 viewBox="0.00 0.00 84.00 168.00" xmlns="http://www.w3.org/2000/svg" xmlns:xlink="http://www.w3.org/1999/xlink">
<g id="graph0" class="graph" transform="scale(1 1) rotate(0) translate(4 164)">
<title>MenuScene</title>
<polygon fill="white" stroke="white" points="-4,4 -4,-164 80,-164 80,4 -4,4"/>
<!-- Node1 -->
<g id="node1" class="node"><title>Node1</title>
<polygon fill="#bfbfbf" stroke="black" points="-0.5,-1 -0.5,-61 76.5,-61 76.5,-1 -0.5,-1"/>
<text text-anchor="middle" x="38" y="-48.2" font-family="Segoe UI Semibold" font-size="11.00">MenuScene</text>
<polyline fill="none" stroke="black" points="-0.5,-41 76.5,-41 "/>
<text text-anchor="middle" x="38" y="-28.2" font-family="Segoe UI Semibold" font-size="11.00"> </text>
<polyline fill="none" stroke="black" points="-0.5,-21 76.5,-21 "/>
<text text-anchor="middle" x="38" y="-8.2" font-family="Segoe UI Semibold" font-size="11.00"> </text>
</g>
<!-- Node2 -->
<g id="node2" class="node"><title>Node2</title>
<polygon fill="white" stroke="#bfbfbf" points="8,-99 8,-159 68,-159 68,-99 8,-99"/>
<text text-anchor="middle" x="38" y="-146.2" font-family="Segoe UI Semibold" font-size="11.00">SKScene</text>
<polyline fill="none" stroke="#bfbfbf" points="8,-139 68,-139 "/>
<text text-anchor="middle" x="38" y="-126.2" font-family="Segoe UI Semibold" font-size="11.00"> </text>
<polyline fill="none" stroke="#bfbfbf" points="8,-119 68,-119 "/>
<text text-anchor="middle" x="38" y="-106.2" font-family="Segoe UI Semibold" font-size="11.00"> </text>
</g>
<!-- Node2&#45;&gt;Node1 -->
<g id="edge1" class="edge"><title>Node2&#45;&gt;Node1</title>
<path fill="none" stroke="midnightblue" d="M38,-88.8172C38,-79.6194 38,-69.9744 38,-61.2962"/>
<polygon fill="none" stroke="midnightblue" points="34.5001,-88.9363 38,-98.9363 41.5001,-88.9363 34.5001,-88.9363"/>
</g>
</g>
</svg>
