<?xml version="1.0" encoding="UTF-8" standalone="no"?>
<!DOCTYPE svg PUBLIC "-//W3C//DTD SVG 1.1//EN"
 "http://www.w3.org/Graphics/SVG/1.1/DTD/svg11.dtd">
<!-- Generated by graphviz version 2.34.0 (20130907.0111)
 -->
<!-- Title: Scoreboost Pages: 1 -->
<svg width="96pt" height="146pt"
 viewBox="0.00 0.00 96.00 146.00" xmlns="http://www.w3.org/2000/svg" xmlns:xlink="http://www.w3.org/1999/xlink">
<g id="graph0" class="graph" transform="scale(1 1) rotate(0) translate(4 142)">
<title>Scoreboost</title>
<polygon fill="white" stroke="white" points="-4,4 -4,-142 92,-142 92,4 -4,4"/>
<!-- Node1 -->
<g id="node1" class="node"><title>Node1</title>
<polygon fill="#bfbfbf" stroke="black" points="6.5,-1 6.5,-21 81.5,-21 81.5,-1 6.5,-1"/>
<text text-anchor="middle" x="44" y="-8.2" font-family="Segoe UI Semibold" font-size="11.00">Scoreboost</text>
</g>
<!-- Node2 -->
<g id="node2" class="node"><title>Node2</title>
<g id="a_node2"><a xlink:href="interface_power_up.html" target="_top" xlink:title="PowerUp">
<polygon fill="white" stroke="black" points="11.5,-59 11.5,-79 76.5,-79 76.5,-59 11.5,-59"/>
<text text-anchor="middle" x="44" y="-66.2" font-family="Segoe UI Semibold" font-size="11.00">PowerUp</text>
</a>
</g>
</g>
<!-- Node2&#45;&gt;Node1 -->
<g id="edge1" class="edge"><title>Node2&#45;&gt;Node1</title>
<path fill="none" stroke="midnightblue" d="M44,-48.7065C44,-39.3384 44,-28.5262 44,-21.0752"/>
<polygon fill="midnightblue" stroke="midnightblue" points="40.5001,-48.7527 44,-58.7527 47.5001,-48.7528 40.5001,-48.7527"/>
</g>
<!-- Node3 -->
<g id="node3" class="node"><title>Node3</title>
<polygon fill="white" stroke="#bfbfbf" points="-0.5,-117 -0.5,-137 88.5,-137 88.5,-117 -0.5,-117"/>
<text text-anchor="middle" x="44" y="-124.2" font-family="Segoe UI Semibold" font-size="11.00">SKSpriteNode</text>
</g>
<!-- Node3&#45;&gt;Node2 -->
<g id="edge2" class="edge"><title>Node3&#45;&gt;Node2</title>
<path fill="none" stroke="midnightblue" d="M44,-106.707C44,-97.3384 44,-86.5262 44,-79.0752"/>
<polygon fill="midnightblue" stroke="midnightblue" points="40.5001,-106.753 44,-116.753 47.5001,-106.753 40.5001,-106.753"/>
</g>
</g>
</svg>
