<?xml version="1.0" encoding="UTF-8" standalone="no"?>
<!DOCTYPE svg PUBLIC "-//W3C//DTD SVG 1.1//EN"
 "http://www.w3.org/Graphics/SVG/1.1/DTD/svg11.dtd">
<!-- Generated by graphviz version 2.34.0 (20130907.0111)
 -->
<!-- Title: PlayerController Pages: 1 -->
<svg width="172pt" height="204pt"
 viewBox="0.00 0.00 172.00 204.00" xmlns="http://www.w3.org/2000/svg" xmlns:xlink="http://www.w3.org/1999/xlink">
<g id="graph0" class="graph" transform="scale(1 1) rotate(0) translate(4 200)">
<title>PlayerController</title>
<polygon fill="white" stroke="white" points="-4,4 -4,-200 168,-200 168,4 -4,4"/>
<!-- Node1 -->
<g id="node1" class="node"><title>Node1</title>
<polygon fill="#bfbfbf" stroke="black" points="0,-1 0,-97 164,-97 164,-1 0,-1"/>
<text text-anchor="middle" x="82" y="-84.2" font-family="Segoe UI Semibold" font-size="11.00">PlayerController</text>
<polyline fill="none" stroke="black" points="0,-77 164,-77 "/>
<text text-anchor="middle" x="82" y="-64.2" font-family="Segoe UI Semibold" font-size="11.00"> </text>
<polyline fill="none" stroke="black" points="0,-57 164,-57 "/>
<text text-anchor="start" x="8" y="-44.2" font-family="Segoe UI Semibold" font-size="11.00">+ touchesBegan:withEvent:</text>
<text text-anchor="start" x="8" y="-32.2" font-family="Segoe UI Semibold" font-size="11.00">+ touchesMoved:withEvent:</text>
<text text-anchor="start" x="8" y="-20.2" font-family="Segoe UI Semibold" font-size="11.00">+ touchesEnded:withEvent:</text>
<text text-anchor="start" x="8" y="-8.2" font-family="Segoe UI Semibold" font-size="11.00">+ getJoystickVelocity</text>
</g>
<!-- Node2 -->
<g id="node2" class="node"><title>Node2</title>
<polygon fill="white" stroke="#bfbfbf" points="37.5,-135 37.5,-195 126.5,-195 126.5,-135 37.5,-135"/>
<text text-anchor="middle" x="82" y="-182.2" font-family="Segoe UI Semibold" font-size="11.00">SKSpriteNode</text>
<polyline fill="none" stroke="#bfbfbf" points="37.5,-175 126.5,-175 "/>
<text text-anchor="middle" x="82" y="-162.2" font-family="Segoe UI Semibold" font-size="11.00"> </text>
<polyline fill="none" stroke="#bfbfbf" points="37.5,-155 126.5,-155 "/>
<text text-anchor="middle" x="82" y="-142.2" font-family="Segoe UI Semibold" font-size="11.00"> </text>
</g>
<!-- Node2&#45;&gt;Node1 -->
<g id="edge1" class="edge"><title>Node2&#45;&gt;Node1</title>
<path fill="none" stroke="midnightblue" d="M82,-124.836C82,-115.928 82,-106.372 82,-97.1692"/>
<polygon fill="none" stroke="midnightblue" points="78.5001,-124.938 82,-134.938 85.5001,-124.938 78.5001,-124.938"/>
</g>
</g>
</svg>
