<?xml version="1.0" encoding="UTF-8" standalone="no"?>
<!DOCTYPE svg PUBLIC "-//W3C//DTD SVG 1.1//EN"
 "http://www.w3.org/Graphics/SVG/1.1/DTD/svg11.dtd">
<!-- Generated by graphviz version 2.34.0 (20130907.0111)
 -->
<!-- Title: EnemyManager Pages: 1 -->
<svg width="204pt" height="216pt"
 viewBox="0.00 0.00 204.00 216.00" xmlns="http://www.w3.org/2000/svg" xmlns:xlink="http://www.w3.org/1999/xlink">
<g id="graph0" class="graph" transform="scale(1 1) rotate(0) translate(4 212)">
<title>EnemyManager</title>
<polygon fill="white" stroke="white" points="-4,4 -4,-212 200,-212 200,4 -4,4"/>
<!-- Node1 -->
<g id="node1" class="node"><title>Node1</title>
<polygon fill="#bfbfbf" stroke="black" points="0,-1 0,-109 196,-109 196,-1 0,-1"/>
<text text-anchor="middle" x="98" y="-96.2" font-family="Segoe UI Semibold" font-size="11.00">EnemyManager</text>
<polyline fill="none" stroke="black" points="0,-89 196,-89 "/>
<text text-anchor="middle" x="98" y="-76.2" font-family="Segoe UI Semibold" font-size="11.00"> </text>
<polyline fill="none" stroke="black" points="0,-69 196,-69 "/>
<text text-anchor="start" x="8" y="-56.2" font-family="Segoe UI Semibold" font-size="11.00">+ initWithScene:</text>
<text text-anchor="start" x="8" y="-44.2" font-family="Segoe UI Semibold" font-size="11.00">+ update:</text>
<text text-anchor="start" x="8" y="-32.2" font-family="Segoe UI Semibold" font-size="11.00">+ createEnemyWithPlayerPostion:</text>
<text text-anchor="start" x="8" y="-20.2" font-family="Segoe UI Semibold" font-size="11.00">+ createEnemyWithMessage:</text>
<text text-anchor="start" x="8" y="-8.2" font-family="Segoe UI Semibold" font-size="11.00">+ removeAllEnemies</text>
</g>
<!-- Node2 -->
<g id="node2" class="node"><title>Node2</title>
<polygon fill="white" stroke="#bfbfbf" points="65.5,-147 65.5,-207 130.5,-207 130.5,-147 65.5,-147"/>
<text text-anchor="middle" x="98" y="-194.2" font-family="Segoe UI Semibold" font-size="11.00">NSObject</text>
<polyline fill="none" stroke="#bfbfbf" points="65.5,-187 130.5,-187 "/>
<text text-anchor="middle" x="98" y="-174.2" font-family="Segoe UI Semibold" font-size="11.00"> </text>
<polyline fill="none" stroke="#bfbfbf" points="65.5,-167 130.5,-167 "/>
<text text-anchor="middle" x="98" y="-154.2" font-family="Segoe UI Semibold" font-size="11.00"> </text>
</g>
<!-- Node2&#45;&gt;Node1 -->
<g id="edge1" class="edge"><title>Node2&#45;&gt;Node1</title>
<path fill="none" stroke="midnightblue" d="M98,-136.923C98,-128.061 98,-118.503 98,-109.169"/>
<polygon fill="none" stroke="midnightblue" points="94.5001,-136.951 98,-146.951 101.5,-136.951 94.5001,-136.951"/>
</g>
</g>
</svg>
