<?xml version="1.0" encoding="UTF-8" standalone="no"?>
<!DOCTYPE svg PUBLIC "-//W3C//DTD SVG 1.1//EN"
 "http://www.w3.org/Graphics/SVG/1.1/DTD/svg11.dtd">
<!-- Generated by graphviz version 2.34.0 (20130907.0111)
 -->
<!-- Title: ParticleManager Pages: 1 -->
<svg width="196pt" height="192pt"
 viewBox="0.00 0.00 196.00 192.00" xmlns="http://www.w3.org/2000/svg" xmlns:xlink="http://www.w3.org/1999/xlink">
<g id="graph0" class="graph" transform="scale(1 1) rotate(0) translate(4 188)">
<title>ParticleManager</title>
<polygon fill="white" stroke="white" points="-4,4 -4,-188 192,-188 192,4 -4,4"/>
<!-- Node1 -->
<g id="node1" class="node"><title>Node1</title>
<polygon fill="#bfbfbf" stroke="black" points="0,-1 0,-85 188,-85 188,-1 0,-1"/>
<text text-anchor="middle" x="94" y="-72.2" font-family="Segoe UI Semibold" font-size="11.00">ParticleManager</text>
<polyline fill="none" stroke="black" points="0,-65 188,-65 "/>
<text text-anchor="middle" x="94" y="-52.2" font-family="Segoe UI Semibold" font-size="11.00"> </text>
<polyline fill="none" stroke="black" points="0,-45 188,-45 "/>
<text text-anchor="start" x="8" y="-32.2" font-family="Segoe UI Semibold" font-size="11.00">+ initWithScene:</text>
<text text-anchor="start" x="8" y="-20.2" font-family="Segoe UI Semibold" font-size="11.00">+ createStarSparksAtPosition:</text>
<text text-anchor="start" x="8" y="-8.2" font-family="Segoe UI Semibold" font-size="11.00">+ createEnemySparksAtPosition:</text>
</g>
<!-- Node2 -->
<g id="node2" class="node"><title>Node2</title>
<polygon fill="white" stroke="#bfbfbf" points="61.5,-123 61.5,-183 126.5,-183 126.5,-123 61.5,-123"/>
<text text-anchor="middle" x="94" y="-170.2" font-family="Segoe UI Semibold" font-size="11.00">NSObject</text>
<polyline fill="none" stroke="#bfbfbf" points="61.5,-163 126.5,-163 "/>
<text text-anchor="middle" x="94" y="-150.2" font-family="Segoe UI Semibold" font-size="11.00"> </text>
<polyline fill="none" stroke="#bfbfbf" points="61.5,-143 126.5,-143 "/>
<text text-anchor="middle" x="94" y="-130.2" font-family="Segoe UI Semibold" font-size="11.00"> </text>
</g>
<!-- Node2&#45;&gt;Node1 -->
<g id="edge1" class="edge"><title>Node2&#45;&gt;Node1</title>
<path fill="none" stroke="midnightblue" d="M94,-112.572C94,-103.598 94,-94.0446 94,-85.007"/>
<polygon fill="none" stroke="midnightblue" points="90.5001,-112.774 94,-122.774 97.5001,-112.774 90.5001,-112.774"/>
</g>
</g>
</svg>
