<?xml version="1.0" encoding="UTF-8" standalone="no"?>
<!DOCTYPE svg PUBLIC "-//W3C//DTD SVG 1.1//EN"
 "http://www.w3.org/Graphics/SVG/1.1/DTD/svg11.dtd">
<!-- Generated by graphviz version 2.34.0 (20130907.0111)
 -->
<!-- Title: PowerUpManager Pages: 1 -->
<svg width="198pt" height="228pt"
 viewBox="0.00 0.00 198.00 228.00" xmlns="http://www.w3.org/2000/svg" xmlns:xlink="http://www.w3.org/1999/xlink">
<g id="graph0" class="graph" transform="scale(1 1) rotate(0) translate(4 224)">
<title>PowerUpManager</title>
<polygon fill="white" stroke="white" points="-4,4 -4,-224 194,-224 194,4 -4,4"/>
<!-- Node1 -->
<g id="node1" class="node"><title>Node1</title>
<polygon fill="#bfbfbf" stroke="black" points="0,-1 0,-121 190,-121 190,-1 0,-1"/>
<text text-anchor="middle" x="95" y="-108.2" font-family="Segoe UI Semibold" font-size="11.00">PowerUpManager</text>
<polyline fill="none" stroke="black" points="0,-101 190,-101 "/>
<text text-anchor="middle" x="95" y="-88.2" font-family="Segoe UI Semibold" font-size="11.00"> </text>
<polyline fill="none" stroke="black" points="0,-81 190,-81 "/>
<text text-anchor="start" x="8" y="-68.2" font-family="Segoe UI Semibold" font-size="11.00">+ initWithScene:</text>
<text text-anchor="start" x="8" y="-56.2" font-family="Segoe UI Semibold" font-size="11.00">+ update</text>
<text text-anchor="start" x="8" y="-44.2" font-family="Segoe UI Semibold" font-size="11.00">+ createPowerUpWithMessage:</text>
<text text-anchor="start" x="8" y="-32.2" font-family="Segoe UI Semibold" font-size="11.00">+ removePowerUpWithMessage:</text>
<text text-anchor="start" x="8" y="-20.2" font-family="Segoe UI Semibold" font-size="11.00">+ removePowerUpWithName:</text>
<text text-anchor="start" x="8" y="-8.2" font-family="Segoe UI Semibold" font-size="11.00">+ stop</text>
</g>
<!-- Node2 -->
<g id="node2" class="node"><title>Node2</title>
<polygon fill="white" stroke="#bfbfbf" points="62.5,-159 62.5,-219 127.5,-219 127.5,-159 62.5,-159"/>
<text text-anchor="middle" x="95" y="-206.2" font-family="Segoe UI Semibold" font-size="11.00">NSObject</text>
<polyline fill="none" stroke="#bfbfbf" points="62.5,-199 127.5,-199 "/>
<text text-anchor="middle" x="95" y="-186.2" font-family="Segoe UI Semibold" font-size="11.00"> </text>
<polyline fill="none" stroke="#bfbfbf" points="62.5,-179 127.5,-179 "/>
<text text-anchor="middle" x="95" y="-166.2" font-family="Segoe UI Semibold" font-size="11.00"> </text>
</g>
<!-- Node2&#45;&gt;Node1 -->
<g id="edge1" class="edge"><title>Node2&#45;&gt;Node1</title>
<path fill="none" stroke="midnightblue" d="M95,-148.546C95,-139.829 95,-130.409 95,-121.103"/>
<polygon fill="none" stroke="midnightblue" points="91.5001,-148.776 95,-158.776 98.5001,-148.776 91.5001,-148.776"/>
</g>
</g>
</svg>
