<?xml version="1.0" encoding="UTF-8" standalone="no"?>
<!DOCTYPE svg PUBLIC "-//W3C//DTD SVG 1.1//EN"
 "http://www.w3.org/Graphics/SVG/1.1/DTD/svg11.dtd">
<!-- Generated by graphviz version 2.34.0 (20130907.0111)
 -->
<!-- Title: MenuScene Pages: 1 -->
<svg width="441pt" height="314pt"
 viewBox="0.00 0.00 441.00 314.00" xmlns="http://www.w3.org/2000/svg" xmlns:xlink="http://www.w3.org/1999/xlink">
<g id="graph0" class="graph" transform="scale(1 1) rotate(0) translate(4 310)">
<title>MenuScene</title>
<polygon fill="white" stroke="white" points="-4,4 -4,-310 437,-310 437,4 -4,4"/>
<!-- Node1 -->
<g id="node1" class="node"><title>Node1</title>
<polygon fill="#bfbfbf" stroke="black" points="136.5,-1 136.5,-61 213.5,-61 213.5,-1 136.5,-1"/>
<text text-anchor="middle" x="175" y="-48.2" font-family="Segoe UI Semibold" font-size="11.00">MenuScene</text>
<polyline fill="none" stroke="black" points="136.5,-41 213.5,-41 "/>
<text text-anchor="middle" x="175" y="-28.2" font-family="Segoe UI Semibold" font-size="11.00"> </text>
<polyline fill="none" stroke="black" points="136.5,-21 213.5,-21 "/>
<text text-anchor="middle" x="175" y="-8.2" font-family="Segoe UI Semibold" font-size="11.00"> </text>
</g>
<!-- Node2 -->
<g id="node2" class="node"><title>Node2</title>
<polygon fill="white" stroke="#bfbfbf" points="0,-123 0,-183 60,-183 60,-123 0,-123"/>
<text text-anchor="middle" x="30" y="-170.2" font-family="Segoe UI Semibold" font-size="11.00">SKScene</text>
<polyline fill="none" stroke="#bfbfbf" points="0,-163 60,-163 "/>
<text text-anchor="middle" x="30" y="-150.2" font-family="Segoe UI Semibold" font-size="11.00"> </text>
<polyline fill="none" stroke="#bfbfbf" points="0,-143 60,-143 "/>
<text text-anchor="middle" x="30" y="-130.2" font-family="Segoe UI Semibold" font-size="11.00"> </text>
</g>
<!-- Node2&#45;&gt;Node1 -->
<g id="edge1" class="edge"><title>Node2&#45;&gt;Node1</title>
<path fill="none" stroke="midnightblue" d="M53.9416,-114.75C58.5684,-108.813 63.6536,-102.992 69,-98 89.0446,-79.2851 115.162,-62.9502 136.456,-51.2129"/>
<polygon fill="none" stroke="midnightblue" points="51.0806,-112.732 47.9351,-122.849 56.7032,-116.902 51.0806,-112.732"/>
</g>
<!-- Node3 -->
<g id="node3" class="node"><title>Node3</title>
<g id="a_node3"><a xlink:href="protocol_multiplayer_delegate-p.html" target="_top" xlink:title="{\&lt;MultiplayerDelegate\&gt;\n||+ matchStarted\l+ readyToStartMatch\l+ matchEnded\l+ receivedMessage:fromPlayerID:\l+ peerConnected:\l}">
<polygon fill="white" stroke="black" points="78,-99 78,-207 272,-207 272,-99 78,-99"/>
<text text-anchor="middle" x="175" y="-194.2" font-family="Segoe UI Semibold" font-size="11.00">&lt;MultiplayerDelegate&gt;</text>
<polyline fill="none" stroke="black" points="78,-187 272,-187 "/>
<text text-anchor="middle" x="175" y="-174.2" font-family="Segoe UI Semibold" font-size="11.00"> </text>
<polyline fill="none" stroke="black" points="78,-167 272,-167 "/>
<text text-anchor="start" x="86" y="-154.2" font-family="Segoe UI Semibold" font-size="11.00">+ matchStarted</text>
<text text-anchor="start" x="86" y="-142.2" font-family="Segoe UI Semibold" font-size="11.00">+ readyToStartMatch</text>
<text text-anchor="start" x="86" y="-130.2" font-family="Segoe UI Semibold" font-size="11.00">+ matchEnded</text>
<text text-anchor="start" x="86" y="-118.2" font-family="Segoe UI Semibold" font-size="11.00">+ receivedMessage:fromPlayerID:</text>
<text text-anchor="start" x="86" y="-106.2" font-family="Segoe UI Semibold" font-size="11.00">+ peerConnected:</text>
</a>
</g>
</g>
<!-- Node3&#45;&gt;Node1 -->
<g id="edge2" class="edge"><title>Node3&#45;&gt;Node1</title>
<path fill="none" stroke="midnightblue" d="M175,-88.6527C175,-79.0427 175,-69.5476 175,-61.1575"/>
<polygon fill="none" stroke="midnightblue" points="171.5,-88.6674 175,-98.6674 178.5,-88.6675 171.5,-88.6674"/>
</g>
<!-- Node4 -->
<g id="node4" class="node"><title>Node4</title>
<polygon fill="white" stroke="#bfbfbf" points="134,-245 134,-305 216,-305 216,-245 134,-245"/>
<text text-anchor="middle" x="175" y="-292.2" font-family="Segoe UI Semibold" font-size="11.00">&lt;NSObject&gt;</text>
<polyline fill="none" stroke="#bfbfbf" points="134,-285 216,-285 "/>
<text text-anchor="middle" x="175" y="-272.2" font-family="Segoe UI Semibold" font-size="11.00"> </text>
<polyline fill="none" stroke="#bfbfbf" points="134,-265 216,-265 "/>
<text text-anchor="middle" x="175" y="-252.2" font-family="Segoe UI Semibold" font-size="11.00"> </text>
</g>
<!-- Node4&#45;&gt;Node3 -->
<g id="edge3" class="edge"><title>Node4&#45;&gt;Node3</title>
<path fill="none" stroke="midnightblue" d="M175,-234.923C175,-226.061 175,-216.503 175,-207.169"/>
<polygon fill="none" stroke="midnightblue" points="171.5,-234.951 175,-244.951 178.5,-234.951 171.5,-234.951"/>
</g>
<!-- Node5 -->
<g id="node5" class="node"><title>Node5</title>
<polygon fill="white" stroke="#bfbfbf" points="290.5,-123 290.5,-183 433.5,-183 433.5,-123 290.5,-123"/>
<text text-anchor="middle" x="362" y="-170.2" font-family="Segoe UI Semibold" font-size="11.00">&lt;UIAlertViewDelegate&gt;</text>
<polyline fill="none" stroke="#bfbfbf" points="290.5,-163 433.5,-163 "/>
<text text-anchor="middle" x="362" y="-150.2" font-family="Segoe UI Semibold" font-size="11.00"> </text>
<polyline fill="none" stroke="#bfbfbf" points="290.5,-143 433.5,-143 "/>
<text text-anchor="middle" x="362" y="-130.2" font-family="Segoe UI Semibold" font-size="11.00"> </text>
</g>
<!-- Node5&#45;&gt;Node1 -->
<g id="edge4" class="edge"><title>Node5&#45;&gt;Node1</title>
<path fill="none" stroke="midnightblue" d="M310.43,-117.274C300.69,-110.813 290.559,-104.16 281,-98 258.951,-83.7908 234.064,-68.2691 213.948,-55.85"/>
<polygon fill="none" stroke="midnightblue" points="308.601,-120.261 318.866,-122.885 312.478,-114.432 308.601,-120.261"/>
</g>
</g>
</svg>
