<?xml version="1.0" encoding="UTF-8" standalone="no"?>
<!DOCTYPE svg PUBLIC "-//W3C//DTD SVG 1.1//EN"
 "http://www.w3.org/Graphics/SVG/1.1/DTD/svg11.dtd">
<!-- Generated by graphviz version 2.34.0 (20130907.0111)
 -->
<!-- Title: Player Pages: 1 -->
<svg width="401pt" height="448pt"
 viewBox="0.00 0.00 401.00 448.00" xmlns="http://www.w3.org/2000/svg" xmlns:xlink="http://www.w3.org/1999/xlink">
<g id="graph0" class="graph" transform="scale(1 1) rotate(0) translate(4 444)">
<title>Player</title>
<polygon fill="white" stroke="white" points="-4,4 -4,-444 397,-444 397,4 -4,4"/>
<!-- Node1 -->
<g id="node1" class="node"><title>Node1</title>
<polygon fill="#bfbfbf" stroke="black" points="39,-1 39,-193 203,-193 203,-1 39,-1"/>
<text text-anchor="middle" x="121" y="-180.2" font-family="Segoe UI Semibold" font-size="11.00">Player</text>
<polyline fill="none" stroke="black" points="39,-173 203,-173 "/>
<text text-anchor="start" x="47" y="-160.2" font-family="Segoe UI Semibold" font-size="11.00">+ score</text>
<text text-anchor="start" x="47" y="-148.2" font-family="Segoe UI Semibold" font-size="11.00">+ starCount</text>
<text text-anchor="start" x="47" y="-136.2" font-family="Segoe UI Semibold" font-size="11.00">+ playerSpeed</text>
<text text-anchor="start" x="47" y="-124.2" font-family="Segoe UI Semibold" font-size="11.00">+ peerID</text>
<text text-anchor="start" x="47" y="-112.2" font-family="Segoe UI Semibold" font-size="11.00">+ dead</text>
<text text-anchor="start" x="47" y="-100.2" font-family="Segoe UI Semibold" font-size="11.00">+ immortal</text>
<text text-anchor="start" x="47" y="-88.2" font-family="Segoe UI Semibold" font-size="11.00">+ scoreBoost</text>
<polyline fill="none" stroke="black" points="39,-81 203,-81 "/>
<text text-anchor="start" x="47" y="-68.2" font-family="Segoe UI Semibold" font-size="11.00">+ initWithHUDManager:</text>
<text text-anchor="start" x="47" y="-56.2" font-family="Segoe UI Semibold" font-size="11.00">+ touchesBegan:withEvent:</text>
<text text-anchor="start" x="47" y="-44.2" font-family="Segoe UI Semibold" font-size="11.00">+ touchesMoved:withEvent:</text>
<text text-anchor="start" x="47" y="-32.2" font-family="Segoe UI Semibold" font-size="11.00">+ touchesEnded:withEvent:</text>
<text text-anchor="start" x="47" y="-20.2" font-family="Segoe UI Semibold" font-size="11.00">+ didBeginContactWith:</text>
<text text-anchor="start" x="47" y="-8.2" font-family="Segoe UI Semibold" font-size="11.00">+ update</text>
</g>
<!-- Node2 -->
<g id="node2" class="node"><title>Node2</title>
<polygon fill="white" stroke="#bfbfbf" points="-0.5,-379 -0.5,-439 88.5,-439 88.5,-379 -0.5,-379"/>
<text text-anchor="middle" x="44" y="-426.2" font-family="Segoe UI Semibold" font-size="11.00">SKSpriteNode</text>
<polyline fill="none" stroke="#bfbfbf" points="-0.5,-419 88.5,-419 "/>
<text text-anchor="middle" x="44" y="-406.2" font-family="Segoe UI Semibold" font-size="11.00"> </text>
<polyline fill="none" stroke="#bfbfbf" points="-0.5,-399 88.5,-399 "/>
<text text-anchor="middle" x="44" y="-386.2" font-family="Segoe UI Semibold" font-size="11.00"> </text>
</g>
<!-- Node2&#45;&gt;Node1 -->
<g id="edge1" class="edge"><title>Node2&#45;&gt;Node1</title>
<path fill="none" stroke="midnightblue" d="M32.8615,-368.841C24.9839,-334.696 17.7919,-284.171 30,-242 34.8108,-225.382 42.1749,-208.839 50.6742,-193.205"/>
<polygon fill="none" stroke="midnightblue" points="29.5406,-369.996 35.3076,-378.884 36.3418,-368.34 29.5406,-369.996"/>
</g>
<!-- Node4 -->
<g id="node4" class="node"><title>Node4</title>
<g id="a_node4"><a xlink:href="interface_player_controller.html" target="_top" xlink:title="Visual joystick which controls the player. ">
<polygon fill="white" stroke="black" points="39,-243 39,-339 203,-339 203,-243 39,-243"/>
<text text-anchor="middle" x="121" y="-326.2" font-family="Segoe UI Semibold" font-size="11.00">PlayerController</text>
<polyline fill="none" stroke="black" points="39,-319 203,-319 "/>
<text text-anchor="middle" x="121" y="-306.2" font-family="Segoe UI Semibold" font-size="11.00"> </text>
<polyline fill="none" stroke="black" points="39,-299 203,-299 "/>
<text text-anchor="start" x="47" y="-286.2" font-family="Segoe UI Semibold" font-size="11.00">+ touchesBegan:withEvent:</text>
<text text-anchor="start" x="47" y="-274.2" font-family="Segoe UI Semibold" font-size="11.00">+ touchesMoved:withEvent:</text>
<text text-anchor="start" x="47" y="-262.2" font-family="Segoe UI Semibold" font-size="11.00">+ touchesEnded:withEvent:</text>
<text text-anchor="start" x="47" y="-250.2" font-family="Segoe UI Semibold" font-size="11.00">+ getJoystickVelocity</text>
</a>
</g>
</g>
<!-- Node2&#45;&gt;Node4 -->
<g id="edge4" class="edge"><title>Node2&#45;&gt;Node4</title>
<path fill="none" stroke="midnightblue" d="M69.02,-370.308C75.5818,-360.422 82.7414,-349.636 89.5909,-339.318"/>
<polygon fill="none" stroke="midnightblue" points="66.0448,-368.461 63.4304,-378.728 71.8769,-372.332 66.0448,-368.461"/>
</g>
<!-- Node3 -->
<g id="node3" class="node"><title>Node3</title>
<polygon fill="white" stroke="#bfbfbf" points="221,-261 221,-321 393,-321 393,-261 221,-261"/>
<text text-anchor="middle" x="307" y="-308.2" font-family="Segoe UI Semibold" font-size="11.00">&lt;SKPhysicsContactDelegate&gt;</text>
<polyline fill="none" stroke="#bfbfbf" points="221,-301 393,-301 "/>
<text text-anchor="middle" x="307" y="-288.2" font-family="Segoe UI Semibold" font-size="11.00"> </text>
<polyline fill="none" stroke="#bfbfbf" points="221,-281 393,-281 "/>
<text text-anchor="middle" x="307" y="-268.2" font-family="Segoe UI Semibold" font-size="11.00"> </text>
</g>
<!-- Node3&#45;&gt;Node1 -->
<g id="edge2" class="edge"><title>Node3&#45;&gt;Node1</title>
<path fill="none" stroke="midnightblue" d="M271.579,-253.436C252.124,-233.353 227.125,-207.548 203.109,-182.758"/>
<polygon fill="none" stroke="midnightblue" points="269.279,-256.092 278.751,-260.839 274.306,-251.222 269.279,-256.092"/>
</g>
<!-- Node4&#45;&gt;Node1 -->
<g id="edge3" class="edge"><title>Node4&#45;&gt;Node1</title>
<path fill="none" stroke="#404040" d="M121,-242.539C121,-231.061 121,-218.327 121,-205.312"/>
<polygon fill="none" stroke="#404040" points="121,-205.308 117,-199.308 121,-193.308 125,-199.308 121,-205.308"/>
<text text-anchor="middle" x="169.5" y="-215.2" font-family="Segoe UI Semibold" font-size="11.00"> +playerController</text>
</g>
</g>
</svg>
