<?xml version="1.0" encoding="UTF-8" standalone="no"?>
<!DOCTYPE svg PUBLIC "-//W3C//DTD SVG 1.1//EN"
 "http://www.w3.org/Graphics/SVG/1.1/DTD/svg11.dtd">
<!-- Generated by graphviz version 2.34.0 (20130907.0111)
 -->
<!-- Title: Player Pages: 1 -->
<svg width="401pt" height="436pt"
 viewBox="0.00 0.00 401.00 436.00" xmlns="http://www.w3.org/2000/svg" xmlns:xlink="http://www.w3.org/1999/xlink">
<g id="graph0" class="graph" transform="scale(1 1) rotate(0) translate(4 432)">
<title>Player</title>
<polygon fill="white" stroke="white" points="-4,4 -4,-432 397,-432 397,4 -4,4"/>
<!-- Node1 -->
<g id="node1" class="node"><title>Node1</title>
<polygon fill="#bfbfbf" stroke="black" points="39,-1 39,-181 203,-181 203,-1 39,-1"/>
<text text-anchor="middle" x="121" y="-168.2" font-family="Segoe UI Semibold" font-size="11.00">Player</text>
<polyline fill="none" stroke="black" points="39,-161 203,-161 "/>
<text text-anchor="start" x="47" y="-148.2" font-family="Segoe UI Semibold" font-size="11.00">+ score</text>
<text text-anchor="start" x="47" y="-136.2" font-family="Segoe UI Semibold" font-size="11.00">+ starCount</text>
<text text-anchor="start" x="47" y="-124.2" font-family="Segoe UI Semibold" font-size="11.00">+ playerSpeed</text>
<text text-anchor="start" x="47" y="-112.2" font-family="Segoe UI Semibold" font-size="11.00">+ dead</text>
<text text-anchor="start" x="47" y="-100.2" font-family="Segoe UI Semibold" font-size="11.00">+ immortal</text>
<text text-anchor="start" x="47" y="-88.2" font-family="Segoe UI Semibold" font-size="11.00">+ scoreBoost</text>
<polyline fill="none" stroke="black" points="39,-81 203,-81 "/>
<text text-anchor="start" x="47" y="-68.2" font-family="Segoe UI Semibold" font-size="11.00">+ initWithHUDManager:</text>
<text text-anchor="start" x="47" y="-56.2" font-family="Segoe UI Semibold" font-size="11.00">+ touchesBegan:withEvent:</text>
<text text-anchor="start" x="47" y="-44.2" font-family="Segoe UI Semibold" font-size="11.00">+ touchesMoved:withEvent:</text>
<text text-anchor="start" x="47" y="-32.2" font-family="Segoe UI Semibold" font-size="11.00">+ touchesEnded:withEvent:</text>
<text text-anchor="start" x="47" y="-20.2" font-family="Segoe UI Semibold" font-size="11.00">+ didBeginContactWith:</text>
<text text-anchor="start" x="47" y="-8.2" font-family="Segoe UI Semibold" font-size="11.00">+ update</text>
</g>
<!-- Node2 -->
<g id="node2" class="node"><title>Node2</title>
<polygon fill="white" stroke="#bfbfbf" points="-0.5,-367 -0.5,-427 88.5,-427 88.5,-367 -0.5,-367"/>
<text text-anchor="middle" x="44" y="-414.2" font-family="Segoe UI Semibold" font-size="11.00">SKSpriteNode</text>
<polyline fill="none" stroke="#bfbfbf" points="-0.5,-407 88.5,-407 "/>
<text text-anchor="middle" x="44" y="-394.2" font-family="Segoe UI Semibold" font-size="11.00"> </text>
<polyline fill="none" stroke="#bfbfbf" points="-0.5,-387 88.5,-387 "/>
<text text-anchor="middle" x="44" y="-374.2" font-family="Segoe UI Semibold" font-size="11.00"> </text>
</g>
<!-- Node2&#45;&gt;Node1 -->
<g id="edge1" class="edge"><title>Node2&#45;&gt;Node1</title>
<path fill="none" stroke="midnightblue" d="M32.6586,-356.781C24.6515,-322.598 17.3836,-272.05 30,-230 35.0308,-213.232 42.8309,-196.62 51.7949,-181.042"/>
<polygon fill="none" stroke="midnightblue" points="29.347,-357.97 35.1461,-366.836 36.1422,-356.289 29.347,-357.97"/>
</g>
<!-- Node4 -->
<g id="node4" class="node"><title>Node4</title>
<g id="a_node4"><a xlink:href="interface_player_controller.html" target="_top" xlink:title="Visual joystick which controls the player. ">
<polygon fill="white" stroke="black" points="39,-231 39,-327 203,-327 203,-231 39,-231"/>
<text text-anchor="middle" x="121" y="-314.2" font-family="Segoe UI Semibold" font-size="11.00">PlayerController</text>
<polyline fill="none" stroke="black" points="39,-307 203,-307 "/>
<text text-anchor="middle" x="121" y="-294.2" font-family="Segoe UI Semibold" font-size="11.00"> </text>
<polyline fill="none" stroke="black" points="39,-287 203,-287 "/>
<text text-anchor="start" x="47" y="-274.2" font-family="Segoe UI Semibold" font-size="11.00">+ touchesBegan:withEvent:</text>
<text text-anchor="start" x="47" y="-262.2" font-family="Segoe UI Semibold" font-size="11.00">+ touchesMoved:withEvent:</text>
<text text-anchor="start" x="47" y="-250.2" font-family="Segoe UI Semibold" font-size="11.00">+ touchesEnded:withEvent:</text>
<text text-anchor="start" x="47" y="-238.2" font-family="Segoe UI Semibold" font-size="11.00">+ getJoystickVelocity</text>
</a>
</g>
</g>
<!-- Node2&#45;&gt;Node4 -->
<g id="edge4" class="edge"><title>Node2&#45;&gt;Node4</title>
<path fill="none" stroke="midnightblue" d="M69.02,-358.308C75.5818,-348.422 82.7414,-337.636 89.5909,-327.318"/>
<polygon fill="none" stroke="midnightblue" points="66.0448,-356.461 63.4304,-366.728 71.8769,-360.332 66.0448,-356.461"/>
</g>
<!-- Node3 -->
<g id="node3" class="node"><title>Node3</title>
<polygon fill="white" stroke="#bfbfbf" points="221,-249 221,-309 393,-309 393,-249 221,-249"/>
<text text-anchor="middle" x="307" y="-296.2" font-family="Segoe UI Semibold" font-size="11.00">&lt;SKPhysicsContactDelegate&gt;</text>
<polyline fill="none" stroke="#bfbfbf" points="221,-289 393,-289 "/>
<text text-anchor="middle" x="307" y="-276.2" font-family="Segoe UI Semibold" font-size="11.00"> </text>
<polyline fill="none" stroke="#bfbfbf" points="221,-269 393,-269 "/>
<text text-anchor="middle" x="307" y="-256.2" font-family="Segoe UI Semibold" font-size="11.00"> </text>
</g>
<!-- Node3&#45;&gt;Node1 -->
<g id="edge2" class="edge"><title>Node3&#45;&gt;Node1</title>
<path fill="none" stroke="midnightblue" d="M270.812,-241.812C251.51,-222.51 226.915,-197.915 203.259,-174.259"/>
<polygon fill="none" stroke="midnightblue" points="268.392,-244.341 277.938,-248.938 273.341,-239.392 268.392,-244.341"/>
</g>
<!-- Node4&#45;&gt;Node1 -->
<g id="edge3" class="edge"><title>Node4&#45;&gt;Node1</title>
<path fill="none" stroke="#404040" d="M121,-230.583C121,-219.164 121,-206.527 121,-193.667"/>
<polygon fill="none" stroke="#404040" points="121,-193.301 117,-187.301 121,-181.301 125,-187.301 121,-193.301"/>
<text text-anchor="middle" x="169.5" y="-203.2" font-family="Segoe UI Semibold" font-size="11.00"> +playerController</text>
</g>
</g>
</svg>
