<?xml version="1.0" encoding="UTF-8" standalone="no"?>
<!DOCTYPE svg PUBLIC "-//W3C//DTD SVG 1.1//EN"
 "http://www.w3.org/Graphics/SVG/1.1/DTD/svg11.dtd">
<!-- Generated by graphviz version 2.34.0 (20130907.0111)
 -->
<!-- Title: PowerUp Pages: 1 -->
<svg width="329pt" height="146pt"
 viewBox="0.00 0.00 329.00 146.00" xmlns="http://www.w3.org/2000/svg" xmlns:xlink="http://www.w3.org/1999/xlink">
<g id="graph0" class="graph" transform="scale(1 1) rotate(0) translate(4 142)">
<title>PowerUp</title>
<polygon fill="white" stroke="white" points="-4,4 -4,-142 325,-142 325,4 -4,4"/>
<!-- Node1 -->
<g id="node1" class="node"><title>Node1</title>
<polygon fill="#bfbfbf" stroke="black" points="136.5,-59 136.5,-79 201.5,-79 201.5,-59 136.5,-59"/>
<text text-anchor="middle" x="169" y="-66.2" font-family="Segoe UI Semibold" font-size="11.00">PowerUp</text>
</g>
<!-- Node3 -->
<g id="node3" class="node"><title>Node3</title>
<g id="a_node3"><a xlink:href="interface_immortal.html" target="_top" xlink:title="Immortal">
<polygon fill="white" stroke="black" points="0,-1 0,-21 66,-21 66,-1 0,-1"/>
<text text-anchor="middle" x="33" y="-8.2" font-family="Segoe UI Semibold" font-size="11.00">Immortal</text>
</a>
</g>
</g>
<!-- Node1&#45;&gt;Node3 -->
<g id="edge2" class="edge"><title>Node1&#45;&gt;Node3</title>
<path fill="none" stroke="midnightblue" d="M137.354,-54.9693C112.135,-44.585 77.4668,-30.3099 55.144,-21.1181"/>
<polygon fill="midnightblue" stroke="midnightblue" points="136.267,-58.3068 146.847,-58.878 138.932,-51.8341 136.267,-58.3068"/>
</g>
<!-- Node4 -->
<g id="node4" class="node"><title>Node4</title>
<g id="a_node4"><a xlink:href="interface_scoreboost.html" target="_top" xlink:title="Scoreboost">
<polygon fill="white" stroke="black" points="84.5,-1 84.5,-21 159.5,-21 159.5,-1 84.5,-1"/>
<text text-anchor="middle" x="122" y="-8.2" font-family="Segoe UI Semibold" font-size="11.00">Scoreboost</text>
</a>
</g>
</g>
<!-- Node1&#45;&gt;Node4 -->
<g id="edge3" class="edge"><title>Node1&#45;&gt;Node4</title>
<path fill="none" stroke="midnightblue" d="M154.579,-50.8177C146.342,-41.0032 136.346,-29.0932 129.617,-21.0752"/>
<polygon fill="midnightblue" stroke="midnightblue" points="152.129,-53.343 161.239,-58.7527 157.491,-48.8429 152.129,-53.343"/>
</g>
<!-- Node5 -->
<g id="node5" class="node"><title>Node5</title>
<g id="a_node5"><a xlink:href="interface_speedboost.html" target="_top" xlink:title="Speedboost">
<polygon fill="white" stroke="black" points="178,-1 178,-21 256,-21 256,-1 178,-1"/>
<text text-anchor="middle" x="217" y="-8.2" font-family="Segoe UI Semibold" font-size="11.00">Speedboost</text>
</a>
</g>
</g>
<!-- Node1&#45;&gt;Node5 -->
<g id="edge4" class="edge"><title>Node1&#45;&gt;Node5</title>
<path fill="none" stroke="midnightblue" d="M183.473,-51.1145C191.934,-41.2442 202.279,-29.1742 209.221,-21.0752"/>
<polygon fill="midnightblue" stroke="midnightblue" points="180.777,-48.8824 176.926,-58.7527 186.092,-53.4379 180.777,-48.8824"/>
</g>
<!-- Node6 -->
<g id="node6" class="node"><title>Node6</title>
<g id="a_node6"><a xlink:href="interface_tinier.html" target="_top" xlink:title="Tinier">
<polygon fill="white" stroke="black" points="274.5,-1 274.5,-21 321.5,-21 321.5,-1 274.5,-1"/>
<text text-anchor="middle" x="298" y="-8.2" font-family="Segoe UI Semibold" font-size="11.00">Tinier</text>
</a>
</g>
</g>
<!-- Node1&#45;&gt;Node6 -->
<g id="edge5" class="edge"><title>Node1&#45;&gt;Node6</title>
<path fill="none" stroke="midnightblue" d="M199.335,-54.8313C223.229,-44.4588 255.916,-30.2692 276.996,-21.1181"/>
<polygon fill="midnightblue" stroke="midnightblue" points="197.792,-51.6853 190.013,-58.878 200.58,-58.1064 197.792,-51.6853"/>
</g>
<!-- Node2 -->
<g id="node2" class="node"><title>Node2</title>
<polygon fill="white" stroke="#bfbfbf" points="124.5,-117 124.5,-137 213.5,-137 213.5,-117 124.5,-117"/>
<text text-anchor="middle" x="169" y="-124.2" font-family="Segoe UI Semibold" font-size="11.00">SKSpriteNode</text>
</g>
<!-- Node2&#45;&gt;Node1 -->
<g id="edge1" class="edge"><title>Node2&#45;&gt;Node1</title>
<path fill="none" stroke="midnightblue" d="M169,-106.707C169,-97.3384 169,-86.5262 169,-79.0752"/>
<polygon fill="midnightblue" stroke="midnightblue" points="165.5,-106.753 169,-116.753 172.5,-106.753 165.5,-106.753"/>
</g>
</g>
</svg>
