<?xml version="1.0" encoding="UTF-8" standalone="no"?>
<!DOCTYPE svg PUBLIC "-//W3C//DTD SVG 1.1//EN"
 "http://www.w3.org/Graphics/SVG/1.1/DTD/svg11.dtd">
<!-- Generated by graphviz version 2.34.0 (20130907.0111)
 -->
<!-- Title: Immortal Pages: 1 -->
<svg width="150pt" height="302pt"
 viewBox="0.00 0.00 150.00 302.00" xmlns="http://www.w3.org/2000/svg" xmlns:xlink="http://www.w3.org/1999/xlink">
<g id="graph0" class="graph" transform="scale(1 1) rotate(0) translate(4 298)">
<title>Immortal</title>
<polygon fill="white" stroke="white" points="-4,4 -4,-298 146,-298 146,4 -4,4"/>
<!-- Node1 -->
<g id="node1" class="node"><title>Node1</title>
<polygon fill="#bfbfbf" stroke="black" points="38,-1 38,-61 104,-61 104,-1 38,-1"/>
<text text-anchor="middle" x="71" y="-48.2" font-family="Segoe UI Semibold" font-size="11.00">Immortal</text>
<polyline fill="none" stroke="black" points="38,-41 104,-41 "/>
<text text-anchor="middle" x="71" y="-28.2" font-family="Segoe UI Semibold" font-size="11.00"> </text>
<polyline fill="none" stroke="black" points="38,-21 104,-21 "/>
<text text-anchor="middle" x="71" y="-8.2" font-family="Segoe UI Semibold" font-size="11.00"> </text>
</g>
<!-- Node2 -->
<g id="node2" class="node"><title>Node2</title>
<g id="a_node2"><a xlink:href="interface_power_up.html" target="_top" xlink:title="{PowerUp\n||+ didBeginContactWith:\l+ update\l+ changePosition\l+ chanceToSpawn\l}">
<polygon fill="white" stroke="black" points="-0.5,-99 -0.5,-195 142.5,-195 142.5,-99 -0.5,-99"/>
<text text-anchor="middle" x="71" y="-182.2" font-family="Segoe UI Semibold" font-size="11.00">PowerUp</text>
<polyline fill="none" stroke="black" points="-0.5,-175 142.5,-175 "/>
<text text-anchor="middle" x="71" y="-162.2" font-family="Segoe UI Semibold" font-size="11.00"> </text>
<polyline fill="none" stroke="black" points="-0.5,-155 142.5,-155 "/>
<text text-anchor="start" x="7.5" y="-142.2" font-family="Segoe UI Semibold" font-size="11.00">+ didBeginContactWith:</text>
<text text-anchor="start" x="7.5" y="-130.2" font-family="Segoe UI Semibold" font-size="11.00">+ update</text>
<text text-anchor="start" x="7.5" y="-118.2" font-family="Segoe UI Semibold" font-size="11.00">+ changePosition</text>
<text text-anchor="start" x="7.5" y="-106.2" font-family="Segoe UI Semibold" font-size="11.00">+ chanceToSpawn</text>
</a>
</g>
</g>
<!-- Node2&#45;&gt;Node1 -->
<g id="edge1" class="edge"><title>Node2&#45;&gt;Node1</title>
<path fill="none" stroke="midnightblue" d="M71,-88.712C71,-79.213 71,-69.7247 71,-61.3023"/>
<polygon fill="none" stroke="midnightblue" points="67.5001,-88.9736 71,-98.9737 74.5001,-88.9737 67.5001,-88.9736"/>
</g>
<!-- Node3 -->
<g id="node3" class="node"><title>Node3</title>
<polygon fill="white" stroke="#bfbfbf" points="26.5,-233 26.5,-293 115.5,-293 115.5,-233 26.5,-233"/>
<text text-anchor="middle" x="71" y="-280.2" font-family="Segoe UI Semibold" font-size="11.00">SKSpriteNode</text>
<polyline fill="none" stroke="#bfbfbf" points="26.5,-273 115.5,-273 "/>
<text text-anchor="middle" x="71" y="-260.2" font-family="Segoe UI Semibold" font-size="11.00"> </text>
<polyline fill="none" stroke="#bfbfbf" points="26.5,-253 115.5,-253 "/>
<text text-anchor="middle" x="71" y="-240.2" font-family="Segoe UI Semibold" font-size="11.00"> </text>
</g>
<!-- Node3&#45;&gt;Node2 -->
<g id="edge2" class="edge"><title>Node3&#45;&gt;Node2</title>
<path fill="none" stroke="midnightblue" d="M71,-222.836C71,-213.928 71,-204.372 71,-195.169"/>
<polygon fill="none" stroke="midnightblue" points="67.5001,-222.938 71,-232.938 74.5001,-222.938 67.5001,-222.938"/>
</g>
</g>
</svg>
