<?xml version="1.0" encoding="UTF-8" standalone="no"?>
<!DOCTYPE svg PUBLIC "-//W3C//DTD SVG 1.1//EN"
 "http://www.w3.org/Graphics/SVG/1.1/DTD/svg11.dtd">
<!-- Generated by graphviz version 2.34.0 (20130907.0111)
 -->
<!-- Title: GameOverScene Pages: 1 -->
<svg width="110pt" height="168pt"
 viewBox="0.00 0.00 110.00 168.00" xmlns="http://www.w3.org/2000/svg" xmlns:xlink="http://www.w3.org/1999/xlink">
<g id="graph0" class="graph" transform="scale(1 1) rotate(0) translate(4 164)">
<title>GameOverScene</title>
<polygon fill="white" stroke="white" points="-4,4 -4,-164 106,-164 106,4 -4,4"/>
<!-- Node1 -->
<g id="node1" class="node"><title>Node1</title>
<polygon fill="#bfbfbf" stroke="black" points="0,-1 0,-61 102,-61 102,-1 0,-1"/>
<text text-anchor="middle" x="51" y="-48.2" font-family="Segoe UI Semibold" font-size="11.00">GameOverScene</text>
<polyline fill="none" stroke="black" points="0,-41 102,-41 "/>
<text text-anchor="start" x="8" y="-28.2" font-family="Segoe UI Semibold" font-size="11.00">+ score</text>
<polyline fill="none" stroke="black" points="0,-21 102,-21 "/>
<text text-anchor="middle" x="51" y="-8.2" font-family="Segoe UI Semibold" font-size="11.00"> </text>
</g>
<!-- Node2 -->
<g id="node2" class="node"><title>Node2</title>
<polygon fill="white" stroke="#bfbfbf" points="21,-99 21,-159 81,-159 81,-99 21,-99"/>
<text text-anchor="middle" x="51" y="-146.2" font-family="Segoe UI Semibold" font-size="11.00">SKScene</text>
<polyline fill="none" stroke="#bfbfbf" points="21,-139 81,-139 "/>
<text text-anchor="middle" x="51" y="-126.2" font-family="Segoe UI Semibold" font-size="11.00"> </text>
<polyline fill="none" stroke="#bfbfbf" points="21,-119 81,-119 "/>
<text text-anchor="middle" x="51" y="-106.2" font-family="Segoe UI Semibold" font-size="11.00"> </text>
</g>
<!-- Node2&#45;&gt;Node1 -->
<g id="edge1" class="edge"><title>Node2&#45;&gt;Node1</title>
<path fill="none" stroke="midnightblue" d="M51,-88.8172C51,-79.6194 51,-69.9744 51,-61.2962"/>
<polygon fill="none" stroke="midnightblue" points="47.5001,-88.9363 51,-98.9363 54.5001,-88.9363 47.5001,-88.9363"/>
</g>
</g>
</svg>
