<?xml version="1.0" encoding="UTF-8" standalone="no"?>
<!DOCTYPE svg PUBLIC "-//W3C//DTD SVG 1.1//EN"
 "http://www.w3.org/Graphics/SVG/1.1/DTD/svg11.dtd">
<!-- Generated by graphviz version 2.34.0 (20130907.0111)
 -->
<!-- Title: CollisionManager Pages: 1 -->
<!--zoomable 316 -->
<svg id="main" version="1.1" xmlns="http://www.w3.org/2000/svg" xmlns:xlink="http://www.w3.org/1999/xlink" xml:space="preserve" onload="init(evt)">
<style type="text/css"><![CDATA[
.edge:hover path { stroke: red; }
.edge:hover polygon { stroke: red; fill: red; }
]]></style>
<script type="text/javascript"><![CDATA[
var edges = document.getElementsByTagName('g');
if (edges && edges.length) {
  for (var i=0;i<edges.length;i++) {
    if (edges[i].id.substr(0,4)=='edge') {
      edges[i].setAttribute('class','edge');
    }
  }
}
]]></script>
        <defs>
                <circle id="rim" cx="0" cy="0" r="7"/>
                <circle id="rim2" cx="0" cy="0" r="3.5"/>
                <g id="zoomPlus">
                        <use xlink:href="#rim" fill="#404040">
                                <set attributeName="fill" to="#808080" begin="zoomplus.mouseover" end="zoomplus.mouseout"/>
                        </use>
                        <path d="M-4,0h8M0,-4v8" fill="none" stroke="white" stroke-width="1.5" pointer-events="none"/>
                </g>
                <g id="zoomMin">
                        <use xlink:href="#rim" fill="#404040">
                                <set attributeName="fill" to="#808080" begin="zoomminus.mouseover" end="zoomminus.mouseout"/>
                        </use>
                        <path d="M-4,0h8" fill="none" stroke="white" stroke-width="1.5" pointer-events="none"/>
                </g>
                <g id="dirArrow">
                        <path fill="none" stroke="white" stroke-width="1.5" d="M0,-3.0v7 M-2.5,-0.5L0,-3.0L2.5,-0.5"/>
                </g>
               <g id="resetDef">
                       <use xlink:href="#rim2" fill="#404040">
                               <set attributeName="fill" to="#808080" begin="reset.mouseover" end="reset.mouseout"/>
                       </use>
               </g>
        </defs>

<script type="text/javascript">
var viewWidth = 835;
var viewHeight = 316;
var sectionId = 'dynsection-1';
</script>
<script xlink:href="svgpan.js"/>
<svg id="graph" class="graph">
<g id="viewport">
<title>CollisionManager</title>
<polygon fill="white" stroke="white" points="-4,4 -4,-312 831.008,-312 831.008,4 -4,4"/>
<!-- Node1 -->
<g id="node1" class="node"><title>Node1</title>
<polygon fill="#bfbfbf" stroke="black" points="233.508,-1 233.508,-61 340.508,-61 340.508,-1 233.508,-1"/>
<text text-anchor="middle" x="287.008" y="-48.2" font-family="Segoe UI Semibold" font-size="11.00">CollisionManager</text>
<polyline fill="none" stroke="black" points="233.508,-41 340.508,-41 "/>
<text text-anchor="middle" x="287.008" y="-28.2" font-family="Segoe UI Semibold" font-size="11.00"> </text>
<polyline fill="none" stroke="black" points="233.508,-21 340.508,-21 "/>
<text text-anchor="start" x="241.508" y="-8.2" font-family="Segoe UI Semibold" font-size="11.00">+ initWithScene:</text>
</g>
<!-- Node2 -->
<g id="node2" class="node"><title>Node2</title>
<polygon fill="white" stroke="#bfbfbf" points="100.508,-247 100.508,-307 165.508,-307 165.508,-247 100.508,-247"/>
<text text-anchor="middle" x="133.008" y="-294.2" font-family="Segoe UI Semibold" font-size="11.00">NSObject</text>
<polyline fill="none" stroke="#bfbfbf" points="100.508,-287 165.508,-287 "/>
<text text-anchor="middle" x="133.008" y="-274.2" font-family="Segoe UI Semibold" font-size="11.00"> </text>
<polyline fill="none" stroke="#bfbfbf" points="100.508,-267 165.508,-267 "/>
<text text-anchor="middle" x="133.008" y="-254.2" font-family="Segoe UI Semibold" font-size="11.00"> </text>
</g>
<!-- Node2&#45;&gt;Node1 -->
<g id="edge1" class="edge"><title>Node2&#45;&gt;Node1</title>
<path fill="none" stroke="midnightblue" d="M90.7484,-263.067C64.7591,-252.679 33.5493,-235.244 18.0085,-208 -3.57284,-170.167 -7.73852,-145.131 18.0085,-110 43.4466,-75.2904 162.302,-51.2904 233.236,-39.7832"/>
<polygon fill="none" stroke="midnightblue" points="89.8181,-266.457 100.41,-266.709 92.2872,-259.906 89.8181,-266.457"/>
</g>
<!-- Node4 -->
<g id="node4" class="node"><title>Node4</title>
<g id="a_node4"><a xlink:href="interface_power_up_manager.html" target="_top" xlink:title="Responsible for updating and drawing anything related to power ups. ">
<polygon fill="white" stroke="black" points="27.5085,-123 27.5085,-195 138.508,-195 138.508,-123 27.5085,-123"/>
<text text-anchor="middle" x="83.0085" y="-182.2" font-family="Segoe UI Semibold" font-size="11.00">PowerUpManager</text>
<polyline fill="none" stroke="black" points="27.5085,-175 138.508,-175 "/>
<text text-anchor="start" x="35.5085" y="-162.2" font-family="Segoe UI Semibold" font-size="11.00">+ powerUps</text>
<polyline fill="none" stroke="black" points="27.5085,-155 138.508,-155 "/>
<text text-anchor="start" x="35.5085" y="-142.2" font-family="Segoe UI Semibold" font-size="11.00">+ initWithScene:</text>
<text text-anchor="start" x="35.5085" y="-130.2" font-family="Segoe UI Semibold" font-size="11.00">+ update</text>
</a>
</g>
</g>
<!-- Node2&#45;&gt;Node4 -->
<g id="edge4" class="edge"><title>Node2&#45;&gt;Node4</title>
<path fill="none" stroke="midnightblue" d="M116.432,-237.542C110.52,-223.827 103.897,-208.462 98.1161,-195.05"/>
<polygon fill="none" stroke="midnightblue" points="113.219,-238.93 120.391,-246.728 119.647,-236.16 113.219,-238.93"/>
</g>
<!-- Node5 -->
<g id="node5" class="node"><title>Node5</title>
<g id="a_node5"><a xlink:href="interface_h_u_d_manager.html" target="_top" xlink:title="Displays information for the player. ">
<polygon fill="white" stroke="black" points="157.008,-123 157.008,-195 261.008,-195 261.008,-123 157.008,-123"/>
<text text-anchor="middle" x="209.008" y="-182.2" font-family="Segoe UI Semibold" font-size="11.00">HUDManager</text>
<polyline fill="none" stroke="black" points="157.008,-175 261.008,-175 "/>
<text text-anchor="start" x="165.008" y="-162.2" font-family="Segoe UI Semibold" font-size="11.00">+ players</text>
<polyline fill="none" stroke="black" points="157.008,-155 261.008,-155 "/>
<text text-anchor="start" x="165.008" y="-142.2" font-family="Segoe UI Semibold" font-size="11.00">+ initWithScene:</text>
<text text-anchor="start" x="165.008" y="-130.2" font-family="Segoe UI Semibold" font-size="11.00">+ update</text>
</a>
</g>
</g>
<!-- Node2&#45;&gt;Node5 -->
<g id="edge6" class="edge"><title>Node2&#45;&gt;Node5</title>
<path fill="none" stroke="midnightblue" d="M157.688,-238.331C166.803,-224.419 177.088,-208.72 186.045,-195.05"/>
<polygon fill="none" stroke="midnightblue" points="154.739,-236.446 152.186,-246.728 160.594,-240.282 154.739,-236.446"/>
</g>
<!-- Node8 -->
<g id="node8" class="node"><title>Node8</title>
<g id="a_node8"><a xlink:href="interface_enemy_manager.html" target="_top" xlink:title="Responsible for handling all enemies. ">
<polygon fill="white" stroke="black" points="279.008,-111 279.008,-207 475.008,-207 475.008,-111 279.008,-111"/>
<text text-anchor="middle" x="377.008" y="-194.2" font-family="Segoe UI Semibold" font-size="11.00">EnemyManager</text>
<polyline fill="none" stroke="black" points="279.008,-187 475.008,-187 "/>
<text text-anchor="middle" x="377.008" y="-174.2" font-family="Segoe UI Semibold" font-size="11.00"> </text>
<polyline fill="none" stroke="black" points="279.008,-167 475.008,-167 "/>
<text text-anchor="start" x="287.008" y="-154.2" font-family="Segoe UI Semibold" font-size="11.00">+ initWithScene:</text>
<text text-anchor="start" x="287.008" y="-142.2" font-family="Segoe UI Semibold" font-size="11.00">+ update:</text>
<text text-anchor="start" x="287.008" y="-130.2" font-family="Segoe UI Semibold" font-size="11.00">+ createEnemyWithPlayerPostion:</text>
<text text-anchor="start" x="287.008" y="-118.2" font-family="Segoe UI Semibold" font-size="11.00">+ removeAllEnemies</text>
</a>
</g>
</g>
<!-- Node2&#45;&gt;Node8 -->
<g id="edge10" class="edge"><title>Node2&#45;&gt;Node8</title>
<path fill="none" stroke="midnightblue" d="M174.948,-256.062C203.577,-242.451 242.738,-223.833 278.966,-206.611"/>
<polygon fill="none" stroke="midnightblue" points="173.191,-253.021 165.662,-260.476 176.196,-259.343 173.191,-253.021"/>
</g>
<!-- Node3 -->
<g id="node3" class="node"><title>Node3</title>
<polygon fill="white" stroke="#bfbfbf" points="493.008,-129 493.008,-189 665.008,-189 665.008,-129 493.008,-129"/>
<text text-anchor="middle" x="579.008" y="-176.2" font-family="Segoe UI Semibold" font-size="11.00">&lt;SKPhysicsContactDelegate&gt;</text>
<polyline fill="none" stroke="#bfbfbf" points="493.008,-169 665.008,-169 "/>
<text text-anchor="middle" x="579.008" y="-156.2" font-family="Segoe UI Semibold" font-size="11.00"> </text>
<polyline fill="none" stroke="#bfbfbf" points="493.008,-149 665.008,-149 "/>
<text text-anchor="middle" x="579.008" y="-136.2" font-family="Segoe UI Semibold" font-size="11.00"> </text>
</g>
<!-- Node3&#45;&gt;Node1 -->
<g id="edge2" class="edge"><title>Node3&#45;&gt;Node1</title>
<path fill="none" stroke="midnightblue" d="M519.385,-124.02C492.545,-109.45 460.172,-92.8616 430.008,-80 401.101,-67.6741 367.874,-56.3568 340.728,-47.811"/>
<polygon fill="none" stroke="midnightblue" points="517.811,-127.148 528.264,-128.875 521.169,-121.006 517.811,-127.148"/>
</g>
<!-- Node4&#45;&gt;Node1 -->
<g id="edge3" class="edge"><title>Node4&#45;&gt;Node1</title>
<path fill="none" stroke="#404040" d="M96.7639,-122.854C104.258,-107.759 114.921,-91.0794 129.008,-80 155.467,-59.1911 190.891,-47.3729 221.492,-40.6756"/>
<polygon fill="none" stroke="#404040" points="221.629,-40.6481 226.717,-35.5384 233.391,-38.2702 228.303,-43.3798 221.629,-40.6481"/>
<text text-anchor="middle" x="182.008" y="-83.2" font-family="Segoe UI Semibold" font-size="11.00"> +powerUpManager</text>
</g>
<!-- Node5&#45;&gt;Node1 -->
<g id="edge5" class="edge"><title>Node5&#45;&gt;Node1</title>
<path fill="none" stroke="#404040" d="M222.74,-122.703C228.751,-108.914 236.403,-93.2617 245.008,-80 247.023,-76.8955 249.227,-73.7836 251.538,-70.7189"/>
<polygon fill="none" stroke="#404040" points="251.685,-70.5346 252.305,-63.3502 259.175,-61.159 258.555,-68.3434 251.685,-70.5346"/>
<text text-anchor="middle" x="284.508" y="-83.2" font-family="Segoe UI Semibold" font-size="11.00"> +hudManager</text>
</g>
<!-- Node6 -->
<g id="node6" class="node"><title>Node6</title>
<g id="a_node6"><a xlink:href="interface_sound_manager.html" target="_top" xlink:title="Responsible for playing sound effects and music. ">
<polygon fill="white" stroke="black" points="683.508,-117 683.508,-201 826.508,-201 826.508,-117 683.508,-117"/>
<text text-anchor="middle" x="755.008" y="-188.2" font-family="Segoe UI Semibold" font-size="11.00">SoundManager</text>
<polyline fill="none" stroke="black" points="683.508,-181 826.508,-181 "/>
<text text-anchor="middle" x="755.008" y="-168.2" font-family="Segoe UI Semibold" font-size="11.00"> </text>
<polyline fill="none" stroke="black" points="683.508,-161 826.508,-161 "/>
<text text-anchor="start" x="691.508" y="-148.2" font-family="Segoe UI Semibold" font-size="11.00">+ playSound:</text>
<text text-anchor="start" x="691.508" y="-136.2" font-family="Segoe UI Semibold" font-size="11.00">+ playBackgroundMusic</text>
<text text-anchor="start" x="691.508" y="-124.2" font-family="Segoe UI Semibold" font-size="11.00">+ stop</text>
</a>
</g>
</g>
<!-- Node6&#45;&gt;Node1 -->
<g id="edge7" class="edge"><title>Node6&#45;&gt;Node1</title>
<path fill="none" stroke="#404040" d="M689.619,-116.813C684.435,-114.305 679.196,-111.994 674.008,-110 565.61,-68.3397 431.173,-47.6574 352.649,-38.4338"/>
<polygon fill="none" stroke="#404040" points="352.462,-38.4125 346.046,-41.7056 340.539,-37.0504 346.954,-33.7573 352.462,-38.4125"/>
<text text-anchor="middle" x="658.508" y="-83.2" font-family="Segoe UI Semibold" font-size="11.00"> +soundManager</text>
</g>
<!-- Node7 -->
<g id="node7" class="node"><title>Node7</title>
<polygon fill="white" stroke="#bfbfbf" points="725.508,-247 725.508,-307 784.508,-307 784.508,-247 725.508,-247"/>
<text text-anchor="middle" x="755.008" y="-294.2" font-family="Segoe UI Semibold" font-size="11.00">SKNode</text>
<polyline fill="none" stroke="#bfbfbf" points="725.508,-287 784.508,-287 "/>
<text text-anchor="middle" x="755.008" y="-274.2" font-family="Segoe UI Semibold" font-size="11.00"> </text>
<polyline fill="none" stroke="#bfbfbf" points="725.508,-267 784.508,-267 "/>
<text text-anchor="middle" x="755.008" y="-254.2" font-family="Segoe UI Semibold" font-size="11.00"> </text>
</g>
<!-- Node7&#45;&gt;Node6 -->
<g id="edge8" class="edge"><title>Node7&#45;&gt;Node6</title>
<path fill="none" stroke="midnightblue" d="M755.008,-236.586C755.008,-225.147 755.008,-212.63 755.008,-201.091"/>
<polygon fill="none" stroke="midnightblue" points="751.509,-236.728 755.008,-246.728 758.509,-236.728 751.509,-236.728"/>
</g>
<!-- Node8&#45;&gt;Node1 -->
<g id="edge9" class="edge"><title>Node8&#45;&gt;Node1</title>
<path fill="none" stroke="#404040" d="M345.509,-110.663C338.541,-100.47 331.114,-89.8125 324.008,-80 321.856,-77.028 319.604,-73.9749 317.318,-70.918"/>
<polygon fill="none" stroke="#404040" points="317.231,-70.8034 310.421,-68.434 309.988,-61.2359 316.799,-63.6052 317.231,-70.8034"/>
<text text-anchor="middle" x="379.008" y="-83.2" font-family="Segoe UI Semibold" font-size="11.00"> +enemyManager</text>
</g>
</g>
</svg>
        <g id="navigator" transform="translate(0 0)" fill="#404254">
                <rect fill="#f2f5e9" fill-opacity="0.5" stroke="#606060" stroke-width=".5" x="0" y="0" width="60" height="60"/>
                <use id="zoomplus" xlink:href="#zoomPlus" x="17" y="9" onmousedown="handleZoom(evt,'in')"/>
                <use id="zoomminus" xlink:href="#zoomMin" x="42" y="9" onmousedown="handleZoom(evt,'out')"/>
                <use id="reset" xlink:href="#resetDef" x="30" y="36" onmousedown="handleReset()"/>
                <g id="arrowUp" xlink:href="#dirArrow" transform="translate(30 24)" onmousedown="handlePan(0,-1)">
                  <use xlink:href="#rim" fill="#404040">
                        <set attributeName="fill" to="#808080" begin="arrowUp.mouseover" end="arrowUp.mouseout"/>
                  </use>
                  <path fill="none" stroke="white" stroke-width="1.5" d="M0,-3.0v7 M-2.5,-0.5L0,-3.0L2.5,-0.5"/>
                </g>
                <g id="arrowRight" xlink:href="#dirArrow" transform="rotate(90) translate(36 -43)" onmousedown="handlePan(1,0)">
                  <use xlink:href="#rim" fill="#404040">
                        <set attributeName="fill" to="#808080" begin="arrowRight.mouseover" end="arrowRight.mouseout"/>
                  </use>
                  <path fill="none" stroke="white" stroke-width="1.5" d="M0,-3.0v7 M-2.5,-0.5L0,-3.0L2.5,-0.5"/>
                </g>
                <g id="arrowDown" xlink:href="#dirArrow" transform="rotate(180) translate(-30 -48)" onmousedown="handlePan(0,1)">
                  <use xlink:href="#rim" fill="#404040">
                        <set attributeName="fill" to="#808080" begin="arrowDown.mouseover" end="arrowDown.mouseout"/>
                  </use>
                  <path fill="none" stroke="white" stroke-width="1.5" d="M0,-3.0v7 M-2.5,-0.5L0,-3.0L2.5,-0.5"/>
                </g>
                <g id="arrowLeft" xlink:href="#dirArrow" transform="rotate(270) translate(-36 17)" onmousedown="handlePan(-1,0)">
                  <use xlink:href="#rim" fill="#404040">
                        <set attributeName="fill" to="#808080" begin="arrowLeft.mouseover" end="arrowLeft.mouseout"/>
                  </use>
                  <path fill="none" stroke="white" stroke-width="1.5" d="M0,-3.0v7 M-2.5,-0.5L0,-3.0L2.5,-0.5"/>
                </g>
        </g>
        <svg viewBox="0 0 15 15" width="100%" height="30px" preserveAspectRatio="xMaxYMin meet">
         <g id="arrow_out" transform="scale(0.3 0.3)">
          <a xlink:href="interface_collision_manager__coll__graph_org.svg" target="_base">
           <rect id="button" ry="5" rx="5" y="6" x="6" height="38" width="38"
                fill="#f2f5e9" fill-opacity="0.5" stroke="#606060" stroke-width="1.0"/>
           <path id="arrow"
             d="M 11.500037,31.436501 C 11.940474,20.09759 22.043105,11.32322 32.158766,21.979434 L 37.068811,17.246167 C 37.068811,17.246167 37.088388,32 37.088388,32 L 22.160133,31.978069 C 22.160133,31.978069 26.997745,27.140456 26.997745,27.140456 C 18.528582,18.264221 13.291696,25.230495 11.500037,31.436501 z"
             style="fill:#404040;"/>
          </a>
         </g>
        </svg>
</svg>
