<?xml version="1.0" encoding="UTF-8" standalone="no"?>
<!DOCTYPE svg PUBLIC "-//W3C//DTD SVG 1.1//EN"
 "http://www.w3.org/Graphics/SVG/1.1/DTD/svg11.dtd">
<!-- Generated by graphviz version 2.34.0 (20130907.0111)
 -->
<!-- Title: Player Pages: 1 -->
<svg width="287pt" height="312pt"
 viewBox="0.00 0.00 287.00 312.00" xmlns="http://www.w3.org/2000/svg" xmlns:xlink="http://www.w3.org/1999/xlink">
<g id="graph0" class="graph" transform="scale(1 1) rotate(0) translate(4 308)">
<title>Player</title>
<polygon fill="white" stroke="white" points="-4,4 -4,-308 283,-308 283,4 -4,4"/>
<!-- Node1 -->
<g id="node1" class="node"><title>Node1</title>
<polygon fill="#bfbfbf" stroke="black" points="36,-1 36,-205 200,-205 200,-1 36,-1"/>
<text text-anchor="middle" x="118" y="-192.2" font-family="Segoe UI Semibold" font-size="11.00">Player</text>
<polyline fill="none" stroke="black" points="36,-185 200,-185 "/>
<text text-anchor="start" x="44" y="-172.2" font-family="Segoe UI Semibold" font-size="11.00">+ playerController</text>
<text text-anchor="start" x="44" y="-160.2" font-family="Segoe UI Semibold" font-size="11.00">+ score</text>
<text text-anchor="start" x="44" y="-148.2" font-family="Segoe UI Semibold" font-size="11.00">+ starCount</text>
<text text-anchor="start" x="44" y="-136.2" font-family="Segoe UI Semibold" font-size="11.00">+ playerSpeed</text>
<text text-anchor="start" x="44" y="-124.2" font-family="Segoe UI Semibold" font-size="11.00">+ peerID</text>
<text text-anchor="start" x="44" y="-112.2" font-family="Segoe UI Semibold" font-size="11.00">+ dead</text>
<text text-anchor="start" x="44" y="-100.2" font-family="Segoe UI Semibold" font-size="11.00">+ immortal</text>
<text text-anchor="start" x="44" y="-88.2" font-family="Segoe UI Semibold" font-size="11.00">+ scoreBoost</text>
<polyline fill="none" stroke="black" points="36,-81 200,-81 "/>
<text text-anchor="start" x="44" y="-68.2" font-family="Segoe UI Semibold" font-size="11.00">+ initWithHUDManager:</text>
<text text-anchor="start" x="44" y="-56.2" font-family="Segoe UI Semibold" font-size="11.00">+ touchesBegan:withEvent:</text>
<text text-anchor="start" x="44" y="-44.2" font-family="Segoe UI Semibold" font-size="11.00">+ touchesMoved:withEvent:</text>
<text text-anchor="start" x="44" y="-32.2" font-family="Segoe UI Semibold" font-size="11.00">+ touchesEnded:withEvent:</text>
<text text-anchor="start" x="44" y="-20.2" font-family="Segoe UI Semibold" font-size="11.00">+ didBeginContactWith:</text>
<text text-anchor="start" x="44" y="-8.2" font-family="Segoe UI Semibold" font-size="11.00">+ update</text>
</g>
<!-- Node2 -->
<g id="node2" class="node"><title>Node2</title>
<polygon fill="white" stroke="#bfbfbf" points="-0.5,-243 -0.5,-303 88.5,-303 88.5,-243 -0.5,-243"/>
<text text-anchor="middle" x="44" y="-290.2" font-family="Segoe UI Semibold" font-size="11.00">SKSpriteNode</text>
<polyline fill="none" stroke="#bfbfbf" points="-0.5,-283 88.5,-283 "/>
<text text-anchor="middle" x="44" y="-270.2" font-family="Segoe UI Semibold" font-size="11.00"> </text>
<polyline fill="none" stroke="#bfbfbf" points="-0.5,-263 88.5,-263 "/>
<text text-anchor="middle" x="44" y="-250.2" font-family="Segoe UI Semibold" font-size="11.00"> </text>
</g>
<!-- Node2&#45;&gt;Node1 -->
<g id="edge1" class="edge"><title>Node2&#45;&gt;Node1</title>
<path fill="none" stroke="midnightblue" d="M61.0316,-233.334C64.8661,-224.628 69.1092,-214.995 73.4993,-205.029"/>
<polygon fill="none" stroke="midnightblue" points="57.7179,-232.174 56.8898,-242.737 64.124,-234.996 57.7179,-232.174"/>
</g>
<!-- Node3 -->
<g id="node3" class="node"><title>Node3</title>
<polygon fill="white" stroke="#bfbfbf" points="107,-243 107,-303 279,-303 279,-243 107,-243"/>
<text text-anchor="middle" x="193" y="-290.2" font-family="Segoe UI Semibold" font-size="11.00">&lt;SKPhysicsContactDelegate&gt;</text>
<polyline fill="none" stroke="#bfbfbf" points="107,-283 279,-283 "/>
<text text-anchor="middle" x="193" y="-270.2" font-family="Segoe UI Semibold" font-size="11.00"> </text>
<polyline fill="none" stroke="#bfbfbf" points="107,-263 279,-263 "/>
<text text-anchor="middle" x="193" y="-250.2" font-family="Segoe UI Semibold" font-size="11.00"> </text>
</g>
<!-- Node3&#45;&gt;Node1 -->
<g id="edge2" class="edge"><title>Node3&#45;&gt;Node1</title>
<path fill="none" stroke="midnightblue" d="M175.738,-233.334C171.852,-224.628 167.552,-214.995 163.102,-205.029"/>
<polygon fill="none" stroke="midnightblue" points="172.663,-235.032 179.936,-242.737 179.055,-232.178 172.663,-235.032"/>
</g>
</g>
</svg>
