<?xml version="1.0" encoding="UTF-8" standalone="no"?>
<!DOCTYPE svg PUBLIC "-//W3C//DTD SVG 1.1//EN"
 "http://www.w3.org/Graphics/SVG/1.1/DTD/svg11.dtd">
<!-- Generated by graphviz version 2.34.0 (20130907.0111)
 -->
<!-- Title: Hunter Pages: 1 -->
<svg width="180pt" height="204pt"
 viewBox="0.00 0.00 180.00 204.00" xmlns="http://www.w3.org/2000/svg" xmlns:xlink="http://www.w3.org/1999/xlink">
<g id="graph0" class="graph" transform="scale(1 1) rotate(0) translate(4 200)">
<title>Hunter</title>
<polygon fill="white" stroke="white" points="-4,4 -4,-200 176,-200 176,4 -4,4"/>
<!-- Node1 -->
<g id="node1" class="node"><title>Node1</title>
<polygon fill="#bfbfbf" stroke="black" points="-0.5,-1 -0.5,-97 172.5,-97 172.5,-1 -0.5,-1"/>
<text text-anchor="middle" x="86" y="-84.2" font-family="Segoe UI Semibold" font-size="11.00">Hunter</text>
<polyline fill="none" stroke="black" points="-0.5,-77 172.5,-77 "/>
<text text-anchor="middle" x="86" y="-64.2" font-family="Segoe UI Semibold" font-size="11.00"> </text>
<polyline fill="none" stroke="black" points="-0.5,-57 172.5,-57 "/>
<text text-anchor="start" x="7.5" y="-44.2" font-family="Segoe UI Semibold" font-size="11.00">+ initWithPlayer:AndPosition:</text>
<text text-anchor="start" x="7.5" y="-32.2" font-family="Segoe UI Semibold" font-size="11.00">+ initWithPlayer:</text>
<text text-anchor="start" x="7.5" y="-20.2" font-family="Segoe UI Semibold" font-size="11.00">+ setRandomPosition</text>
<text text-anchor="start" x="7.5" y="-8.2" font-family="Segoe UI Semibold" font-size="11.00">+ update</text>
</g>
<!-- Node2 -->
<g id="node2" class="node"><title>Node2</title>
<polygon fill="white" stroke="#bfbfbf" points="41.5,-135 41.5,-195 130.5,-195 130.5,-135 41.5,-135"/>
<text text-anchor="middle" x="86" y="-182.2" font-family="Segoe UI Semibold" font-size="11.00">SKSpriteNode</text>
<polyline fill="none" stroke="#bfbfbf" points="41.5,-175 130.5,-175 "/>
<text text-anchor="middle" x="86" y="-162.2" font-family="Segoe UI Semibold" font-size="11.00"> </text>
<polyline fill="none" stroke="#bfbfbf" points="41.5,-155 130.5,-155 "/>
<text text-anchor="middle" x="86" y="-142.2" font-family="Segoe UI Semibold" font-size="11.00"> </text>
</g>
<!-- Node2&#45;&gt;Node1 -->
<g id="edge1" class="edge"><title>Node2&#45;&gt;Node1</title>
<path fill="none" stroke="midnightblue" d="M86,-124.836C86,-115.928 86,-106.372 86,-97.1692"/>
<polygon fill="none" stroke="midnightblue" points="82.5001,-124.938 86,-134.938 89.5001,-124.938 82.5001,-124.938"/>
</g>
</g>
</svg>
