<?xml version="1.0" encoding="UTF-8" standalone="no"?>
<!DOCTYPE svg PUBLIC "-//W3C//DTD SVG 1.1//EN"
 "http://www.w3.org/Graphics/SVG/1.1/DTD/svg11.dtd">
<!-- Generated by graphviz version 2.34.0 (20130907.0111)
 -->
<!-- Title: PowerUp Pages: 1 -->
<svg width="150pt" height="204pt"
 viewBox="0.00 0.00 150.00 204.00" xmlns="http://www.w3.org/2000/svg" xmlns:xlink="http://www.w3.org/1999/xlink">
<g id="graph0" class="graph" transform="scale(1 1) rotate(0) translate(4 200)">
<title>PowerUp</title>
<polygon fill="white" stroke="white" points="-4,4 -4,-200 146,-200 146,4 -4,4"/>
<!-- Node1 -->
<g id="node1" class="node"><title>Node1</title>
<polygon fill="#bfbfbf" stroke="black" points="-0.5,-1 -0.5,-97 142.5,-97 142.5,-1 -0.5,-1"/>
<text text-anchor="middle" x="71" y="-84.2" font-family="Segoe UI Semibold" font-size="11.00">PowerUp</text>
<polyline fill="none" stroke="black" points="-0.5,-77 142.5,-77 "/>
<text text-anchor="middle" x="71" y="-64.2" font-family="Segoe UI Semibold" font-size="11.00"> </text>
<polyline fill="none" stroke="black" points="-0.5,-57 142.5,-57 "/>
<text text-anchor="start" x="7.5" y="-44.2" font-family="Segoe UI Semibold" font-size="11.00">+ didBeginContactWith:</text>
<text text-anchor="start" x="7.5" y="-32.2" font-family="Segoe UI Semibold" font-size="11.00">+ update</text>
<text text-anchor="start" x="7.5" y="-20.2" font-family="Segoe UI Semibold" font-size="11.00">+ changePosition</text>
<text text-anchor="start" x="7.5" y="-8.2" font-family="Segoe UI Semibold" font-size="11.00">+ chanceToSpawn</text>
</g>
<!-- Node2 -->
<g id="node2" class="node"><title>Node2</title>
<polygon fill="white" stroke="#bfbfbf" points="26.5,-135 26.5,-195 115.5,-195 115.5,-135 26.5,-135"/>
<text text-anchor="middle" x="71" y="-182.2" font-family="Segoe UI Semibold" font-size="11.00">SKSpriteNode</text>
<polyline fill="none" stroke="#bfbfbf" points="26.5,-175 115.5,-175 "/>
<text text-anchor="middle" x="71" y="-162.2" font-family="Segoe UI Semibold" font-size="11.00"> </text>
<polyline fill="none" stroke="#bfbfbf" points="26.5,-155 115.5,-155 "/>
<text text-anchor="middle" x="71" y="-142.2" font-family="Segoe UI Semibold" font-size="11.00"> </text>
</g>
<!-- Node2&#45;&gt;Node1 -->
<g id="edge1" class="edge"><title>Node2&#45;&gt;Node1</title>
<path fill="none" stroke="midnightblue" d="M71,-124.836C71,-115.928 71,-106.372 71,-97.1692"/>
<polygon fill="none" stroke="midnightblue" points="67.5001,-124.938 71,-134.938 74.5001,-124.938 67.5001,-124.938"/>
</g>
</g>
</svg>
