<?xml version="1.0" encoding="UTF-8" standalone="no"?>
<!DOCTYPE svg PUBLIC "-//W3C//DTD SVG 1.1//EN"
 "http://www.w3.org/Graphics/SVG/1.1/DTD/svg11.dtd">
<!-- Generated by graphviz version 2.34.0 (20130907.0111)
 -->
<!-- Title: PeerToPeerManager Pages: 1 -->
<svg width="409pt" height="324pt"
 viewBox="0.00 0.00 409.00 324.00" xmlns="http://www.w3.org/2000/svg" xmlns:xlink="http://www.w3.org/1999/xlink">
<g id="graph0" class="graph" transform="scale(1 1) rotate(0) translate(4 320)">
<title>PeerToPeerManager</title>
<polygon fill="white" stroke="white" points="-4,4 -4,-320 405,-320 405,4 -4,4"/>
<!-- Node1 -->
<g id="node1" class="node"><title>Node1</title>
<polygon fill="#bfbfbf" stroke="black" points="52,-1 52,-205 278,-205 278,-1 52,-1"/>
<text text-anchor="middle" x="165" y="-192.2" font-family="Segoe UI Semibold" font-size="11.00">PeerToPeerManager</text>
<polyline fill="none" stroke="black" points="52,-185 278,-185 "/>
<text text-anchor="start" x="60" y="-172.2" font-family="Segoe UI Semibold" font-size="11.00">+ isHost</text>
<text text-anchor="start" x="60" y="-160.2" font-family="Segoe UI Semibold" font-size="11.00">+ isMatchActive</text>
<text text-anchor="start" x="60" y="-148.2" font-family="Segoe UI Semibold" font-size="11.00">+ advertiserIsAdvertising</text>
<text text-anchor="start" x="60" y="-136.2" font-family="Segoe UI Semibold" font-size="11.00">+ delegate</text>
<text text-anchor="start" x="60" y="-124.2" font-family="Segoe UI Semibold" font-size="11.00">+ waitForPeers</text>
<polyline fill="none" stroke="black" points="52,-117 278,-117 "/>
<text text-anchor="start" x="60" y="-104.2" font-family="Segoe UI Semibold" font-size="11.00">+ sendMessage:</text>
<text text-anchor="start" x="60" y="-92.2" font-family="Segoe UI Semibold" font-size="11.00">+ showPeerBrowserWithViewController</text>
<text text-anchor="start" x="60" y="-80.2" font-family="Segoe UI Semibold" font-size="11.00">:delegate:</text>
<text text-anchor="start" x="60" y="-68.2" font-family="Segoe UI Semibold" font-size="11.00">+ startAdvertisingWithDelegate:</text>
<text text-anchor="start" x="60" y="-56.2" font-family="Segoe UI Semibold" font-size="11.00">+ stopAdvertising</text>
<text text-anchor="start" x="60" y="-44.2" font-family="Segoe UI Semibold" font-size="11.00">+ ConnectedPeers</text>
<text text-anchor="start" x="60" y="-32.2" font-family="Segoe UI Semibold" font-size="11.00">+ myPeerID</text>
<text text-anchor="start" x="60" y="-20.2" font-family="Segoe UI Semibold" font-size="11.00">+ disconnect</text>
<text text-anchor="start" x="60" y="-8.2" font-family="Segoe UI Semibold" font-size="11.00">+ sharedInstance</text>
</g>
<!-- Node2 -->
<g id="node2" class="node"><title>Node2</title>
<polygon fill="white" stroke="#bfbfbf" points="-0.5,-249 -0.5,-309 64.5,-309 64.5,-249 -0.5,-249"/>
<text text-anchor="middle" x="32" y="-296.2" font-family="Segoe UI Semibold" font-size="11.00">NSObject</text>
<polyline fill="none" stroke="#bfbfbf" points="-0.5,-289 64.5,-289 "/>
<text text-anchor="middle" x="32" y="-276.2" font-family="Segoe UI Semibold" font-size="11.00"> </text>
<polyline fill="none" stroke="#bfbfbf" points="-0.5,-269 64.5,-269 "/>
<text text-anchor="middle" x="32" y="-256.2" font-family="Segoe UI Semibold" font-size="11.00"> </text>
</g>
<!-- Node2&#45;&gt;Node1 -->
<g id="edge1" class="edge"><title>Node2&#45;&gt;Node1</title>
<path fill="none" stroke="midnightblue" d="M60.5274,-240.678C68.6655,-230.032 77.9448,-217.892 87.5371,-205.342"/>
<polygon fill="none" stroke="midnightblue" points="57.5533,-238.806 54.2612,-248.876 63.1148,-243.057 57.5533,-238.806"/>
</g>
<!-- Node3 -->
<g id="node3" class="node"><title>Node3</title>
<polygon fill="white" stroke="#bfbfbf" points="83,-243 83,-315 247,-315 247,-243 83,-243"/>
<text text-anchor="start" x="91" y="-302.2" font-family="Segoe UI Semibold" font-size="11.00">&lt;MCBrowserViewController</text>
<text text-anchor="middle" x="165" y="-290.2" font-family="Segoe UI Semibold" font-size="11.00">Delegate&gt;</text>
<polyline fill="none" stroke="#bfbfbf" points="83,-283 247,-283 "/>
<text text-anchor="middle" x="165" y="-270.2" font-family="Segoe UI Semibold" font-size="11.00"> </text>
<polyline fill="none" stroke="#bfbfbf" points="83,-263 247,-263 "/>
<text text-anchor="middle" x="165" y="-250.2" font-family="Segoe UI Semibold" font-size="11.00"> </text>
</g>
<!-- Node3&#45;&gt;Node1 -->
<g id="edge2" class="edge"><title>Node3&#45;&gt;Node1</title>
<path fill="none" stroke="midnightblue" d="M165,-232.637C165,-223.996 165,-214.639 165,-205.047"/>
<polygon fill="none" stroke="midnightblue" points="161.5,-232.788 165,-242.789 168.5,-232.789 161.5,-232.788"/>
</g>
<!-- Node4 -->
<g id="node4" class="node"><title>Node4</title>
<polygon fill="white" stroke="#bfbfbf" points="265,-249 265,-309 401,-309 401,-249 265,-249"/>
<text text-anchor="middle" x="333" y="-296.2" font-family="Segoe UI Semibold" font-size="11.00">&lt;MCSessionDelegate&gt;</text>
<polyline fill="none" stroke="#bfbfbf" points="265,-289 401,-289 "/>
<text text-anchor="middle" x="333" y="-276.2" font-family="Segoe UI Semibold" font-size="11.00"> </text>
<polyline fill="none" stroke="#bfbfbf" points="265,-269 401,-269 "/>
<text text-anchor="middle" x="333" y="-256.2" font-family="Segoe UI Semibold" font-size="11.00"> </text>
</g>
<!-- Node4&#45;&gt;Node1 -->
<g id="edge3" class="edge"><title>Node4&#45;&gt;Node1</title>
<path fill="none" stroke="midnightblue" d="M297.878,-241.623C287.382,-230.752 275.324,-218.264 262.848,-205.342"/>
<polygon fill="none" stroke="midnightblue" points="295.417,-244.113 304.881,-248.876 300.453,-239.251 295.417,-244.113"/>
</g>
</g>
</svg>
