<?xml version="1.0" encoding="UTF-8" standalone="no"?>
<!DOCTYPE svg PUBLIC "-//W3C//DTD SVG 1.1//EN"
 "http://www.w3.org/Graphics/SVG/1.1/DTD/svg11.dtd">
<!-- Generated by graphviz version 2.34.0 (20130907.0111)
 -->
<!-- Title: Player Pages: 1 -->
<svg width="287pt" height="300pt"
 viewBox="0.00 0.00 287.00 300.00" xmlns="http://www.w3.org/2000/svg" xmlns:xlink="http://www.w3.org/1999/xlink">
<g id="graph0" class="graph" transform="scale(1 1) rotate(0) translate(4 296)">
<title>Player</title>
<polygon fill="white" stroke="white" points="-4,4 -4,-296 283,-296 283,4 -4,4"/>
<!-- Node1 -->
<g id="node1" class="node"><title>Node1</title>
<polygon fill="#bfbfbf" stroke="black" points="36,-1 36,-193 200,-193 200,-1 36,-1"/>
<text text-anchor="middle" x="118" y="-180.2" font-family="Segoe UI Semibold" font-size="11.00">Player</text>
<polyline fill="none" stroke="black" points="36,-173 200,-173 "/>
<text text-anchor="start" x="44" y="-160.2" font-family="Segoe UI Semibold" font-size="11.00">+ playerController</text>
<text text-anchor="start" x="44" y="-148.2" font-family="Segoe UI Semibold" font-size="11.00">+ score</text>
<text text-anchor="start" x="44" y="-136.2" font-family="Segoe UI Semibold" font-size="11.00">+ starCount</text>
<text text-anchor="start" x="44" y="-124.2" font-family="Segoe UI Semibold" font-size="11.00">+ playerSpeed</text>
<text text-anchor="start" x="44" y="-112.2" font-family="Segoe UI Semibold" font-size="11.00">+ dead</text>
<text text-anchor="start" x="44" y="-100.2" font-family="Segoe UI Semibold" font-size="11.00">+ immortal</text>
<text text-anchor="start" x="44" y="-88.2" font-family="Segoe UI Semibold" font-size="11.00">+ scoreBoost</text>
<polyline fill="none" stroke="black" points="36,-81 200,-81 "/>
<text text-anchor="start" x="44" y="-68.2" font-family="Segoe UI Semibold" font-size="11.00">+ initWithHUDManager:</text>
<text text-anchor="start" x="44" y="-56.2" font-family="Segoe UI Semibold" font-size="11.00">+ touchesBegan:withEvent:</text>
<text text-anchor="start" x="44" y="-44.2" font-family="Segoe UI Semibold" font-size="11.00">+ touchesMoved:withEvent:</text>
<text text-anchor="start" x="44" y="-32.2" font-family="Segoe UI Semibold" font-size="11.00">+ touchesEnded:withEvent:</text>
<text text-anchor="start" x="44" y="-20.2" font-family="Segoe UI Semibold" font-size="11.00">+ didBeginContactWith:</text>
<text text-anchor="start" x="44" y="-8.2" font-family="Segoe UI Semibold" font-size="11.00">+ update</text>
</g>
<!-- Node2 -->
<g id="node2" class="node"><title>Node2</title>
<polygon fill="white" stroke="#bfbfbf" points="-0.5,-231 -0.5,-291 88.5,-291 88.5,-231 -0.5,-231"/>
<text text-anchor="middle" x="44" y="-278.2" font-family="Segoe UI Semibold" font-size="11.00">SKSpriteNode</text>
<polyline fill="none" stroke="#bfbfbf" points="-0.5,-271 88.5,-271 "/>
<text text-anchor="middle" x="44" y="-258.2" font-family="Segoe UI Semibold" font-size="11.00"> </text>
<polyline fill="none" stroke="#bfbfbf" points="-0.5,-251 88.5,-251 "/>
<text text-anchor="middle" x="44" y="-238.2" font-family="Segoe UI Semibold" font-size="11.00"> </text>
</g>
<!-- Node2&#45;&gt;Node1 -->
<g id="edge1" class="edge"><title>Node2&#45;&gt;Node1</title>
<path fill="none" stroke="midnightblue" d="M61.6694,-221.318C65.6167,-212.677 69.9722,-203.142 74.4603,-193.317"/>
<polygon fill="none" stroke="midnightblue" points="58.3723,-220.113 57.4008,-230.663 64.7394,-223.021 58.3723,-220.113"/>
</g>
<!-- Node3 -->
<g id="node3" class="node"><title>Node3</title>
<polygon fill="white" stroke="#bfbfbf" points="107,-231 107,-291 279,-291 279,-231 107,-231"/>
<text text-anchor="middle" x="193" y="-278.2" font-family="Segoe UI Semibold" font-size="11.00">&lt;SKPhysicsContactDelegate&gt;</text>
<polyline fill="none" stroke="#bfbfbf" points="107,-271 279,-271 "/>
<text text-anchor="middle" x="193" y="-258.2" font-family="Segoe UI Semibold" font-size="11.00"> </text>
<polyline fill="none" stroke="#bfbfbf" points="107,-251 279,-251 "/>
<text text-anchor="middle" x="193" y="-238.2" font-family="Segoe UI Semibold" font-size="11.00"> </text>
</g>
<!-- Node3&#45;&gt;Node1 -->
<g id="edge2" class="edge"><title>Node3&#45;&gt;Node1</title>
<path fill="none" stroke="midnightblue" d="M175.092,-221.318C171.091,-212.677 166.677,-203.142 162.128,-193.317"/>
<polygon fill="none" stroke="midnightblue" points="172.041,-223.059 179.418,-230.663 178.393,-220.118 172.041,-223.059"/>
</g>
</g>
</svg>
