<?xml version="1.0" encoding="UTF-8" standalone="no"?>
<!DOCTYPE svg PUBLIC "-//W3C//DTD SVG 1.1//EN"
 "http://www.w3.org/Graphics/SVG/1.1/DTD/svg11.dtd">
<!-- Generated by graphviz version 2.34.0 (20130907.0111)
 -->
<!-- Title: AppDelegate Pages: 1 -->
<svg width="263pt" height="168pt"
 viewBox="0.00 0.00 263.00 168.00" xmlns="http://www.w3.org/2000/svg" xmlns:xlink="http://www.w3.org/1999/xlink">
<g id="graph0" class="graph" transform="scale(1 1) rotate(0) translate(4 164)">
<title>AppDelegate</title>
<polygon fill="white" stroke="white" points="-4,4 -4,-164 259,-164 259,4 -4,4"/>
<!-- Node1 -->
<g id="node1" class="node"><title>Node1</title>
<polygon fill="#bfbfbf" stroke="black" points="67.5,-1 67.5,-61 152.5,-61 152.5,-1 67.5,-1"/>
<text text-anchor="middle" x="110" y="-48.2" font-family="Segoe UI Semibold" font-size="11.00">AppDelegate</text>
<polyline fill="none" stroke="black" points="67.5,-41 152.5,-41 "/>
<text text-anchor="start" x="75.5" y="-28.2" font-family="Segoe UI Semibold" font-size="11.00">+ window</text>
<polyline fill="none" stroke="black" points="67.5,-21 152.5,-21 "/>
<text text-anchor="middle" x="110" y="-8.2" font-family="Segoe UI Semibold" font-size="11.00"> </text>
</g>
<!-- Node2 -->
<g id="node2" class="node"><title>Node2</title>
<polygon fill="white" stroke="#bfbfbf" points="-0.5,-99 -0.5,-159 84.5,-159 84.5,-99 -0.5,-99"/>
<text text-anchor="middle" x="42" y="-146.2" font-family="Segoe UI Semibold" font-size="11.00">UIResponder</text>
<polyline fill="none" stroke="#bfbfbf" points="-0.5,-139 84.5,-139 "/>
<text text-anchor="middle" x="42" y="-126.2" font-family="Segoe UI Semibold" font-size="11.00"> </text>
<polyline fill="none" stroke="#bfbfbf" points="-0.5,-119 84.5,-119 "/>
<text text-anchor="middle" x="42" y="-106.2" font-family="Segoe UI Semibold" font-size="11.00"> </text>
</g>
<!-- Node2&#45;&gt;Node1 -->
<g id="edge1" class="edge"><title>Node2&#45;&gt;Node1</title>
<path fill="none" stroke="midnightblue" d="M68.4977,-90.5914C75.3852,-80.868 82.7049,-70.5343 89.2485,-61.2962"/>
<polygon fill="none" stroke="midnightblue" points="65.5109,-88.753 62.5868,-98.9363 71.2231,-92.7991 65.5109,-88.753"/>
</g>
<!-- Node3 -->
<g id="node3" class="node"><title>Node3</title>
<polygon fill="white" stroke="#bfbfbf" points="103,-99 103,-159 255,-159 255,-99 103,-99"/>
<text text-anchor="middle" x="179" y="-146.2" font-family="Segoe UI Semibold" font-size="11.00">&lt;UIApplicationDelegate&gt;</text>
<polyline fill="none" stroke="#bfbfbf" points="103,-139 255,-139 "/>
<text text-anchor="middle" x="179" y="-126.2" font-family="Segoe UI Semibold" font-size="11.00"> </text>
<polyline fill="none" stroke="#bfbfbf" points="103,-119 255,-119 "/>
<text text-anchor="middle" x="179" y="-106.2" font-family="Segoe UI Semibold" font-size="11.00"> </text>
</g>
<!-- Node3&#45;&gt;Node1 -->
<g id="edge2" class="edge"><title>Node3&#45;&gt;Node1</title>
<path fill="none" stroke="midnightblue" d="M152.113,-90.5914C145.124,-80.868 137.697,-70.5343 131.057,-61.2962"/>
<polygon fill="none" stroke="midnightblue" points="149.432,-92.8589 158.11,-98.9363 155.116,-88.7734 149.432,-92.8589"/>
</g>
</g>
</svg>
