<?xml version="1.0" encoding="UTF-8" standalone="no"?>
<!DOCTYPE svg PUBLIC "-//W3C//DTD SVG 1.1//EN"
 "http://www.w3.org/Graphics/SVG/1.1/DTD/svg11.dtd">
<!-- Generated by graphviz version 2.34.0 (20130907.0111)
 -->
<!-- Title: Enemy Pages: 1 -->
<svg width="72pt" height="168pt"
 viewBox="0.00 0.00 72.00 168.00" xmlns="http://www.w3.org/2000/svg" xmlns:xlink="http://www.w3.org/1999/xlink">
<g id="graph0" class="graph" transform="scale(1 1) rotate(0) translate(4 164)">
<title>Enemy</title>
<polygon fill="white" stroke="white" points="-4,4 -4,-164 68,-164 68,4 -4,4"/>
<!-- Node1 -->
<g id="node1" class="node"><title>Node1</title>
<polygon fill="#bfbfbf" stroke="black" points="6,-1 6,-61 58,-61 58,-1 6,-1"/>
<text text-anchor="middle" x="32" y="-48.2" font-family="Segoe UI Semibold" font-size="11.00">Enemy</text>
<polyline fill="none" stroke="black" points="6,-41 58,-41 "/>
<text text-anchor="middle" x="32" y="-28.2" font-family="Segoe UI Semibold" font-size="11.00"> </text>
<polyline fill="none" stroke="black" points="6,-21 58,-21 "/>
<text text-anchor="middle" x="32" y="-8.2" font-family="Segoe UI Semibold" font-size="11.00"> </text>
</g>
<!-- Node2 -->
<g id="node2" class="node"><title>Node2</title>
<polygon fill="white" stroke="#bfbfbf" points="-0.5,-99 -0.5,-159 64.5,-159 64.5,-99 -0.5,-99"/>
<text text-anchor="middle" x="32" y="-146.2" font-family="Segoe UI Semibold" font-size="11.00">NSObject</text>
<polyline fill="none" stroke="#bfbfbf" points="-0.5,-139 64.5,-139 "/>
<text text-anchor="middle" x="32" y="-126.2" font-family="Segoe UI Semibold" font-size="11.00"> </text>
<polyline fill="none" stroke="#bfbfbf" points="-0.5,-119 64.5,-119 "/>
<text text-anchor="middle" x="32" y="-106.2" font-family="Segoe UI Semibold" font-size="11.00"> </text>
</g>
<!-- Node2&#45;&gt;Node1 -->
<g id="edge1" class="edge"><title>Node2&#45;&gt;Node1</title>
<path fill="none" stroke="midnightblue" d="M32,-88.8172C32,-79.6194 32,-69.9744 32,-61.2962"/>
<polygon fill="none" stroke="midnightblue" points="28.5001,-88.9363 32,-98.9363 35.5001,-88.9363 28.5001,-88.9363"/>
</g>
</g>
</svg>
