<?xml version="1.0" encoding="UTF-8" standalone="no"?>
<!DOCTYPE svg PUBLIC "-//W3C//DTD SVG 1.1//EN"
 "http://www.w3.org/Graphics/SVG/1.1/DTD/svg11.dtd">
<!-- Generated by graphviz version 2.34.0 (20130907.0111)
 -->
<!-- Title: CollisionManager Pages: 1 -->
<!--zoomable 340 -->
<svg id="main" version="1.1" xmlns="http://www.w3.org/2000/svg" xmlns:xlink="http://www.w3.org/1999/xlink" xml:space="preserve" onload="init(evt)">
<style type="text/css"><![CDATA[
.edge:hover path { stroke: red; }
.edge:hover polygon { stroke: red; fill: red; }
]]></style>
<script type="text/javascript"><![CDATA[
var edges = document.getElementsByTagName('g');
if (edges && edges.length) {
  for (var i=0;i<edges.length;i++) {
    if (edges[i].id.substr(0,4)=='edge') {
      edges[i].setAttribute('class','edge');
    }
  }
}
]]></script>
        <defs>
                <circle id="rim" cx="0" cy="0" r="7"/>
                <circle id="rim2" cx="0" cy="0" r="3.5"/>
                <g id="zoomPlus">
                        <use xlink:href="#rim" fill="#404040">
                                <set attributeName="fill" to="#808080" begin="zoomplus.mouseover" end="zoomplus.mouseout"/>
                        </use>
                        <path d="M-4,0h8M0,-4v8" fill="none" stroke="white" stroke-width="1.5" pointer-events="none"/>
                </g>
                <g id="zoomMin">
                        <use xlink:href="#rim" fill="#404040">
                                <set attributeName="fill" to="#808080" begin="zoomminus.mouseover" end="zoomminus.mouseout"/>
                        </use>
                        <path d="M-4,0h8" fill="none" stroke="white" stroke-width="1.5" pointer-events="none"/>
                </g>
                <g id="dirArrow">
                        <path fill="none" stroke="white" stroke-width="1.5" d="M0,-3.0v7 M-2.5,-0.5L0,-3.0L2.5,-0.5"/>
                </g>
               <g id="resetDef">
                       <use xlink:href="#rim2" fill="#404040">
                               <set attributeName="fill" to="#808080" begin="reset.mouseover" end="reset.mouseout"/>
                       </use>
               </g>
        </defs>

<script type="text/javascript">
var viewWidth = 919;
var viewHeight = 340;
var sectionId = 'dynsection-1';
</script>
<script xlink:href="svgpan.js"/>
<svg id="graph" class="graph">
<g id="viewport">
<title>CollisionManager</title>
<polygon fill="white" stroke="white" points="-4,4 -4,-336 915.18,-336 915.18,4 -4,4"/>
<!-- Node1 -->
<g id="node1" class="node"><title>Node1</title>
<polygon fill="#bfbfbf" stroke="black" points="314.68,-1 314.68,-61 421.68,-61 421.68,-1 314.68,-1"/>
<text text-anchor="middle" x="368.18" y="-48.2" font-family="Segoe UI Semibold" font-size="11.00">CollisionManager</text>
<polyline fill="none" stroke="black" points="314.68,-41 421.68,-41 "/>
<text text-anchor="middle" x="368.18" y="-28.2" font-family="Segoe UI Semibold" font-size="11.00"> </text>
<polyline fill="none" stroke="black" points="314.68,-21 421.68,-21 "/>
<text text-anchor="start" x="322.68" y="-8.2" font-family="Segoe UI Semibold" font-size="11.00">+ initWithScene:</text>
</g>
<!-- Node2 -->
<g id="node2" class="node"><title>Node2</title>
<polygon fill="white" stroke="#bfbfbf" points="160.68,-271 160.68,-331 225.68,-331 225.68,-271 160.68,-271"/>
<text text-anchor="middle" x="193.18" y="-318.2" font-family="Segoe UI Semibold" font-size="11.00">NSObject</text>
<polyline fill="none" stroke="#bfbfbf" points="160.68,-311 225.68,-311 "/>
<text text-anchor="middle" x="193.18" y="-298.2" font-family="Segoe UI Semibold" font-size="11.00"> </text>
<polyline fill="none" stroke="#bfbfbf" points="160.68,-291 225.68,-291 "/>
<text text-anchor="middle" x="193.18" y="-278.2" font-family="Segoe UI Semibold" font-size="11.00"> </text>
</g>
<!-- Node2&#45;&gt;Node1 -->
<g id="edge1" class="edge"><title>Node2&#45;&gt;Node1</title>
<path fill="none" stroke="midnightblue" d="M150.313,-295.965C110.138,-289.651 52.1924,-273.466 24.1801,-232 -6.17263,-187.069 -9.65708,-152.369 24.1801,-110 59.9116,-65.2596 226.995,-44.2625 314.467,-36.194"/>
<polygon fill="none" stroke="midnightblue" points="149.976,-299.452 160.37,-297.4 150.964,-292.523 149.976,-299.452"/>
</g>
<!-- Node4 -->
<g id="node4" class="node"><title>Node4</title>
<g id="a_node4"><a xlink:href="interface_power_up_manager.html" target="_top" xlink:title="Responsible for updating and drawing anything related to power ups. ">
<polygon fill="white" stroke="black" points="33.1801,-111 33.1801,-231 223.18,-231 223.18,-111 33.1801,-111"/>
<text text-anchor="middle" x="128.18" y="-218.2" font-family="Segoe UI Semibold" font-size="11.00">PowerUpManager</text>
<polyline fill="none" stroke="black" points="33.1801,-211 223.18,-211 "/>
<text text-anchor="middle" x="128.18" y="-198.2" font-family="Segoe UI Semibold" font-size="11.00"> </text>
<polyline fill="none" stroke="black" points="33.1801,-191 223.18,-191 "/>
<text text-anchor="start" x="41.1801" y="-178.2" font-family="Segoe UI Semibold" font-size="11.00">+ initWithScene:</text>
<text text-anchor="start" x="41.1801" y="-166.2" font-family="Segoe UI Semibold" font-size="11.00">+ update</text>
<text text-anchor="start" x="41.1801" y="-154.2" font-family="Segoe UI Semibold" font-size="11.00">+ createPowerUpWithMessage:</text>
<text text-anchor="start" x="41.1801" y="-142.2" font-family="Segoe UI Semibold" font-size="11.00">+ removePowerUpWithMessage:</text>
<text text-anchor="start" x="41.1801" y="-130.2" font-family="Segoe UI Semibold" font-size="11.00">+ removePowerUpWithName:</text>
<text text-anchor="start" x="41.1801" y="-118.2" font-family="Segoe UI Semibold" font-size="11.00">+ stop</text>
</a>
</g>
</g>
<!-- Node2&#45;&gt;Node4 -->
<g id="edge4" class="edge"><title>Node2&#45;&gt;Node4</title>
<path fill="none" stroke="midnightblue" d="M173.861,-261.956C168.919,-252.224 163.487,-241.527 158.147,-231.011"/>
<polygon fill="none" stroke="midnightblue" points="170.782,-263.623 178.431,-270.955 177.023,-260.454 170.782,-263.623"/>
</g>
<!-- Node5 -->
<g id="node5" class="node"><title>Node5</title>
<g id="a_node5"><a xlink:href="interface_h_u_d_manager.html" target="_top" xlink:title="Displays information for the player. ">
<polygon fill="white" stroke="black" points="241.18,-135 241.18,-207 345.18,-207 345.18,-135 241.18,-135"/>
<text text-anchor="middle" x="293.18" y="-194.2" font-family="Segoe UI Semibold" font-size="11.00">HUDManager</text>
<polyline fill="none" stroke="black" points="241.18,-187 345.18,-187 "/>
<text text-anchor="start" x="249.18" y="-174.2" font-family="Segoe UI Semibold" font-size="11.00">+ players</text>
<polyline fill="none" stroke="black" points="241.18,-167 345.18,-167 "/>
<text text-anchor="start" x="249.18" y="-154.2" font-family="Segoe UI Semibold" font-size="11.00">+ initWithScene:</text>
<text text-anchor="start" x="249.18" y="-142.2" font-family="Segoe UI Semibold" font-size="11.00">+ update</text>
</a>
</g>
</g>
<!-- Node2&#45;&gt;Node5 -->
<g id="edge6" class="edge"><title>Node2&#45;&gt;Node5</title>
<path fill="none" stroke="midnightblue" d="M222.344,-262.671C235.987,-245.208 252.15,-224.518 265.59,-207.315"/>
<polygon fill="none" stroke="midnightblue" points="219.27,-260.92 215.872,-270.955 224.786,-265.229 219.27,-260.92"/>
</g>
<!-- Node8 -->
<g id="node8" class="node"><title>Node8</title>
<g id="a_node8"><a xlink:href="interface_enemy_manager.html" target="_top" xlink:title="Responsible for handling all enemies. ">
<polygon fill="white" stroke="black" points="363.18,-117 363.18,-225 559.18,-225 559.18,-117 363.18,-117"/>
<text text-anchor="middle" x="461.18" y="-212.2" font-family="Segoe UI Semibold" font-size="11.00">EnemyManager</text>
<polyline fill="none" stroke="black" points="363.18,-205 559.18,-205 "/>
<text text-anchor="middle" x="461.18" y="-192.2" font-family="Segoe UI Semibold" font-size="11.00"> </text>
<polyline fill="none" stroke="black" points="363.18,-185 559.18,-185 "/>
<text text-anchor="start" x="371.18" y="-172.2" font-family="Segoe UI Semibold" font-size="11.00">+ initWithScene:</text>
<text text-anchor="start" x="371.18" y="-160.2" font-family="Segoe UI Semibold" font-size="11.00">+ update:</text>
<text text-anchor="start" x="371.18" y="-148.2" font-family="Segoe UI Semibold" font-size="11.00">+ createEnemyWithPlayerPostion:</text>
<text text-anchor="start" x="371.18" y="-136.2" font-family="Segoe UI Semibold" font-size="11.00">+ createEnemyWithMessage:</text>
<text text-anchor="start" x="371.18" y="-124.2" font-family="Segoe UI Semibold" font-size="11.00">+ removeAllEnemies</text>
</a>
</g>
</g>
<!-- Node2&#45;&gt;Node8 -->
<g id="edge10" class="edge"><title>Node2&#45;&gt;Node8</title>
<path fill="none" stroke="midnightblue" d="M235.028,-283.815C267.863,-270.76 314.496,-251.432 354.18,-232 358.675,-229.799 363.247,-227.496 367.842,-225.13"/>
<polygon fill="none" stroke="midnightblue" points="233.74,-280.56 225.727,-287.491 236.314,-287.07 233.74,-280.56"/>
</g>
<!-- Node3 -->
<g id="node3" class="node"><title>Node3</title>
<polygon fill="white" stroke="#bfbfbf" points="577.18,-141 577.18,-201 749.18,-201 749.18,-141 577.18,-141"/>
<text text-anchor="middle" x="663.18" y="-188.2" font-family="Segoe UI Semibold" font-size="11.00">&lt;SKPhysicsContactDelegate&gt;</text>
<polyline fill="none" stroke="#bfbfbf" points="577.18,-181 749.18,-181 "/>
<text text-anchor="middle" x="663.18" y="-168.2" font-family="Segoe UI Semibold" font-size="11.00"> </text>
<polyline fill="none" stroke="#bfbfbf" points="577.18,-161 749.18,-161 "/>
<text text-anchor="middle" x="663.18" y="-148.2" font-family="Segoe UI Semibold" font-size="11.00"> </text>
</g>
<!-- Node3&#45;&gt;Node1 -->
<g id="edge2" class="edge"><title>Node3&#45;&gt;Node1</title>
<path fill="none" stroke="midnightblue" d="M609.487,-135.251C596.097,-126.818 581.7,-117.946 568.18,-110 544.175,-95.8918 538.722,-91.0866 513.18,-80 483.626,-67.1719 449.463,-55.7083 421.724,-47.2035"/>
<polygon fill="none" stroke="midnightblue" points="607.799,-138.325 618.121,-140.715 611.543,-132.41 607.799,-138.325"/>
</g>
<!-- Node4&#45;&gt;Node1 -->
<g id="edge3" class="edge"><title>Node4&#45;&gt;Node1</title>
<path fill="none" stroke="#404040" d="M174.193,-110.907C185.312,-99.4239 197.864,-88.3719 211.18,-80 238.75,-62.6662 272.984,-51.2435 302.443,-43.9085"/>
<polygon fill="none" stroke="#404040" points="302.638,-43.8624 307.558,-38.5906 314.317,-41.1046 309.396,-46.3765 302.638,-43.8624"/>
<text text-anchor="middle" x="264.18" y="-83.2" font-family="Segoe UI Semibold" font-size="11.00"> +powerUpManager</text>
</g>
<!-- Node5&#45;&gt;Node1 -->
<g id="edge5" class="edge"><title>Node5&#45;&gt;Node1</title>
<path fill="none" stroke="#404040" d="M303.277,-134.961C309.004,-117.759 317.063,-97.1085 327.18,-80 328.958,-76.9931 330.929,-73.9908 333.018,-71.0387"/>
<polygon fill="none" stroke="#404040" points="333.192,-70.8096 333.643,-63.6126 340.459,-61.2605 340.009,-68.4576 333.192,-70.8096"/>
<text text-anchor="middle" x="366.68" y="-83.2" font-family="Segoe UI Semibold" font-size="11.00"> +hudManager</text>
</g>
<!-- Node6 -->
<g id="node6" class="node"><title>Node6</title>
<g id="a_node6"><a xlink:href="interface_sound_manager.html" target="_top" xlink:title="Responsible for playing sound effects and music. ">
<polygon fill="white" stroke="black" points="767.68,-129 767.68,-213 910.68,-213 910.68,-129 767.68,-129"/>
<text text-anchor="middle" x="839.18" y="-200.2" font-family="Segoe UI Semibold" font-size="11.00">SoundManager</text>
<polyline fill="none" stroke="black" points="767.68,-193 910.68,-193 "/>
<text text-anchor="middle" x="839.18" y="-180.2" font-family="Segoe UI Semibold" font-size="11.00"> </text>
<polyline fill="none" stroke="black" points="767.68,-173 910.68,-173 "/>
<text text-anchor="start" x="775.68" y="-160.2" font-family="Segoe UI Semibold" font-size="11.00">+ playSound:</text>
<text text-anchor="start" x="775.68" y="-148.2" font-family="Segoe UI Semibold" font-size="11.00">+ playBackgroundMusic</text>
<text text-anchor="start" x="775.68" y="-136.2" font-family="Segoe UI Semibold" font-size="11.00">+ stop</text>
</a>
</g>
</g>
<!-- Node6&#45;&gt;Node1 -->
<g id="edge7" class="edge"><title>Node6&#45;&gt;Node1</title>
<path fill="none" stroke="#404040" d="M790.771,-128.871C780.509,-121.704 769.378,-114.967 758.18,-110 650.785,-62.3654 513.867,-43.5943 434.112,-36.3615"/>
<polygon fill="none" stroke="#404040" points="433.771,-36.332 427.449,-39.7996 421.816,-35.297 428.139,-31.8294 433.771,-36.332"/>
<text text-anchor="middle" x="753.68" y="-83.2" font-family="Segoe UI Semibold" font-size="11.00"> +soundManager</text>
</g>
<!-- Node7 -->
<g id="node7" class="node"><title>Node7</title>
<polygon fill="white" stroke="#bfbfbf" points="809.68,-271 809.68,-331 868.68,-331 868.68,-271 809.68,-271"/>
<text text-anchor="middle" x="839.18" y="-318.2" font-family="Segoe UI Semibold" font-size="11.00">SKNode</text>
<polyline fill="none" stroke="#bfbfbf" points="809.68,-311 868.68,-311 "/>
<text text-anchor="middle" x="839.18" y="-298.2" font-family="Segoe UI Semibold" font-size="11.00"> </text>
<polyline fill="none" stroke="#bfbfbf" points="809.68,-291 868.68,-291 "/>
<text text-anchor="middle" x="839.18" y="-278.2" font-family="Segoe UI Semibold" font-size="11.00"> </text>
</g>
<!-- Node7&#45;&gt;Node6 -->
<g id="edge8" class="edge"><title>Node7&#45;&gt;Node6</title>
<path fill="none" stroke="midnightblue" d="M839.18,-260.874C839.18,-245.729 839.18,-228.384 839.18,-213.061"/>
<polygon fill="none" stroke="midnightblue" points="835.68,-260.955 839.18,-270.955 842.68,-260.955 835.68,-260.955"/>
</g>
<!-- Node8&#45;&gt;Node1 -->
<g id="edge9" class="edge"><title>Node8&#45;&gt;Node1</title>
<path fill="none" stroke="#404040" d="M430.238,-116.964C422.65,-104.646 414.352,-91.7145 406.18,-80 404.059,-76.9599 401.811,-73.8572 399.51,-70.7655"/>
<polygon fill="none" stroke="#404040" points="399.35,-70.556 392.53,-68.2142 392.068,-61.0179 398.888,-63.3596 399.35,-70.556"/>
<text text-anchor="middle" x="462.18" y="-83.2" font-family="Segoe UI Semibold" font-size="11.00"> +enemyManager</text>
</g>
</g>
</svg>
        <g id="navigator" transform="translate(0 0)" fill="#404254">
                <rect fill="#f2f5e9" fill-opacity="0.5" stroke="#606060" stroke-width=".5" x="0" y="0" width="60" height="60"/>
                <use id="zoomplus" xlink:href="#zoomPlus" x="17" y="9" onmousedown="handleZoom(evt,'in')"/>
                <use id="zoomminus" xlink:href="#zoomMin" x="42" y="9" onmousedown="handleZoom(evt,'out')"/>
                <use id="reset" xlink:href="#resetDef" x="30" y="36" onmousedown="handleReset()"/>
                <g id="arrowUp" xlink:href="#dirArrow" transform="translate(30 24)" onmousedown="handlePan(0,-1)">
                  <use xlink:href="#rim" fill="#404040">
                        <set attributeName="fill" to="#808080" begin="arrowUp.mouseover" end="arrowUp.mouseout"/>
                  </use>
                  <path fill="none" stroke="white" stroke-width="1.5" d="M0,-3.0v7 M-2.5,-0.5L0,-3.0L2.5,-0.5"/>
                </g>
                <g id="arrowRight" xlink:href="#dirArrow" transform="rotate(90) translate(36 -43)" onmousedown="handlePan(1,0)">
                  <use xlink:href="#rim" fill="#404040">
                        <set attributeName="fill" to="#808080" begin="arrowRight.mouseover" end="arrowRight.mouseout"/>
                  </use>
                  <path fill="none" stroke="white" stroke-width="1.5" d="M0,-3.0v7 M-2.5,-0.5L0,-3.0L2.5,-0.5"/>
                </g>
                <g id="arrowDown" xlink:href="#dirArrow" transform="rotate(180) translate(-30 -48)" onmousedown="handlePan(0,1)">
                  <use xlink:href="#rim" fill="#404040">
                        <set attributeName="fill" to="#808080" begin="arrowDown.mouseover" end="arrowDown.mouseout"/>
                  </use>
                  <path fill="none" stroke="white" stroke-width="1.5" d="M0,-3.0v7 M-2.5,-0.5L0,-3.0L2.5,-0.5"/>
                </g>
                <g id="arrowLeft" xlink:href="#dirArrow" transform="rotate(270) translate(-36 17)" onmousedown="handlePan(-1,0)">
                  <use xlink:href="#rim" fill="#404040">
                        <set attributeName="fill" to="#808080" begin="arrowLeft.mouseover" end="arrowLeft.mouseout"/>
                  </use>
                  <path fill="none" stroke="white" stroke-width="1.5" d="M0,-3.0v7 M-2.5,-0.5L0,-3.0L2.5,-0.5"/>
                </g>
        </g>
        <svg viewBox="0 0 15 15" width="100%" height="30px" preserveAspectRatio="xMaxYMin meet">
         <g id="arrow_out" transform="scale(0.3 0.3)">
          <a xlink:href="interface_collision_manager__coll__graph_org.svg" target="_base">
           <rect id="button" ry="5" rx="5" y="6" x="6" height="38" width="38"
                fill="#f2f5e9" fill-opacity="0.5" stroke="#606060" stroke-width="1.0"/>
           <path id="arrow"
             d="M 11.500037,31.436501 C 11.940474,20.09759 22.043105,11.32322 32.158766,21.979434 L 37.068811,17.246167 C 37.068811,17.246167 37.088388,32 37.088388,32 L 22.160133,31.978069 C 22.160133,31.978069 26.997745,27.140456 26.997745,27.140456 C 18.528582,18.264221 13.291696,25.230495 11.500037,31.436501 z"
             style="fill:#404040;"/>
          </a>
         </g>
        </svg>
</svg>
