<?xml version="1.0" encoding="UTF-8" standalone="no"?>
<!DOCTYPE svg PUBLIC "-//W3C//DTD SVG 1.1//EN"
 "http://www.w3.org/Graphics/SVG/1.1/DTD/svg11.dtd">
<!-- Generated by graphviz version 2.34.0 (20130907.0111)
 -->
<!-- Title: &lt;MultiplayerDelegate&gt; Pages: 1 -->
<svg width="202pt" height="216pt"
 viewBox="0.00 0.00 202.00 216.00" xmlns="http://www.w3.org/2000/svg" xmlns:xlink="http://www.w3.org/1999/xlink">
<g id="graph0" class="graph" transform="scale(1 1) rotate(0) translate(4 212)">
<title>&lt;MultiplayerDelegate&gt;</title>
<polygon fill="white" stroke="white" points="-4,4 -4,-212 198,-212 198,4 -4,4"/>
<!-- Node1 -->
<g id="node1" class="node"><title>Node1</title>
<polygon fill="#bfbfbf" stroke="black" points="0,-1 0,-109 194,-109 194,-1 0,-1"/>
<text text-anchor="middle" x="97" y="-96.2" font-family="Segoe UI Semibold" font-size="11.00">&lt;MultiplayerDelegate&gt;</text>
<polyline fill="none" stroke="black" points="0,-89 194,-89 "/>
<text text-anchor="middle" x="97" y="-76.2" font-family="Segoe UI Semibold" font-size="11.00"> </text>
<polyline fill="none" stroke="black" points="0,-69 194,-69 "/>
<text text-anchor="start" x="8" y="-56.2" font-family="Segoe UI Semibold" font-size="11.00">+ matchStarted</text>
<text text-anchor="start" x="8" y="-44.2" font-family="Segoe UI Semibold" font-size="11.00">+ readyToStartMatch</text>
<text text-anchor="start" x="8" y="-32.2" font-family="Segoe UI Semibold" font-size="11.00">+ matchEnded</text>
<text text-anchor="start" x="8" y="-20.2" font-family="Segoe UI Semibold" font-size="11.00">+ receivedMessage:fromPlayerID:</text>
<text text-anchor="start" x="8" y="-8.2" font-family="Segoe UI Semibold" font-size="11.00">+ peerConnected:</text>
</g>
<!-- Node2 -->
<g id="node2" class="node"><title>Node2</title>
<polygon fill="white" stroke="#bfbfbf" points="56,-147 56,-207 138,-207 138,-147 56,-147"/>
<text text-anchor="middle" x="97" y="-194.2" font-family="Segoe UI Semibold" font-size="11.00">&lt;NSObject&gt;</text>
<polyline fill="none" stroke="#bfbfbf" points="56,-187 138,-187 "/>
<text text-anchor="middle" x="97" y="-174.2" font-family="Segoe UI Semibold" font-size="11.00"> </text>
<polyline fill="none" stroke="#bfbfbf" points="56,-167 138,-167 "/>
<text text-anchor="middle" x="97" y="-154.2" font-family="Segoe UI Semibold" font-size="11.00"> </text>
</g>
<!-- Node2&#45;&gt;Node1 -->
<g id="edge1" class="edge"><title>Node2&#45;&gt;Node1</title>
<path fill="none" stroke="midnightblue" d="M97,-136.923C97,-128.061 97,-118.503 97,-109.169"/>
<polygon fill="none" stroke="midnightblue" points="93.5001,-136.951 97,-146.951 100.5,-136.951 93.5001,-136.951"/>
</g>
</g>
</svg>
