<?xml version="1.0" encoding="UTF-8" standalone="no"?>
<!DOCTYPE svg PUBLIC "-//W3C//DTD SVG 1.1//EN"
 "http://www.w3.org/Graphics/SVG/1.1/DTD/svg11.dtd">
<!-- Generated by graphviz version 2.34.0 (20130907.0111)
 -->
<!-- Title: &lt;MultiplayerDelegate&gt; Pages: 1 -->
<svg width="202pt" height="314pt"
 viewBox="0.00 0.00 202.00 314.00" xmlns="http://www.w3.org/2000/svg" xmlns:xlink="http://www.w3.org/1999/xlink">
<g id="graph0" class="graph" transform="scale(1 1) rotate(0) translate(4 310)">
<title>&lt;MultiplayerDelegate&gt;</title>
<polygon fill="white" stroke="white" points="-4,4 -4,-310 198,-310 198,4 -4,4"/>
<!-- Node1 -->
<g id="node1" class="node"><title>Node1</title>
<polygon fill="#bfbfbf" stroke="black" points="0,-99 0,-207 194,-207 194,-99 0,-99"/>
<text text-anchor="middle" x="97" y="-194.2" font-family="Segoe UI Semibold" font-size="11.00">&lt;MultiplayerDelegate&gt;</text>
<polyline fill="none" stroke="black" points="0,-187 194,-187 "/>
<text text-anchor="middle" x="97" y="-174.2" font-family="Segoe UI Semibold" font-size="11.00"> </text>
<polyline fill="none" stroke="black" points="0,-167 194,-167 "/>
<text text-anchor="start" x="8" y="-154.2" font-family="Segoe UI Semibold" font-size="11.00">+ matchStarted</text>
<text text-anchor="start" x="8" y="-142.2" font-family="Segoe UI Semibold" font-size="11.00">+ readyToStartMatch</text>
<text text-anchor="start" x="8" y="-130.2" font-family="Segoe UI Semibold" font-size="11.00">+ matchEnded</text>
<text text-anchor="start" x="8" y="-118.2" font-family="Segoe UI Semibold" font-size="11.00">+ receivedMessage:fromPlayerID:</text>
<text text-anchor="start" x="8" y="-106.2" font-family="Segoe UI Semibold" font-size="11.00">+ peerConnected:</text>
</g>
<!-- Node3 -->
<g id="node3" class="node"><title>Node3</title>
<g id="a_node3"><a xlink:href="interface_menu_scene.html" target="_top" xlink:title="{MenuScene\n||}">
<polygon fill="white" stroke="black" points="14.5,-1 14.5,-61 91.5,-61 91.5,-1 14.5,-1"/>
<text text-anchor="middle" x="53" y="-48.2" font-family="Segoe UI Semibold" font-size="11.00">MenuScene</text>
<polyline fill="none" stroke="black" points="14.5,-41 91.5,-41 "/>
<text text-anchor="middle" x="53" y="-28.2" font-family="Segoe UI Semibold" font-size="11.00"> </text>
<polyline fill="none" stroke="black" points="14.5,-21 91.5,-21 "/>
<text text-anchor="middle" x="53" y="-8.2" font-family="Segoe UI Semibold" font-size="11.00"> </text>
</a>
</g>
</g>
<!-- Node1&#45;&gt;Node3 -->
<g id="edge2" class="edge"><title>Node1&#45;&gt;Node3</title>
<path fill="none" stroke="midnightblue" d="M73.9953,-89.2598C70.3958,-79.443 66.8322,-69.7242 63.6911,-61.1575"/>
<polygon fill="none" stroke="midnightblue" points="70.716,-90.4836 77.4447,-98.6674 77.2882,-88.0737 70.716,-90.4836"/>
</g>
<!-- Node4 -->
<g id="node4" class="node"><title>Node4</title>
<g id="a_node4"><a xlink:href="interface_my_scene.html" target="_top" xlink:title="This is the actual game state. ">
<polygon fill="white" stroke="black" points="109.5,-1 109.5,-61 172.5,-61 172.5,-1 109.5,-1"/>
<text text-anchor="middle" x="141" y="-48.2" font-family="Segoe UI Semibold" font-size="11.00">MyScene</text>
<polyline fill="none" stroke="black" points="109.5,-41 172.5,-41 "/>
<text text-anchor="middle" x="141" y="-28.2" font-family="Segoe UI Semibold" font-size="11.00"> </text>
<polyline fill="none" stroke="black" points="109.5,-21 172.5,-21 "/>
<text text-anchor="middle" x="141" y="-8.2" font-family="Segoe UI Semibold" font-size="11.00"> </text>
</a>
</g>
</g>
<!-- Node1&#45;&gt;Node4 -->
<g id="edge3" class="edge"><title>Node1&#45;&gt;Node4</title>
<path fill="none" stroke="midnightblue" d="M120.005,-89.2598C123.604,-79.443 127.168,-69.7242 130.309,-61.1575"/>
<polygon fill="none" stroke="midnightblue" points="116.712,-88.0737 116.555,-98.6674 123.284,-90.4836 116.712,-88.0737"/>
</g>
<!-- Node2 -->
<g id="node2" class="node"><title>Node2</title>
<polygon fill="white" stroke="#bfbfbf" points="56,-245 56,-305 138,-305 138,-245 56,-245"/>
<text text-anchor="middle" x="97" y="-292.2" font-family="Segoe UI Semibold" font-size="11.00">&lt;NSObject&gt;</text>
<polyline fill="none" stroke="#bfbfbf" points="56,-285 138,-285 "/>
<text text-anchor="middle" x="97" y="-272.2" font-family="Segoe UI Semibold" font-size="11.00"> </text>
<polyline fill="none" stroke="#bfbfbf" points="56,-265 138,-265 "/>
<text text-anchor="middle" x="97" y="-252.2" font-family="Segoe UI Semibold" font-size="11.00"> </text>
</g>
<!-- Node2&#45;&gt;Node1 -->
<g id="edge1" class="edge"><title>Node2&#45;&gt;Node1</title>
<path fill="none" stroke="midnightblue" d="M97,-234.923C97,-226.061 97,-216.503 97,-207.169"/>
<polygon fill="none" stroke="midnightblue" points="93.5001,-234.951 97,-244.951 100.5,-234.951 93.5001,-234.951"/>
</g>
</g>
</svg>
